  0
SECTION
  2
HEADER
  9
$MEASUREMENT
  70
  1
  9
$INSUNITS
  70
  4
  0
ENDSEC
  0
SECTION
  2
TABLES
  0
TABLE
  2
LTYPE
 70
     1
  0
LTYPE
  2
CONTINUOUS
 70
    64
  3
Ausgezogene Linie
 72
    65
 73
     0
 40
0.0
  0
ENDTAB
  0
TABLE
  2
LAYER
 70
     3
  0
LAYER
  2
Contour
 70
    64
 62
     7
  6
CONTINUOUS
  0
LAYER
  2
Engraving
 70
    64
 62
     7
  6
CONTINUOUS
  0
LAYER
  2
Reference_points
 70
    64
 62
     1
  6
CONTINUOUS
  0
ENDTAB
  0
TABLE
  2
STYLE
 70
     1
  0
STYLE
  2
TXT
 70
    64
 40
0.0
 41
1.0
 50
0.0
 71
     0
 42
3.500000
  3
TXT
  0
ENDTAB
  0
ENDSEC
  0
SECTION
  2
BLOCKS
  0
ENDSEC
  0
SECTION
  2
ENTITIES
  0
LINE
  8
Contour
 62
   7
 39
0.100
  6
CONTINUOUS
 10
298.00000
 20
167.00000
 30
 0
 11
10.00000
 21
167.00000
  0
ARC
  8
Contour
 62
   7
 39
0.100
  6
CONTINUOUS
 10
10.00000
 20
157.00000
 30
 0
 40
10.00000
 50
90.00000
 51
180.00000
  0
LINE
  8
Contour
 62
   7
 39
0.100
  6
CONTINUOUS
 10
0.00000
 20
157.00000
 30
 0
 11
0.00000
 21
10.00000
  0
ARC
  8
Contour
 62
   7
 39
0.100
  6
CONTINUOUS
 10
10.00000
 20
10.00000
 30
 0
 40
10.00000
 50
180.00000
 51
270.00000
  0
LINE
  8
Contour
 62
   7
 39
0.100
  6
CONTINUOUS
 10
10.00000
 20
0.00000
 30
 0
 11
298.00000
 21
0.00000
  0
ARC
  8
Contour
 62
   7
 39
0.100
  6
CONTINUOUS
 10
298.00000
 20
10.00000
 30
 0
 40
10.00000
 50
-90.00000
 51
0.00000
  0
LINE
  8
Contour
 62
   7
 39
0.100
  6
CONTINUOUS
 10
308.00000
 20
10.00000
 30
 0
 11
308.00000
 21
157.00000
  0
ARC
  8
Contour
 62
   7
 39
0.100
  6
CONTINUOUS
 10
298.00000
 20
157.00000
 30
 0
 40
10.00000
 50
0.00000
 51
90.00000
  0
LINE
  8
Engraving
 62
   7
 39
0.400
  6
CONTINUOUS
 10
220.23000
 20
81.41600
 30
 0
 11
217.20600
 21
81.41600
  0
ARC
  8
Engraving
 62
   7
 39
0.400
  6
CONTINUOUS
 10
217.20600
 20
80.60600
 30
 0
 40
0.81000
 50
90.00000
 51
270.00000
  0
LINE
  8
Engraving
 62
   7
 39
0.400
  6
CONTINUOUS
 10
217.20600
 20
79.79600
 30
 0
 11
220.23000
 21
79.79600
  0
ARC
  8
Engraving
 62
   7
 39
0.400
  6
CONTINUOUS
 10
220.23000
 20
80.60600
 30
 0
 40
0.81000
 50
-90.00000
 51
90.00000
  0
ARC
  8
Engraving
 62
   7
 39
0.400
  6
CONTINUOUS
 10
219.29000
 20
81.14800
 30
 0
 40
1.89000
 50
32.81539
 51
87.69485
  0
ARC
  8
Engraving
 62
   7
 39
0.400
  6
CONTINUOUS
 10
217.47600
 20
23.04400
 30
 0
 40
60.02200
 50
88.19554
 51
91.80446
  0
ARC
  8
Engraving
 62
   7
 39
0.400
  6
CONTINUOUS
 10
215.65600
 20
81.13100
 30
 0
 40
1.90600
 50
92.10441
 51
181.17221
  0
LINE
  8
Engraving
 62
   7
 39
0.400
  6
CONTINUOUS
 10
213.75000
 20
81.09200
 30
 0
 11
213.75000
 21
80.01200
  0
ARC
  8
Engraving
 62
   7
 39
0.400
  6
CONTINUOUS
 10
215.65600
 20
79.97300
 30
 0
 40
1.90600
 50
178.82779
 51
267.89559
  0
ARC
  8
Engraving
 62
   7
 39
0.400
  6
CONTINUOUS
 10
217.47600
 20
138.06000
 30
 0
 40
60.02200
 50
-91.80446
 51
-88.19554
  0
ARC
  8
Engraving
 62
   7
 39
0.400
  6
CONTINUOUS
 10
219.29000
 20
79.95600
 30
 0
 40
1.89000
 50
-87.69485
 51
-32.81539
  0
LINE
  8
Engraving
 62
   7
 39
0.400
  6
CONTINUOUS
 10
220.87800
 20
78.93200
 30
 0
 11
220.87800
 21
78.06800
  0
LINE
  8
Engraving
 62
   7
 39
0.400
  6
CONTINUOUS
 10
220.87800
 20
78.06800
 30
 0
 11
223.68600
 21
78.06800
  0
LINE
  8
Engraving
 62
   7
 39
0.400
  6
CONTINUOUS
 10
223.68600
 20
78.06800
 30
 0
 11
223.68600
 21
83.46800
  0
ARC
  8
Engraving
 62
   7
 39
0.400
  6
CONTINUOUS
 10
221.53200
 20
83.47600
 30
 0
 40
2.15400
 50
-0.21280
 51
87.28634
  0
ARC
  8
Engraving
 62
   7
 39
0.400
  6
CONTINUOUS
 10
218.71800
 20
23.94100
 30
 0
 40
61.75600
 50
87.29359
 51
92.70641
  0
ARC
  8
Engraving
 62
   7
 39
0.400
  6
CONTINUOUS
 10
215.90400
 20
83.47600
 30
 0
 40
2.15400
 50
92.71366
 51
180.21280
  0
LINE
  8
Engraving
 62
   7
 39
0.400
  6
CONTINUOUS
 10
213.75000
 20
83.46800
 30
 0
 11
216.55800
 21
83.46800
  0
ARC
  8
Engraving
 62
   7
 39
0.400
  6
CONTINUOUS
 10
217.20300
 20
83.47100
 30
 0
 40
0.64500
 50
89.73351
 51
-179.73351
  0
LINE
  8
Engraving
 62
   7
 39
0.400
  6
CONTINUOUS
 10
217.20600
 20
84.11600
 30
 0
 11
220.23000
 21
84.11600
  0
ARC
  8
Engraving
 62
   7
 39
0.400
  6
CONTINUOUS
 10
220.23300
 20
83.47100
 30
 0
 40
0.64500
 50
359.73351
 51
90.26649
  0
LINE
  8
Engraving
 62
   7
 39
0.400
  6
CONTINUOUS
 10
220.87800
 20
83.46800
 30
 0
 11
220.87800
 21
82.17200
  0
LINE
  8
Engraving
 62
   7
 39
0.400
  6
CONTINUOUS
 10
226.92600
 20
85.62800
 30
 0
 11
229.73400
 21
85.62800
  0
LINE
  8
Engraving
 62
   7
 39
0.400
  6
CONTINUOUS
 10
229.73400
 20
85.62800
 30
 0
 11
229.73400
 21
84.11600
  0
ARC
  8
Engraving
 62
   7
 39
0.400
  6
CONTINUOUS
 10
231.67900
 20
83.63700
 30
 0
 40
2.00300
 50
456.22014
 51
166.16494
  0
ARC
  8
Engraving
 62
   7
 39
0.400
  6
CONTINUOUS
 10
232.86600
 20
72.93000
 30
 0
 40
12.77500
 50
443.69051
 51
96.30949
  0
ARC
  8
Engraving
 62
   7
 39
0.400
  6
CONTINUOUS
 10
233.98200
 20
83.18200
 30
 0
 40
2.46300
 50
385.02532
 51
83.28473
  0
ARC
  8
Engraving
 62
   7
 39
0.400
  6
CONTINUOUS
 10
238.37900
 20
83.26200
 30
 0
 40
2.36900
 50
452.73436
 51
156.04242
  0
ARC
  8
Engraving
 62
   7
 39
0.400
  6
CONTINUOUS
 10
239.77800
 20
53.64200
 30
 0
 40
32.02200
 50
447.29360
 51
92.70640
  0
ARC
  8
Engraving
 62
   7
 39
0.400
  6
CONTINUOUS
 10
241.18800
 20
83.47600
 30
 0
 40
2.15400
 50
359.78720
 51
87.28634
  0
LINE
  8
Engraving
 62
   7
 39
0.400
  6
CONTINUOUS
 10
243.34200
 20
83.46800
 30
 0
 11
243.34200
 21
78.06800
  0
LINE
  8
Engraving
 62
   7
 39
0.400
  6
CONTINUOUS
 10
243.34200
 20
78.06800
 30
 0
 11
240.53400
 21
78.06800
  0
LINE
  8
Engraving
 62
   7
 39
0.400
  6
CONTINUOUS
 10
240.53400
 20
78.06800
 30
 0
 11
240.53400
 21
82.60400
  0
ARC
  8
Engraving
 62
   7
 39
0.400
  6
CONTINUOUS
 10
239.66600
 20
82.60700
 30
 0
 40
0.86800
 50
-0.19803
 51
82.58851
  0
ARC
  8
Engraving
 62
   7
 39
0.400
  6
CONTINUOUS
 10
238.53600
 20
73.64900
 30
 0
 40
9.89700
 50
82.79097
 51
97.20903
  0
ARC
  8
Engraving
 62
   7
 39
0.400
  6
CONTINUOUS
 10
237.40600
 20
82.60700
 30
 0
 40
0.86800
 50
97.41149
 51
180.19803
  0
LINE
  8
Engraving
 62
   7
 39
0.400
  6
CONTINUOUS
 10
236.53800
 20
82.60400
 30
 0
 11
236.53800
 21
78.06800
  0
LINE
  8
Engraving
 62
   7
 39
0.400
  6
CONTINUOUS
 10
236.53800
 20
78.06800
 30
 0
 11
233.73000
 21
78.06800
  0
LINE
  8
Engraving
 62
   7
 39
0.400
  6
CONTINUOUS
 10
233.73000
 20
78.06800
 30
 0
 11
233.73000
 21
82.60400
  0
ARC
  8
Engraving
 62
   7
 39
0.400
  6
CONTINUOUS
 10
232.86200
 20
82.60700
 30
 0
 40
0.86800
 50
-0.19803
 51
82.58851
  0
ARC
  8
Engraving
 62
   7
 39
0.400
  6
CONTINUOUS
 10
231.73200
 20
73.64900
 30
 0
 40
9.89700
 50
82.79097
 51
97.20903
  0
ARC
  8
Engraving
 62
   7
 39
0.400
  6
CONTINUOUS
 10
230.60200
 20
82.60700
 30
 0
 40
0.86800
 50
97.41149
 51
180.19803
  0
LINE
  8
Engraving
 62
   7
 39
0.400
  6
CONTINUOUS
 10
229.73400
 20
82.60400
 30
 0
 11
229.73400
 21
78.06800
  0
LINE
  8
Engraving
 62
   7
 39
0.400
  6
CONTINUOUS
 10
229.73400
 20
78.06800
 30
 0
 11
226.92600
 21
78.06800
  0
LINE
  8
Engraving
 62
   7
 39
0.400
  6
CONTINUOUS
 10
226.92600
 20
78.06800
 30
 0
 11
226.92600
 21
85.62800
  0
LINE
  8
Engraving
 62
   7
 39
0.400
  6
CONTINUOUS
 10
246.58200
 20
85.62800
 30
 0
 11
249.39000
 21
85.62800
  0
LINE
  8
Engraving
 62
   7
 39
0.400
  6
CONTINUOUS
 10
249.39000
 20
85.62800
 30
 0
 11
249.39000
 21
84.33200
  0
ARC
  8
Engraving
 62
   7
 39
0.400
  6
CONTINUOUS
 10
251.32600
 20
83.53800
 30
 0
 40
2.09200
 50
452.73934
 51
157.70029
  0
ARC
  8
Engraving
 62
   7
 39
0.400
  6
CONTINUOUS
 10
252.95400
 20
49.07300
 30
 0
 40
36.59600
 50
447.29357
 51
92.70643
  0
ARC
  8
Engraving
 62
   7
 39
0.400
  6
CONTINUOUS
 10
254.58000
 20
83.47600
 30
 0
 40
2.15400
 50
359.78720
 51
87.28634
  0
LINE
  8
Engraving
 62
   7
 39
0.400
  6
CONTINUOUS
 10
256.73400
 20
83.46800
 30
 0
 11
256.73400
 21
78.06800
  0
LINE
  8
Engraving
 62
   7
 39
0.400
  6
CONTINUOUS
 10
256.73400
 20
78.06800
 30
 0
 11
253.92600
 21
78.06800
  0
LINE
  8
Engraving
 62
   7
 39
0.400
  6
CONTINUOUS
 10
253.92600
 20
78.06800
 30
 0
 11
253.92600
 21
82.60400
  0
ARC
  8
Engraving
 62
   7
 39
0.400
  6
CONTINUOUS
 10
252.94300
 20
82.60000
 30
 0
 40
0.98300
 50
0.23315
 51
83.04845
  0
ARC
  8
Engraving
 62
   7
 39
0.400
  6
CONTINUOUS
 10
251.65800
 20
70.87800
 30
 0
 40
12.77500
 50
83.69051
 51
96.30949
  0
ARC
  8
Engraving
 62
   7
 39
0.400
  6
CONTINUOUS
 10
250.37300
 20
82.60000
 30
 0
 40
0.98300
 50
96.95155
 51
179.76685
  0
LINE
  8
Engraving
 62
   7
 39
0.400
  6
CONTINUOUS
 10
249.39000
 20
82.60400
 30
 0
 11
249.39000
 21
78.06800
  0
LINE
  8
Engraving
 62
   7
 39
0.400
  6
CONTINUOUS
 10
249.39000
 20
78.06800
 30
 0
 11
246.58200
 21
78.06800
  0
LINE
  8
Engraving
 62
   7
 39
0.400
  6
CONTINUOUS
 10
246.58200
 20
78.06800
 30
 0
 11
246.58200
 21
85.62800
  0
LINE
  8
Engraving
 62
   7
 39
0.400
  6
CONTINUOUS
 10
259.97400
 20
88.86800
 30
 0
 11
271.20600
 21
88.86800
  0
LINE
  8
Engraving
 62
   7
 39
0.400
  6
CONTINUOUS
 10
271.20600
 20
88.86800
 30
 0
 11
271.20600
 21
86.49200
  0
LINE
  8
Engraving
 62
   7
 39
0.400
  6
CONTINUOUS
 10
271.20600
 20
86.49200
 30
 0
 11
262.89000
 21
86.49200
  0
LINE
  8
Engraving
 62
   7
 39
0.400
  6
CONTINUOUS
 10
262.89000
 20
86.49200
 30
 0
 11
262.89000
 21
84.65600
  0
LINE
  8
Engraving
 62
   7
 39
0.400
  6
CONTINUOUS
 10
262.89000
 20
84.65600
 30
 0
 11
270.88200
 21
84.65600
  0
LINE
  8
Engraving
 62
   7
 39
0.400
  6
CONTINUOUS
 10
270.88200
 20
84.65600
 30
 0
 11
270.88200
 21
82.49600
  0
LINE
  8
Engraving
 62
   7
 39
0.400
  6
CONTINUOUS
 10
270.88200
 20
82.49600
 30
 0
 11
262.89000
 21
82.49600
  0
LINE
  8
Engraving
 62
   7
 39
0.400
  6
CONTINUOUS
 10
262.89000
 20
82.49600
 30
 0
 11
262.89000
 21
80.44400
  0
LINE
  8
Engraving
 62
   7
 39
0.400
  6
CONTINUOUS
 10
262.89000
 20
80.44400
 30
 0
 11
271.20600
 21
80.44400
  0
LINE
  8
Engraving
 62
   7
 39
0.400
  6
CONTINUOUS
 10
271.20600
 20
80.44400
 30
 0
 11
271.20600
 21
78.06800
  0
LINE
  8
Engraving
 62
   7
 39
0.400
  6
CONTINUOUS
 10
271.20600
 20
78.06800
 30
 0
 11
259.97400
 21
78.06800
  0
LINE
  8
Engraving
 62
   7
 39
0.400
  6
CONTINUOUS
 10
259.97400
 20
78.06800
 30
 0
 11
259.97400
 21
88.86800
  0
LINE
  8
Engraving
 62
   7
 39
0.400
  6
CONTINUOUS
 10
281.68200
 20
83.46800
 30
 0
 11
284.38200
 21
83.46800
  0
LINE
  8
Engraving
 62
   7
 39
0.400
  6
CONTINUOUS
 10
284.38200
 20
83.46800
 30
 0
 11
284.38200
 21
83.90000
  0
ARC
  8
Engraving
 62
   7
 39
0.400
  6
CONTINUOUS
 10
282.64500
 20
83.89500
 30
 0
 40
1.73700
 50
0.16493
 51
86.13765
  0
ARC
  8
Engraving
 62
   7
 39
0.400
  6
CONTINUOUS
 10
279.41400
 20
32.53100
 30
 0
 40
53.20200
 50
86.39202
 51
93.60798
  0
ARC
  8
Engraving
 62
   7
 39
0.400
  6
CONTINUOUS
 10
276.11100
 20
83.96300
 30
 0
 40
1.66600
 50
91.54816
 51
182.16691
  0
LINE
  8
Engraving
 62
   7
 39
0.400
  6
CONTINUOUS
 10
274.44600
 20
83.90000
 30
 0
 11
274.44600
 21
82.71200
  0
ARC
  8
Engraving
 62
   7
 39
0.400
  6
CONTINUOUS
 10
276.01600
 20
82.66200
 30
 0
 40
1.57100
 50
178.17591
 51
271.82409
  0
LINE
  8
Engraving
 62
   7
 39
0.400
  6
CONTINUOUS
 10
276.06600
 20
81.09200
 30
 0
 11
281.14200
 21
81.09200
  0
ARC
  8
Engraving
 62
   7
 39
0.400
  6
CONTINUOUS
 10
281.14200
 20
80.44400
 30
 0
 40
0.64800
 50
270.00000
 51
90.00000
  0
LINE
  8
Engraving
 62
   7
 39
0.400
  6
CONTINUOUS
 10
281.14200
 20
79.79600
 30
 0
 11
277.90200
 21
79.79600
  0
ARC
  8
Engraving
 62
   7
 39
0.400
  6
CONTINUOUS
 10
277.89900
 20
80.44100
 30
 0
 40
0.64500
 50
179.73351
 51
-89.73351
  0
LINE
  8
Engraving
 62
   7
 39
0.400
  6
CONTINUOUS
 10
277.25400
 20
80.44400
 30
 0
 11
274.44600
 21
80.44400
  0
LINE
  8
Engraving
 62
   7
 39
0.400
  6
CONTINUOUS
 10
274.44600
 20
80.44400
 30
 0
 11
274.44600
 21
79.79600
  0
ARC
  8
Engraving
 62
   7
 39
0.400
  6
CONTINUOUS
 10
276.07100
 20
79.79700
 30
 0
 40
1.62500
 50
-179.96474
 51
-93.98764
  0
ARC
  8
Engraving
 62
   7
 39
0.400
  6
CONTINUOUS
 10
279.52200
 20
134.69900
 30
 0
 40
56.63500
 50
-93.60795
 51
-86.39205
  0
ARC
  8
Engraving
 62
   7
 39
0.400
  6
CONTINUOUS
 10
282.97300
 20
79.79700
 30
 0
 40
1.62500
 50
-86.01236
 51
-0.03526
  0
LINE
  8
Engraving
 62
   7
 39
0.400
  6
CONTINUOUS
 10
284.59800
 20
79.79600
 30
 0
 11
284.59800
 21
80.87600
  0
ARC
  8
Engraving
 62
   7
 39
0.400
  6
CONTINUOUS
 10
282.97300
 20
80.87500
 30
 0
 40
1.62500
 50
0.03526
 51
86.01236
  0
LINE
  8
Engraving
 62
   7
 39
0.400
  6
CONTINUOUS
 10
283.08600
 20
82.49600
 30
 0
 11
277.79400
 21
82.71200
  0
ARC
  8
Engraving
 62
   7
 39
0.400
  6
CONTINUOUS
 10
277.83100
 20
83.41400
 30
 0
 40
0.70300
 50
93.01707
 51
-93.01707
  0
LINE
  8
Engraving
 62
   7
 39
0.400
  6
CONTINUOUS
 10
277.79400
 20
84.11600
 30
 0
 11
280.92600
 21
84.11600
  0
ARC
  8
Engraving
 62
   7
 39
0.400
  6
CONTINUOUS
 10
280.92600
 20
83.35100
 30
 0
 40
0.76500
 50
368.79741
 51
90.00000
  0
LINE
  8
Engraving
 62
   7
 39
0.400
  6
CONTINUOUS
 10
287.83800
 20
86.70800
 30
 0
 11
290.64600
 21
86.70800
  0
LINE
  8
Engraving
 62
   7
 39
0.400
  6
CONTINUOUS
 10
290.64600
 20
86.70800
 30
 0
 11
290.64600
 21
88.86800
  0
LINE
  8
Engraving
 62
   7
 39
0.400
  6
CONTINUOUS
 10
290.64600
 20
88.86800
 30
 0
 11
287.83800
 21
88.86800
  0
LINE
  8
Engraving
 62
   7
 39
0.400
  6
CONTINUOUS
 10
287.83800
 20
88.86800
 30
 0
 11
287.83800
 21
86.70800
  0
LINE
  8
Engraving
 62
   7
 39
0.400
  6
CONTINUOUS
 10
287.83800
 20
85.62800
 30
 0
 11
290.64600
 21
85.62800
  0
LINE
  8
Engraving
 62
   7
 39
0.400
  6
CONTINUOUS
 10
290.64600
 20
85.62800
 30
 0
 11
290.64600
 21
78.06800
  0
LINE
  8
Engraving
 62
   7
 39
0.400
  6
CONTINUOUS
 10
290.64600
 20
78.06800
 30
 0
 11
287.83800
 21
78.06800
  0
LINE
  8
Engraving
 62
   7
 39
0.400
  6
CONTINUOUS
 10
287.83800
 20
78.06800
 30
 0
 11
287.83800
 21
85.62800
  0
LINE
  8
Engraving
 62
   7
 39
0.400
  6
CONTINUOUS
 10
300.36600
 20
81.41600
 30
 0
 11
297.34200
 21
81.41600
  0
ARC
  8
Engraving
 62
   7
 39
0.400
  6
CONTINUOUS
 10
297.34200
 20
80.60600
 30
 0
 40
0.81000
 50
90.00000
 51
270.00000
  0
LINE
  8
Engraving
 62
   7
 39
0.400
  6
CONTINUOUS
 10
297.34200
 20
79.79600
 30
 0
 11
300.36600
 21
79.79600
  0
ARC
  8
Engraving
 62
   7
 39
0.400
  6
CONTINUOUS
 10
300.36600
 20
80.60600
 30
 0
 40
0.81000
 50
-90.00000
 51
90.00000
  0
ARC
  8
Engraving
 62
   7
 39
0.400
  6
CONTINUOUS
 10
299.42600
 20
81.14800
 30
 0
 40
1.89000
 50
32.81539
 51
87.69485
  0
ARC
  8
Engraving
 62
   7
 39
0.400
  6
CONTINUOUS
 10
297.61200
 20
23.04400
 30
 0
 40
60.02200
 50
88.19554
 51
91.80446
  0
ARC
  8
Engraving
 62
   7
 39
0.400
  6
CONTINUOUS
 10
295.79200
 20
81.13100
 30
 0
 40
1.90600
 50
92.10441
 51
181.17221
  0
LINE
  8
Engraving
 62
   7
 39
0.400
  6
CONTINUOUS
 10
293.88600
 20
81.09200
 30
 0
 11
293.88600
 21
80.01200
  0
ARC
  8
Engraving
 62
   7
 39
0.400
  6
CONTINUOUS
 10
295.79200
 20
79.97300
 30
 0
 40
1.90600
 50
178.82779
 51
267.89559
  0
ARC
  8
Engraving
 62
   7
 39
0.400
  6
CONTINUOUS
 10
297.61200
 20
138.06000
 30
 0
 40
60.02200
 50
-91.80446
 51
-88.19554
  0
ARC
  8
Engraving
 62
   7
 39
0.400
  6
CONTINUOUS
 10
299.42600
 20
79.95600
 30
 0
 40
1.89000
 50
-87.69485
 51
-32.81539
  0
LINE
  8
Engraving
 62
   7
 39
0.400
  6
CONTINUOUS
 10
301.01400
 20
78.93200
 30
 0
 11
301.01400
 21
78.06800
  0
LINE
  8
Engraving
 62
   7
 39
0.400
  6
CONTINUOUS
 10
301.01400
 20
78.06800
 30
 0
 11
303.82200
 21
78.06800
  0
LINE
  8
Engraving
 62
   7
 39
0.400
  6
CONTINUOUS
 10
303.82200
 20
78.06800
 30
 0
 11
303.82200
 21
83.46800
  0
ARC
  8
Engraving
 62
   7
 39
0.400
  6
CONTINUOUS
 10
301.66800
 20
83.47600
 30
 0
 40
2.15400
 50
-0.21280
 51
87.28634
  0
ARC
  8
Engraving
 62
   7
 39
0.400
  6
CONTINUOUS
 10
298.85400
 20
23.94100
 30
 0
 40
61.75600
 50
87.29359
 51
92.70641
  0
ARC
  8
Engraving
 62
   7
 39
0.400
  6
CONTINUOUS
 10
296.04000
 20
83.47600
 30
 0
 40
2.15400
 50
92.71366
 51
180.21280
  0
LINE
  8
Engraving
 62
   7
 39
0.400
  6
CONTINUOUS
 10
293.88600
 20
83.46800
 30
 0
 11
296.69400
 21
83.46800
  0
ARC
  8
Engraving
 62
   7
 39
0.400
  6
CONTINUOUS
 10
297.33900
 20
83.47100
 30
 0
 40
0.64500
 50
89.73351
 51
-179.73351
  0
LINE
  8
Engraving
 62
   7
 39
0.400
  6
CONTINUOUS
 10
297.34200
 20
84.11600
 30
 0
 11
300.36600
 21
84.11600
  0
ARC
  8
Engraving
 62
   7
 39
0.400
  6
CONTINUOUS
 10
300.36900
 20
83.47100
 30
 0
 40
0.64500
 50
359.73351
 51
90.26649
  0
LINE
  8
Engraving
 62
   7
 39
0.400
  6
CONTINUOUS
 10
301.01400
 20
83.46800
 30
 0
 11
301.01400
 21
82.17200
  0
LINE
  8
Engraving
 62
   7
 39
0.200
  6
CONTINUOUS
 10
285.12400
 20
158.90000
 30
 0
 11
285.12400
 21
158.20000
  0
LINE
  8
Engraving
 62
   7
 39
0.200
  6
CONTINUOUS
 10
285.12400
 20
158.20000
 30
 0
 11
285.77400
 21
158.20000
  0
LINE
  8
Engraving
 62
   7
 39
0.200
  6
CONTINUOUS
 10
285.77400
 20
158.20000
 30
 0
 11
285.77400
 21
153.90000
  0
LINE
  8
Engraving
 62
   7
 39
0.200
  6
CONTINUOUS
 10
285.77400
 20
153.90000
 30
 0
 11
286.62400
 21
153.90000
  0
LINE
  8
Engraving
 62
   7
 39
0.200
  6
CONTINUOUS
 10
286.62400
 20
153.90000
 30
 0
 11
286.62400
 21
158.90000
  0
LINE
  8
Engraving
 62
   7
 39
0.200
  6
CONTINUOUS
 10
286.62400
 20
158.90000
 30
 0
 11
285.12400
 21
158.90000
  0
ARC
  8
Engraving
 62
   7
 39
0.200
  6
CONTINUOUS
 10
289.22400
 20
155.65000
 30
 0
 40
0.95000
 50
180.00000
 51
360.00000
  0
ARC
  8
Engraving
 62
   7
 39
0.200
  6
CONTINUOUS
 10
289.22400
 20
155.65000
 30
 0
 40
0.95000
 50
0.00000
 51
180.00000
  0
LINE
  8
Engraving
 62
   7
 39
0.200
  6
CONTINUOUS
 10
288.77400
 20
157.00000
 30
 0
 11
290.12400
 21
158.90000
  0
LINE
  8
Engraving
 62
   7
 39
0.200
  6
CONTINUOUS
 10
290.12400
 20
158.90000
 30
 0
 11
289.17400
 21
158.90000
  0
LINE
  8
Engraving
 62
   7
 39
0.200
  6
CONTINUOUS
 10
289.17400
 20
158.90000
 30
 0
 11
287.72400
 21
156.85000
  0
ARC
  8
Engraving
 62
   7
 39
0.200
  6
CONTINUOUS
 10
289.26300
 20
155.77500
 30
 0
 40
1.87700
 50
145.06549
 51
267.28240
  0
ARC
  8
Engraving
 62
   7
 39
0.200
  6
CONTINUOUS
 10
289.25500
 20
155.67600
 30
 0
 40
1.77800
 50
-92.61134
 51
5.61758
  0
ARC
  8
Engraving
 62
   7
 39
0.200
  6
CONTINUOUS
 10
289.53600
 20
155.71500
 30
 0
 40
1.49400
 50
5.18401
 51
120.66778
  0
LINE
  8
Engraving
 62
   7
 39
0.200
  6
CONTINUOUS
 10
18.87400
 20
158.90000
 30
 0
 11
18.87400
 21
158.20000
  0
LINE
  8
Engraving
 62
   7
 39
0.200
  6
CONTINUOUS
 10
18.87400
 20
158.20000
 30
 0
 11
19.52400
 21
158.20000
  0
LINE
  8
Engraving
 62
   7
 39
0.200
  6
CONTINUOUS
 10
19.52400
 20
158.20000
 30
 0
 11
19.52400
 21
153.90000
  0
LINE
  8
Engraving
 62
   7
 39
0.200
  6
CONTINUOUS
 10
19.52400
 20
153.90000
 30
 0
 11
20.37400
 21
153.90000
  0
LINE
  8
Engraving
 62
   7
 39
0.200
  6
CONTINUOUS
 10
20.37400
 20
153.90000
 30
 0
 11
20.37400
 21
158.90000
  0
LINE
  8
Engraving
 62
   7
 39
0.200
  6
CONTINUOUS
 10
20.37400
 20
158.90000
 30
 0
 11
18.87400
 21
158.90000
  0
LINE
  8
Engraving
 62
   7
 39
0.200
  6
CONTINUOUS
 10
36.85700
 20
157.20000
 30
 0
 11
37.75700
 21
157.20000
  0
ARC
  8
Engraving
 62
   7
 39
0.200
  6
CONTINUOUS
 10
38.55700
 20
157.30000
 30
 0
 40
0.80600
 50
7.12502
 51
-172.87498
  0
ARC
  8
Engraving
 62
   7
 39
0.200
  6
CONTINUOUS
 10
38.36900
 20
157.27000
 30
 0
 40
0.99700
 50
317.76498
 51
7.49586
  0
LINE
  8
Engraving
 62
   7
 39
0.200
  6
CONTINUOUS
 10
39.10700
 20
156.60000
 30
 0
 11
36.75700
 21
154.10000
  0
LINE
  8
Engraving
 62
   7
 39
0.200
  6
CONTINUOUS
 10
36.75700
 20
154.10000
 30
 0
 11
36.75700
 21
153.90000
  0
LINE
  8
Engraving
 62
   7
 39
0.200
  6
CONTINUOUS
 10
36.75700
 20
153.90000
 30
 0
 11
40.00700
 21
153.90000
  0
LINE
  8
Engraving
 62
   7
 39
0.200
  6
CONTINUOUS
 10
40.00700
 20
153.90000
 30
 0
 11
40.00700
 21
154.70000
  0
LINE
  8
Engraving
 62
   7
 39
0.200
  6
CONTINUOUS
 10
40.00700
 20
154.70000
 30
 0
 11
38.50700
 21
154.70000
  0
LINE
  8
Engraving
 62
   7
 39
0.200
  6
CONTINUOUS
 10
38.50700
 20
154.70000
 30
 0
 11
39.80700
 21
156.15000
  0
ARC
  8
Engraving
 62
   7
 39
0.200
  6
CONTINUOUS
 10
38.58100
 20
157.25600
 30
 0
 40
1.65100
 50
-42.05427
 51
51.58944
  0
ARC
  8
Engraving
 62
   7
 39
0.200
  6
CONTINUOUS
 10
38.55700
 20
157.21700
 30
 0
 40
1.69700
 50
51.77260
 51
128.22740
  0
ARC
  8
Engraving
 62
   7
 39
0.200
  6
CONTINUOUS
 10
38.58300
 20
157.20000
 30
 0
 40
1.72600
 50
128.55614
 51
180.00000
  0
LINE
  8
Engraving
 62
   7
 39
0.200
  6
CONTINUOUS
 10
54.79000
 20
157.40000
 30
 0
 11
55.64000
 21
157.40000
  0
ARC
  8
Engraving
 62
   7
 39
0.200
  6
CONTINUOUS
 10
56.33500
 20
157.42000
 30
 0
 40
0.69500
 50
102.03720
 51
-178.35166
  0
ARC
  8
Engraving
 62
   7
 39
0.200
  6
CONTINUOUS
 10
56.49000
 20
156.75600
 30
 0
 40
1.37700
 50
437.41704
 51
102.58296
  0
ARC
  8
Engraving
 62
   7
 39
0.200
  6
CONTINUOUS
 10
56.66700
 20
157.53400
 30
 0
 40
0.57900
 50
292.66556
 51
77.73943
  0
ARC
  8
Engraving
 62
   7
 39
0.200
  6
CONTINUOUS
 10
56.37000
 20
158.22000
 30
 0
 40
1.32600
 50
264.37537
 51
-66.91487
  0
LINE
  8
Engraving
 62
   7
 39
0.200
  6
CONTINUOUS
 10
56.24000
 20
156.90000
 30
 0
 11
56.24000
 21
156.15000
  0
LINE
  8
Engraving
 62
   7
 39
0.200
  6
CONTINUOUS
 10
56.24000
 20
156.15000
 30
 0
 11
56.64000
 21
156.15000
  0
ARC
  8
Engraving
 62
   7
 39
0.200
  6
CONTINUOUS
 10
56.63600
 20
155.48900
 30
 0
 40
0.66100
 50
393.08925
 51
89.65328
  0
ARC
  8
Engraving
 62
   7
 39
0.200
  6
CONTINUOUS
 10
56.50500
 20
155.41300
 30
 0
 40
0.81300
 50
316.09787
 51
32.53609
  0
ARC
  8
Engraving
 62
   7
 39
0.200
  6
CONTINUOUS
 10
56.43800
 20
155.49200
 30
 0
 40
0.91500
 50
220.30253
 51
-44.55723
  0
ARC
  8
Engraving
 62
   7
 39
0.200
  6
CONTINUOUS
 10
56.41000
 20
155.45500
 30
 0
 40
0.87000
 50
180.32928
 51
-140.36307
  0
LINE
  8
Engraving
 62
   7
 39
0.200
  6
CONTINUOUS
 10
55.54000
 20
155.45000
 30
 0
 11
54.64000
 21
155.45000
  0
ARC
  8
Engraving
 62
   7
 39
0.200
  6
CONTINUOUS
 10
56.17700
 20
155.44000
 30
 0
 40
1.53700
 50
179.62723
 51
249.54868
  0
ARC
  8
Engraving
 62
   7
 39
0.200
  6
CONTINUOUS
 10
56.40400
 20
156.04000
 30
 0
 40
2.17800
 50
-110.53142
 51
-66.00012
  0
ARC
  8
Engraving
 62
   7
 39
0.200
  6
CONTINUOUS
 10
56.64500
 20
155.45500
 30
 0
 40
1.54600
 50
-65.34134
 51
-2.03879
  0
ARC
  8
Engraving
 62
   7
 39
0.200
  6
CONTINUOUS
 10
57.02800
 20
155.43400
 30
 0
 40
1.16200
 50
-1.67599
 51
66.56829
  0
ARC
  8
Engraving
 62
   7
 39
0.200
  6
CONTINUOUS
 10
56.90600
 20
157.52700
 30
 0
 40
1.18100
 50
-60.37542
 51
37.74309
  0
ARC
  8
Engraving
 62
   7
 39
0.200
  6
CONTINUOUS
 10
56.44000
 20
157.15700
 30
 0
 40
1.77600
 50
37.97967
 51
142.02033
  0
ARC
  8
Engraving
 62
   7
 39
0.200
  6
CONTINUOUS
 10
55.99900
 20
157.50600
 30
 0
 40
1.21400
 50
142.19540
 51
185.01064
  0
LINE
  8
Engraving
 62
   7
 39
0.200
  6
CONTINUOUS
 10
74.87400
 20
157.45000
 30
 0
 11
73.77400
 21
155.95000
  0
LINE
  8
Engraving
 62
   7
 39
0.200
  6
CONTINUOUS
 10
73.77400
 20
155.95000
 30
 0
 11
74.87400
 21
155.95000
  0
LINE
  8
Engraving
 62
   7
 39
0.200
  6
CONTINUOUS
 10
74.87400
 20
155.95000
 30
 0
 11
74.87400
 21
157.45000
  0
LINE
  8
Engraving
 62
   7
 39
0.200
  6
CONTINUOUS
 10
74.97400
 20
158.90000
 30
 0
 11
72.52400
 21
155.55000
  0
LINE
  8
Engraving
 62
   7
 39
0.200
  6
CONTINUOUS
 10
72.52400
 20
155.55000
 30
 0
 11
72.52400
 21
155.15000
  0
LINE
  8
Engraving
 62
   7
 39
0.200
  6
CONTINUOUS
 10
72.52400
 20
155.15000
 30
 0
 11
74.87400
 21
155.15000
  0
LINE
  8
Engraving
 62
   7
 39
0.200
  6
CONTINUOUS
 10
74.87400
 20
155.15000
 30
 0
 11
74.87400
 21
153.90000
  0
LINE
  8
Engraving
 62
   7
 39
0.200
  6
CONTINUOUS
 10
74.87400
 20
153.90000
 30
 0
 11
75.67400
 21
153.90000
  0
LINE
  8
Engraving
 62
   7
 39
0.200
  6
CONTINUOUS
 10
75.67400
 20
153.90000
 30
 0
 11
75.67400
 21
155.15000
  0
LINE
  8
Engraving
 62
   7
 39
0.200
  6
CONTINUOUS
 10
75.67400
 20
155.15000
 30
 0
 11
76.32400
 21
155.15000
  0
LINE
  8
Engraving
 62
   7
 39
0.200
  6
CONTINUOUS
 10
76.32400
 20
155.15000
 30
 0
 11
76.32400
 21
155.95000
  0
LINE
  8
Engraving
 62
   7
 39
0.200
  6
CONTINUOUS
 10
76.32400
 20
155.95000
 30
 0
 11
75.67400
 21
155.95000
  0
LINE
  8
Engraving
 62
   7
 39
0.200
  6
CONTINUOUS
 10
75.67400
 20
155.95000
 30
 0
 11
75.67400
 21
158.90000
  0
LINE
  8
Engraving
 62
   7
 39
0.200
  6
CONTINUOUS
 10
75.67400
 20
158.90000
 30
 0
 11
74.97400
 21
158.90000
  0
LINE
  8
Engraving
 62
   7
 39
0.200
  6
CONTINUOUS
 10
91.40700
 20
158.90000
 30
 0
 11
90.80700
 21
156.20000
  0
ARC
  8
Engraving
 62
   7
 39
0.200
  6
CONTINUOUS
 10
91.87600
 20
154.41100
 30
 0
 40
2.08400
 50
438.06462
 51
120.86003
  0
ARC
  8
Engraving
 62
   7
 39
0.200
  6
CONTINUOUS
 10
92.13200
 20
155.59200
 30
 0
 40
0.87600
 50
357.25191
 51
78.47192
  0
ARC
  8
Engraving
 62
   7
 39
0.200
  6
CONTINUOUS
 10
92.06500
 20
155.60000
 30
 0
 40
0.94300
 50
244.35899
 51
-3.03833
  0
ARC
  8
Engraving
 62
   7
 39
0.200
  6
CONTINUOUS
 10
95.89000
 20
163.37600
 30
 0
 40
9.60900
 50
236.64566
 51
-116.13837
  0
LINE
  8
Engraving
 62
   7
 39
0.200
  6
CONTINUOUS
 10
90.60700
 20
155.35000
 30
 0
 11
90.40700
 21
154.50000
  0
ARC
  8
Engraving
 62
   7
 39
0.200
  6
CONTINUOUS
 10
91.98600
 20
156.24000
 30
 0
 40
2.35000
 50
-132.22284
 51
-65.59438
  0
ARC
  8
Engraving
 62
   7
 39
0.200
  6
CONTINUOUS
 10
92.28100
 20
155.55900
 30
 0
 40
1.60800
 50
-65.14025
 51
40.33468
  0
ARC
  8
Engraving
 62
   7
 39
0.200
  6
CONTINUOUS
 10
92.13700
 20
155.42600
 30
 0
 40
1.80400
 50
40.59441
 51
100.53773
  0
LINE
  8
Engraving
 62
   7
 39
0.200
  6
CONTINUOUS
 10
91.80700
 20
157.20000
 30
 0
 11
92.00700
 21
158.15000
  0
LINE
  8
Engraving
 62
   7
 39
0.200
  6
CONTINUOUS
 10
92.00700
 20
158.15000
 30
 0
 11
93.60700
 21
158.15000
  0
LINE
  8
Engraving
 62
   7
 39
0.200
  6
CONTINUOUS
 10
93.60700
 20
158.15000
 30
 0
 11
93.60700
 21
158.90000
  0
LINE
  8
Engraving
 62
   7
 39
0.200
  6
CONTINUOUS
 10
93.60700
 20
158.90000
 30
 0
 11
91.40700
 21
158.90000
  0
ARC
  8
Engraving
 62
   7
 39
0.200
  6
CONTINUOUS
 10
110.12700
 20
155.65000
 30
 0
 40
0.95000
 50
180.00000
 51
360.00000
  0
ARC
  8
Engraving
 62
   7
 39
0.200
  6
CONTINUOUS
 10
110.12700
 20
155.65000
 30
 0
 40
0.95000
 50
0.00000
 51
180.00000
  0
LINE
  8
Engraving
 62
   7
 39
0.200
  6
CONTINUOUS
 10
109.67700
 20
157.00000
 30
 0
 11
111.02700
 21
158.90000
  0
LINE
  8
Engraving
 62
   7
 39
0.200
  6
CONTINUOUS
 10
111.02700
 20
158.90000
 30
 0
 11
110.07700
 21
158.90000
  0
LINE
  8
Engraving
 62
   7
 39
0.200
  6
CONTINUOUS
 10
110.07700
 20
158.90000
 30
 0
 11
108.62700
 21
156.85000
  0
ARC
  8
Engraving
 62
   7
 39
0.200
  6
CONTINUOUS
 10
110.16600
 20
155.77500
 30
 0
 40
1.87700
 50
145.06549
 51
267.28240
  0
ARC
  8
Engraving
 62
   7
 39
0.200
  6
CONTINUOUS
 10
110.15800
 20
155.67600
 30
 0
 40
1.77800
 50
-92.61134
 51
5.61758
  0
ARC
  8
Engraving
 62
   7
 39
0.200
  6
CONTINUOUS
 10
110.43900
 20
155.71500
 30
 0
 40
1.49400
 50
5.18401
 51
120.66778
  0
LINE
  8
Engraving
 62
   7
 39
0.200
  6
CONTINUOUS
 10
126.17400
 20
158.90000
 30
 0
 11
126.17400
 21
158.10000
  0
LINE
  8
Engraving
 62
   7
 39
0.200
  6
CONTINUOUS
 10
126.17400
 20
158.10000
 30
 0
 11
128.52400
 21
158.10000
  0
LINE
  8
Engraving
 62
   7
 39
0.200
  6
CONTINUOUS
 10
128.52400
 20
158.10000
 30
 0
 11
126.17400
 21
153.90000
  0
LINE
  8
Engraving
 62
   7
 39
0.200
  6
CONTINUOUS
 10
126.17400
 20
153.90000
 30
 0
 11
127.17400
 21
153.90000
  0
LINE
  8
Engraving
 62
   7
 39
0.200
  6
CONTINUOUS
 10
127.17400
 20
153.90000
 30
 0
 11
129.92400
 21
158.90000
  0
LINE
  8
Engraving
 62
   7
 39
0.200
  6
CONTINUOUS
 10
129.92400
 20
158.90000
 30
 0
 11
126.17400
 21
158.90000
  0
ARC
  8
Engraving
 62
   7
 39
0.200
  6
CONTINUOUS
 10
145.70800
 20
157.65000
 30
 0
 40
0.65000
 50
-90.00000
 51
90.00000
  0
ARC
  8
Engraving
 62
   7
 39
0.200
  6
CONTINUOUS
 10
145.70800
 20
157.65000
 30
 0
 40
0.65000
 50
90.00000
 51
270.00000
  0
ARC
  8
Engraving
 62
   7
 39
0.200
  6
CONTINUOUS
 10
145.70800
 20
155.40000
 30
 0
 40
0.80000
 50
270.00000
 51
90.00000
  0
ARC
  8
Engraving
 62
   7
 39
0.200
  6
CONTINUOUS
 10
145.70800
 20
155.40000
 30
 0
 40
0.80000
 50
90.00000
 51
-90.00000
  0
ARC
  8
Engraving
 62
   7
 39
0.200
  6
CONTINUOUS
 10
146.00100
 20
155.43600
 30
 0
 40
1.35700
 50
358.48035
 51
63.43495
  0
ARC
  8
Engraving
 62
   7
 39
0.200
  6
CONTINUOUS
 10
145.81100
 20
155.44500
 30
 0
 40
1.54800
 50
266.18593
 51
-1.66618
  0
ARC
  8
Engraving
 62
   7
 39
0.200
  6
CONTINUOUS
 10
145.60500
 20
155.44500
 30
 0
 40
1.54800
 50
181.66618
 51
-86.18593
  0
ARC
  8
Engraving
 62
   7
 39
0.200
  6
CONTINUOUS
 10
145.41500
 20
155.43600
 30
 0
 40
1.35700
 50
116.56505
 51
-178.48035
  0
ARC
  8
Engraving
 62
   7
 39
0.200
  6
CONTINUOUS
 10
145.31600
 20
157.66200
 30
 0
 40
1.13200
 50
139.29986
 51
-116.65557
  0
ARC
  8
Engraving
 62
   7
 39
0.200
  6
CONTINUOUS
 10
145.56500
 20
157.44600
 30
 0
 40
1.46100
 50
444.38306
 51
139.24561
  0
ARC
  8
Engraving
 62
   7
 39
0.200
  6
CONTINUOUS
 10
145.85100
 20
157.44600
 30
 0
 40
1.46100
 50
400.75439
 51
95.61694
  0
ARC
  8
Engraving
 62
   7
 39
0.200
  6
CONTINUOUS
 10
146.10000
 20
157.66200
 30
 0
 40
1.13200
 50
296.65557
 51
40.70014
  0
ARC
  8
Engraving
 62
   7
 39
0.200
  6
CONTINUOUS
 10
163.74700
 20
157.15000
 30
 0
 40
0.95000
 50
360.00000
 51
180.00000
  0
ARC
  8
Engraving
 62
   7
 39
0.200
  6
CONTINUOUS
 10
163.74700
 20
157.15000
 30
 0
 40
0.95000
 50
180.00000
 51
0.00000
  0
LINE
  8
Engraving
 62
   7
 39
0.200
  6
CONTINUOUS
 10
164.19700
 20
155.80000
 30
 0
 11
162.84700
 21
153.90000
  0
LINE
  8
Engraving
 62
   7
 39
0.200
  6
CONTINUOUS
 10
162.84700
 20
153.90000
 30
 0
 11
163.79700
 21
153.90000
  0
LINE
  8
Engraving
 62
   7
 39
0.200
  6
CONTINUOUS
 10
163.79700
 20
153.90000
 30
 0
 11
165.24700
 21
155.95000
  0
ARC
  8
Engraving
 62
   7
 39
0.200
  6
CONTINUOUS
 10
163.70800
 20
157.02500
 30
 0
 40
1.87700
 50
-34.93451
 51
87.28240
  0
ARC
  8
Engraving
 62
   7
 39
0.200
  6
CONTINUOUS
 10
163.71600
 20
157.12400
 30
 0
 40
1.77800
 50
87.38866
 51
185.61758
  0
ARC
  8
Engraving
 62
   7
 39
0.200
  6
CONTINUOUS
 10
163.43500
 20
157.08500
 30
 0
 40
1.49400
 50
-174.81599
 51
-59.33222
  0
LINE
  8
Engraving
 62
   7
 39
0.200
  6
CONTINUOUS
 10
177.82400
 20
158.90000
 30
 0
 11
177.82400
 21
158.20000
  0
LINE
  8
Engraving
 62
   7
 39
0.200
  6
CONTINUOUS
 10
177.82400
 20
158.20000
 30
 0
 11
178.47400
 21
158.20000
  0
LINE
  8
Engraving
 62
   7
 39
0.200
  6
CONTINUOUS
 10
178.47400
 20
158.20000
 30
 0
 11
178.47400
 21
153.90000
  0
LINE
  8
Engraving
 62
   7
 39
0.200
  6
CONTINUOUS
 10
178.47400
 20
153.90000
 30
 0
 11
179.32400
 21
153.90000
  0
LINE
  8
Engraving
 62
   7
 39
0.200
  6
CONTINUOUS
 10
179.32400
 20
153.90000
 30
 0
 11
179.32400
 21
158.90000
  0
LINE
  8
Engraving
 62
   7
 39
0.200
  6
CONTINUOUS
 10
179.32400
 20
158.90000
 30
 0
 11
177.82400
 21
158.90000
  0
ARC
  8
Engraving
 62
   7
 39
0.200
  6
CONTINUOUS
 10
183.97600
 20
156.40000
 30
 0
 40
2.97900
 50
150.87067
 51
209.12933
  0
ARC
  8
Engraving
 62
   7
 39
0.200
  6
CONTINUOUS
 10
181.97400
 20
155.29100
 30
 0
 40
0.69000
 50
-150.38899
 51
-29.61101
  0
ARC
  8
Engraving
 62
   7
 39
0.200
  6
CONTINUOUS
 10
179.97200
 20
156.40000
 30
 0
 40
2.97900
 50
-29.12933
 51
29.12933
  0
ARC
  8
Engraving
 62
   7
 39
0.200
  6
CONTINUOUS
 10
181.97400
 20
157.50900
 30
 0
 40
0.69000
 50
29.61101
 51
150.38899
  0
ARC
  8
Engraving
 62
   7
 39
0.200
  6
CONTINUOUS
 10
183.48800
 20
156.40000
 30
 0
 40
3.36800
 50
146.67799
 51
213.32201
  0
ARC
  8
Engraving
 62
   7
 39
0.200
  6
CONTINUOUS
 10
181.97400
 20
155.41600
 30
 0
 40
1.56200
 50
-146.33028
 51
-33.66972
  0
ARC
  8
Engraving
 62
   7
 39
0.200
  6
CONTINUOUS
 10
180.46000
 20
156.40000
 30
 0
 40
3.36800
 50
-33.32201
 51
33.32201
  0
ARC
  8
Engraving
 62
   7
 39
0.200
  6
CONTINUOUS
 10
181.97400
 20
157.38400
 30
 0
 40
1.56200
 50
33.66972
 51
146.33028
  0
LINE
  8
Engraving
 62
   7
 39
0.200
  6
CONTINUOUS
 10
195.70700
 20
158.90000
 30
 0
 11
195.70700
 21
158.20000
  0
LINE
  8
Engraving
 62
   7
 39
0.200
  6
CONTINUOUS
 10
195.70700
 20
158.20000
 30
 0
 11
196.35700
 21
158.20000
  0
LINE
  8
Engraving
 62
   7
 39
0.200
  6
CONTINUOUS
 10
196.35700
 20
158.20000
 30
 0
 11
196.35700
 21
153.90000
  0
LINE
  8
Engraving
 62
   7
 39
0.200
  6
CONTINUOUS
 10
196.35700
 20
153.90000
 30
 0
 11
197.20700
 21
153.90000
  0
LINE
  8
Engraving
 62
   7
 39
0.200
  6
CONTINUOUS
 10
197.20700
 20
153.90000
 30
 0
 11
197.20700
 21
158.90000
  0
LINE
  8
Engraving
 62
   7
 39
0.200
  6
CONTINUOUS
 10
197.20700
 20
158.90000
 30
 0
 11
195.70700
 21
158.90000
  0
LINE
  8
Engraving
 62
   7
 39
0.200
  6
CONTINUOUS
 10
198.00700
 20
158.90000
 30
 0
 11
198.00700
 21
158.20000
  0
LINE
  8
Engraving
 62
   7
 39
0.200
  6
CONTINUOUS
 10
198.00700
 20
158.20000
 30
 0
 11
198.65700
 21
158.20000
  0
LINE
  8
Engraving
 62
   7
 39
0.200
  6
CONTINUOUS
 10
198.65700
 20
158.20000
 30
 0
 11
198.65700
 21
153.90000
  0
LINE
  8
Engraving
 62
   7
 39
0.200
  6
CONTINUOUS
 10
198.65700
 20
153.90000
 30
 0
 11
199.50700
 21
153.90000
  0
LINE
  8
Engraving
 62
   7
 39
0.200
  6
CONTINUOUS
 10
199.50700
 20
153.90000
 30
 0
 11
199.50700
 21
158.90000
  0
LINE
  8
Engraving
 62
   7
 39
0.200
  6
CONTINUOUS
 10
199.50700
 20
158.90000
 30
 0
 11
198.00700
 21
158.90000
  0
LINE
  8
Engraving
 62
   7
 39
0.200
  6
CONTINUOUS
 10
213.84000
 20
158.90000
 30
 0
 11
213.84000
 21
158.20000
  0
LINE
  8
Engraving
 62
   7
 39
0.200
  6
CONTINUOUS
 10
213.84000
 20
158.20000
 30
 0
 11
214.49000
 21
158.20000
  0
LINE
  8
Engraving
 62
   7
 39
0.200
  6
CONTINUOUS
 10
214.49000
 20
158.20000
 30
 0
 11
214.49000
 21
153.90000
  0
LINE
  8
Engraving
 62
   7
 39
0.200
  6
CONTINUOUS
 10
214.49000
 20
153.90000
 30
 0
 11
215.34000
 21
153.90000
  0
LINE
  8
Engraving
 62
   7
 39
0.200
  6
CONTINUOUS
 10
215.34000
 20
153.90000
 30
 0
 11
215.34000
 21
158.90000
  0
LINE
  8
Engraving
 62
   7
 39
0.200
  6
CONTINUOUS
 10
215.34000
 20
158.90000
 30
 0
 11
213.84000
 21
158.90000
  0
LINE
  8
Engraving
 62
   7
 39
0.200
  6
CONTINUOUS
 10
216.19000
 20
157.20000
 30
 0
 11
217.09000
 21
157.20000
  0
ARC
  8
Engraving
 62
   7
 39
0.200
  6
CONTINUOUS
 10
217.89000
 20
157.30000
 30
 0
 40
0.80600
 50
7.12502
 51
-172.87498
  0
ARC
  8
Engraving
 62
   7
 39
0.200
  6
CONTINUOUS
 10
217.70200
 20
157.27000
 30
 0
 40
0.99700
 50
317.76498
 51
7.49586
  0
LINE
  8
Engraving
 62
   7
 39
0.200
  6
CONTINUOUS
 10
218.44000
 20
156.60000
 30
 0
 11
216.09000
 21
154.10000
  0
LINE
  8
Engraving
 62
   7
 39
0.200
  6
CONTINUOUS
 10
216.09000
 20
154.10000
 30
 0
 11
216.09000
 21
153.90000
  0
LINE
  8
Engraving
 62
   7
 39
0.200
  6
CONTINUOUS
 10
216.09000
 20
153.90000
 30
 0
 11
219.34000
 21
153.90000
  0
LINE
  8
Engraving
 62
   7
 39
0.200
  6
CONTINUOUS
 10
219.34000
 20
153.90000
 30
 0
 11
219.34000
 21
154.70000
  0
LINE
  8
Engraving
 62
   7
 39
0.200
  6
CONTINUOUS
 10
219.34000
 20
154.70000
 30
 0
 11
217.84000
 21
154.70000
  0
LINE
  8
Engraving
 62
   7
 39
0.200
  6
CONTINUOUS
 10
217.84000
 20
154.70000
 30
 0
 11
219.14000
 21
156.15000
  0
ARC
  8
Engraving
 62
   7
 39
0.200
  6
CONTINUOUS
 10
217.91400
 20
157.25600
 30
 0
 40
1.65100
 50
-42.05427
 51
51.58944
  0
ARC
  8
Engraving
 62
   7
 39
0.200
  6
CONTINUOUS
 10
217.89000
 20
157.21700
 30
 0
 40
1.69700
 50
51.77260
 51
128.22740
  0
ARC
  8
Engraving
 62
   7
 39
0.200
  6
CONTINUOUS
 10
217.91600
 20
157.20000
 30
 0
 40
1.72600
 50
128.55614
 51
180.00000
  0
LINE
  8
Engraving
 62
   7
 39
0.200
  6
CONTINUOUS
 10
231.47400
 20
158.90000
 30
 0
 11
231.47400
 21
158.20000
  0
LINE
  8
Engraving
 62
   7
 39
0.200
  6
CONTINUOUS
 10
231.47400
 20
158.20000
 30
 0
 11
232.12400
 21
158.20000
  0
LINE
  8
Engraving
 62
   7
 39
0.200
  6
CONTINUOUS
 10
232.12400
 20
158.20000
 30
 0
 11
232.12400
 21
153.90000
  0
LINE
  8
Engraving
 62
   7
 39
0.200
  6
CONTINUOUS
 10
232.12400
 20
153.90000
 30
 0
 11
232.97400
 21
153.90000
  0
LINE
  8
Engraving
 62
   7
 39
0.200
  6
CONTINUOUS
 10
232.97400
 20
153.90000
 30
 0
 11
232.97400
 21
158.90000
  0
LINE
  8
Engraving
 62
   7
 39
0.200
  6
CONTINUOUS
 10
232.97400
 20
158.90000
 30
 0
 11
231.47400
 21
158.90000
  0
LINE
  8
Engraving
 62
   7
 39
0.200
  6
CONTINUOUS
 10
233.87400
 20
157.40000
 30
 0
 11
234.72400
 21
157.40000
  0
ARC
  8
Engraving
 62
   7
 39
0.200
  6
CONTINUOUS
 10
235.41900
 20
157.42000
 30
 0
 40
0.69500
 50
102.03720
 51
-178.35166
  0
ARC
  8
Engraving
 62
   7
 39
0.200
  6
CONTINUOUS
 10
235.57400
 20
156.75600
 30
 0
 40
1.37700
 50
437.41704
 51
102.58296
  0
ARC
  8
Engraving
 62
   7
 39
0.200
  6
CONTINUOUS
 10
235.75100
 20
157.53400
 30
 0
 40
0.57900
 50
292.66556
 51
77.73943
  0
ARC
  8
Engraving
 62
   7
 39
0.200
  6
CONTINUOUS
 10
235.45400
 20
158.22000
 30
 0
 40
1.32600
 50
264.37537
 51
-66.91487
  0
LINE
  8
Engraving
 62
   7
 39
0.200
  6
CONTINUOUS
 10
235.32400
 20
156.90000
 30
 0
 11
235.32400
 21
156.15000
  0
LINE
  8
Engraving
 62
   7
 39
0.200
  6
CONTINUOUS
 10
235.32400
 20
156.15000
 30
 0
 11
235.72400
 21
156.15000
  0
ARC
  8
Engraving
 62
   7
 39
0.200
  6
CONTINUOUS
 10
235.72000
 20
155.48900
 30
 0
 40
0.66100
 50
393.08925
 51
89.65328
  0
ARC
  8
Engraving
 62
   7
 39
0.200
  6
CONTINUOUS
 10
235.58900
 20
155.41300
 30
 0
 40
0.81300
 50
316.09787
 51
32.53609
  0
ARC
  8
Engraving
 62
   7
 39
0.200
  6
CONTINUOUS
 10
235.52200
 20
155.49200
 30
 0
 40
0.91500
 50
220.30253
 51
-44.55723
  0
ARC
  8
Engraving
 62
   7
 39
0.200
  6
CONTINUOUS
 10
235.49400
 20
155.45500
 30
 0
 40
0.87000
 50
180.32928
 51
-140.36307
  0
LINE
  8
Engraving
 62
   7
 39
0.200
  6
CONTINUOUS
 10
234.62400
 20
155.45000
 30
 0
 11
233.72400
 21
155.45000
  0
ARC
  8
Engraving
 62
   7
 39
0.200
  6
CONTINUOUS
 10
235.26100
 20
155.44000
 30
 0
 40
1.53700
 50
179.62723
 51
249.54868
  0
ARC
  8
Engraving
 62
   7
 39
0.200
  6
CONTINUOUS
 10
235.48800
 20
156.04000
 30
 0
 40
2.17800
 50
-110.53142
 51
-66.00012
  0
ARC
  8
Engraving
 62
   7
 39
0.200
  6
CONTINUOUS
 10
235.72900
 20
155.45500
 30
 0
 40
1.54600
 50
-65.34134
 51
-2.03879
  0
ARC
  8
Engraving
 62
   7
 39
0.200
  6
CONTINUOUS
 10
236.11200
 20
155.43400
 30
 0
 40
1.16200
 50
-1.67599
 51
66.56829
  0
ARC
  8
Engraving
 62
   7
 39
0.200
  6
CONTINUOUS
 10
235.99000
 20
157.52700
 30
 0
 40
1.18100
 50
-60.37542
 51
37.74309
  0
ARC
  8
Engraving
 62
   7
 39
0.200
  6
CONTINUOUS
 10
235.52400
 20
157.15700
 30
 0
 40
1.77600
 50
37.97967
 51
142.02033
  0
ARC
  8
Engraving
 62
   7
 39
0.200
  6
CONTINUOUS
 10
235.08300
 20
157.50600
 30
 0
 40
1.21400
 50
142.19540
 51
185.01064
  0
LINE
  8
Engraving
 62
   7
 39
0.200
  6
CONTINUOUS
 10
249.35700
 20
158.90000
 30
 0
 11
249.35700
 21
158.20000
  0
LINE
  8
Engraving
 62
   7
 39
0.200
  6
CONTINUOUS
 10
249.35700
 20
158.20000
 30
 0
 11
250.00700
 21
158.20000
  0
LINE
  8
Engraving
 62
   7
 39
0.200
  6
CONTINUOUS
 10
250.00700
 20
158.20000
 30
 0
 11
250.00700
 21
153.90000
  0
LINE
  8
Engraving
 62
   7
 39
0.200
  6
CONTINUOUS
 10
250.00700
 20
153.90000
 30
 0
 11
250.85700
 21
153.90000
  0
LINE
  8
Engraving
 62
   7
 39
0.200
  6
CONTINUOUS
 10
250.85700
 20
153.90000
 30
 0
 11
250.85700
 21
158.90000
  0
LINE
  8
Engraving
 62
   7
 39
0.200
  6
CONTINUOUS
 10
250.85700
 20
158.90000
 30
 0
 11
249.35700
 21
158.90000
  0
LINE
  8
Engraving
 62
   7
 39
0.200
  6
CONTINUOUS
 10
254.00700
 20
157.45000
 30
 0
 11
252.90700
 21
155.95000
  0
LINE
  8
Engraving
 62
   7
 39
0.200
  6
CONTINUOUS
 10
252.90700
 20
155.95000
 30
 0
 11
254.00700
 21
155.95000
  0
LINE
  8
Engraving
 62
   7
 39
0.200
  6
CONTINUOUS
 10
254.00700
 20
155.95000
 30
 0
 11
254.00700
 21
157.45000
  0
LINE
  8
Engraving
 62
   7
 39
0.200
  6
CONTINUOUS
 10
254.10700
 20
158.90000
 30
 0
 11
251.65700
 21
155.55000
  0
LINE
  8
Engraving
 62
   7
 39
0.200
  6
CONTINUOUS
 10
251.65700
 20
155.55000
 30
 0
 11
251.65700
 21
155.15000
  0
LINE
  8
Engraving
 62
   7
 39
0.200
  6
CONTINUOUS
 10
251.65700
 20
155.15000
 30
 0
 11
254.00700
 21
155.15000
  0
LINE
  8
Engraving
 62
   7
 39
0.200
  6
CONTINUOUS
 10
254.00700
 20
155.15000
 30
 0
 11
254.00700
 21
153.90000
  0
LINE
  8
Engraving
 62
   7
 39
0.200
  6
CONTINUOUS
 10
254.00700
 20
153.90000
 30
 0
 11
254.80700
 21
153.90000
  0
LINE
  8
Engraving
 62
   7
 39
0.200
  6
CONTINUOUS
 10
254.80700
 20
153.90000
 30
 0
 11
254.80700
 21
155.15000
  0
LINE
  8
Engraving
 62
   7
 39
0.200
  6
CONTINUOUS
 10
254.80700
 20
155.15000
 30
 0
 11
255.45700
 21
155.15000
  0
LINE
  8
Engraving
 62
   7
 39
0.200
  6
CONTINUOUS
 10
255.45700
 20
155.15000
 30
 0
 11
255.45700
 21
155.95000
  0
LINE
  8
Engraving
 62
   7
 39
0.200
  6
CONTINUOUS
 10
255.45700
 20
155.95000
 30
 0
 11
254.80700
 21
155.95000
  0
LINE
  8
Engraving
 62
   7
 39
0.200
  6
CONTINUOUS
 10
254.80700
 20
155.95000
 30
 0
 11
254.80700
 21
158.90000
  0
LINE
  8
Engraving
 62
   7
 39
0.200
  6
CONTINUOUS
 10
254.80700
 20
158.90000
 30
 0
 11
254.10700
 21
158.90000
  0
LINE
  8
Engraving
 62
   7
 39
0.200
  6
CONTINUOUS
 10
267.24000
 20
158.90000
 30
 0
 11
267.24000
 21
158.20000
  0
LINE
  8
Engraving
 62
   7
 39
0.200
  6
CONTINUOUS
 10
267.24000
 20
158.20000
 30
 0
 11
267.89000
 21
158.20000
  0
LINE
  8
Engraving
 62
   7
 39
0.200
  6
CONTINUOUS
 10
267.89000
 20
158.20000
 30
 0
 11
267.89000
 21
153.90000
  0
LINE
  8
Engraving
 62
   7
 39
0.200
  6
CONTINUOUS
 10
267.89000
 20
153.90000
 30
 0
 11
268.74000
 21
153.90000
  0
LINE
  8
Engraving
 62
   7
 39
0.200
  6
CONTINUOUS
 10
268.74000
 20
153.90000
 30
 0
 11
268.74000
 21
158.90000
  0
LINE
  8
Engraving
 62
   7
 39
0.200
  6
CONTINUOUS
 10
268.74000
 20
158.90000
 30
 0
 11
267.24000
 21
158.90000
  0
LINE
  8
Engraving
 62
   7
 39
0.200
  6
CONTINUOUS
 10
270.54000
 20
158.90000
 30
 0
 11
269.94000
 21
156.20000
  0
ARC
  8
Engraving
 62
   7
 39
0.200
  6
CONTINUOUS
 10
271.00900
 20
154.41100
 30
 0
 40
2.08400
 50
438.06462
 51
120.86003
  0
ARC
  8
Engraving
 62
   7
 39
0.200
  6
CONTINUOUS
 10
271.26500
 20
155.59200
 30
 0
 40
0.87600
 50
357.25191
 51
78.47192
  0
ARC
  8
Engraving
 62
   7
 39
0.200
  6
CONTINUOUS
 10
271.19800
 20
155.60000
 30
 0
 40
0.94300
 50
244.35899
 51
-3.03833
  0
ARC
  8
Engraving
 62
   7
 39
0.200
  6
CONTINUOUS
 10
275.02300
 20
163.37600
 30
 0
 40
9.60900
 50
236.64566
 51
-116.13837
  0
LINE
  8
Engraving
 62
   7
 39
0.200
  6
CONTINUOUS
 10
269.74000
 20
155.35000
 30
 0
 11
269.54000
 21
154.50000
  0
ARC
  8
Engraving
 62
   7
 39
0.200
  6
CONTINUOUS
 10
271.11900
 20
156.24000
 30
 0
 40
2.35000
 50
-132.22284
 51
-65.59438
  0
ARC
  8
Engraving
 62
   7
 39
0.200
  6
CONTINUOUS
 10
271.41400
 20
155.55900
 30
 0
 40
1.60800
 50
-65.14025
 51
40.33468
  0
ARC
  8
Engraving
 62
   7
 39
0.200
  6
CONTINUOUS
 10
271.27000
 20
155.42600
 30
 0
 40
1.80400
 50
40.59441
 51
100.53773
  0
LINE
  8
Engraving
 62
   7
 39
0.200
  6
CONTINUOUS
 10
270.94000
 20
157.20000
 30
 0
 11
271.14000
 21
158.15000
  0
LINE
  8
Engraving
 62
   7
 39
0.200
  6
CONTINUOUS
 10
271.14000
 20
158.15000
 30
 0
 11
272.74000
 21
158.15000
  0
LINE
  8
Engraving
 62
   7
 39
0.200
  6
CONTINUOUS
 10
272.74000
 20
158.15000
 30
 0
 11
272.74000
 21
158.90000
  0
LINE
  8
Engraving
 62
   7
 39
0.200
  6
CONTINUOUS
 10
272.74000
 20
158.90000
 30
 0
 11
270.54000
 21
158.90000
  0
LINE
  8
Engraving
 62
   7
 39
0.200
  6
CONTINUOUS
 10
285.12400
 20
51.15000
 30
 0
 11
285.12400
 21
50.45000
  0
LINE
  8
Engraving
 62
   7
 39
0.200
  6
CONTINUOUS
 10
285.12400
 20
50.45000
 30
 0
 11
285.77400
 21
50.45000
  0
LINE
  8
Engraving
 62
   7
 39
0.200
  6
CONTINUOUS
 10
285.77400
 20
50.45000
 30
 0
 11
285.77400
 21
46.15000
  0
LINE
  8
Engraving
 62
   7
 39
0.200
  6
CONTINUOUS
 10
285.77400
 20
46.15000
 30
 0
 11
286.62400
 21
46.15000
  0
LINE
  8
Engraving
 62
   7
 39
0.200
  6
CONTINUOUS
 10
286.62400
 20
46.15000
 30
 0
 11
286.62400
 21
51.15000
  0
LINE
  8
Engraving
 62
   7
 39
0.200
  6
CONTINUOUS
 10
286.62400
 20
51.15000
 30
 0
 11
285.12400
 21
51.15000
  0
ARC
  8
Engraving
 62
   7
 39
0.200
  6
CONTINUOUS
 10
289.22400
 20
47.90000
 30
 0
 40
0.95000
 50
180.00000
 51
360.00000
  0
ARC
  8
Engraving
 62
   7
 39
0.200
  6
CONTINUOUS
 10
289.22400
 20
47.90000
 30
 0
 40
0.95000
 50
0.00000
 51
180.00000
  0
LINE
  8
Engraving
 62
   7
 39
0.200
  6
CONTINUOUS
 10
288.77400
 20
49.25000
 30
 0
 11
290.12400
 21
51.15000
  0
LINE
  8
Engraving
 62
   7
 39
0.200
  6
CONTINUOUS
 10
290.12400
 20
51.15000
 30
 0
 11
289.17400
 21
51.15000
  0
LINE
  8
Engraving
 62
   7
 39
0.200
  6
CONTINUOUS
 10
289.17400
 20
51.15000
 30
 0
 11
287.72400
 21
49.10000
  0
ARC
  8
Engraving
 62
   7
 39
0.200
  6
CONTINUOUS
 10
289.26300
 20
48.02500
 30
 0
 40
1.87700
 50
145.06549
 51
267.28240
  0
ARC
  8
Engraving
 62
   7
 39
0.200
  6
CONTINUOUS
 10
289.25500
 20
47.92600
 30
 0
 40
1.77800
 50
-92.61134
 51
5.61758
  0
ARC
  8
Engraving
 62
   7
 39
0.200
  6
CONTINUOUS
 10
289.53600
 20
47.96500
 30
 0
 40
1.49400
 50
5.18401
 51
120.66778
  0
LINE
  8
Engraving
 62
   7
 39
0.200
  6
CONTINUOUS
 10
19.12400
 20
51.15000
 30
 0
 11
19.12400
 21
50.45000
  0
LINE
  8
Engraving
 62
   7
 39
0.200
  6
CONTINUOUS
 10
19.12400
 20
50.45000
 30
 0
 11
19.77400
 21
50.45000
  0
LINE
  8
Engraving
 62
   7
 39
0.200
  6
CONTINUOUS
 10
19.77400
 20
50.45000
 30
 0
 11
19.77400
 21
46.15000
  0
LINE
  8
Engraving
 62
   7
 39
0.200
  6
CONTINUOUS
 10
19.77400
 20
46.15000
 30
 0
 11
20.62400
 21
46.15000
  0
LINE
  8
Engraving
 62
   7
 39
0.200
  6
CONTINUOUS
 10
20.62400
 20
46.15000
 30
 0
 11
20.62400
 21
51.15000
  0
LINE
  8
Engraving
 62
   7
 39
0.200
  6
CONTINUOUS
 10
20.62400
 20
51.15000
 30
 0
 11
19.12400
 21
51.15000
  0
LINE
  8
Engraving
 62
   7
 39
0.200
  6
CONTINUOUS
 10
37.09000
 20
49.45000
 30
 0
 11
37.99000
 21
49.45000
  0
ARC
  8
Engraving
 62
   7
 39
0.200
  6
CONTINUOUS
 10
38.79000
 20
49.55000
 30
 0
 40
0.80600
 50
7.12502
 51
-172.87498
  0
ARC
  8
Engraving
 62
   7
 39
0.200
  6
CONTINUOUS
 10
38.60200
 20
49.52000
 30
 0
 40
0.99700
 50
317.76498
 51
7.49586
  0
LINE
  8
Engraving
 62
   7
 39
0.200
  6
CONTINUOUS
 10
39.34000
 20
48.85000
 30
 0
 11
36.99000
 21
46.35000
  0
LINE
  8
Engraving
 62
   7
 39
0.200
  6
CONTINUOUS
 10
36.99000
 20
46.35000
 30
 0
 11
36.99000
 21
46.15000
  0
LINE
  8
Engraving
 62
   7
 39
0.200
  6
CONTINUOUS
 10
36.99000
 20
46.15000
 30
 0
 11
40.24000
 21
46.15000
  0
LINE
  8
Engraving
 62
   7
 39
0.200
  6
CONTINUOUS
 10
40.24000
 20
46.15000
 30
 0
 11
40.24000
 21
46.95000
  0
LINE
  8
Engraving
 62
   7
 39
0.200
  6
CONTINUOUS
 10
40.24000
 20
46.95000
 30
 0
 11
38.74000
 21
46.95000
  0
LINE
  8
Engraving
 62
   7
 39
0.200
  6
CONTINUOUS
 10
38.74000
 20
46.95000
 30
 0
 11
40.04000
 21
48.40000
  0
ARC
  8
Engraving
 62
   7
 39
0.200
  6
CONTINUOUS
 10
38.81400
 20
49.50600
 30
 0
 40
1.65100
 50
-42.05427
 51
51.58944
  0
ARC
  8
Engraving
 62
   7
 39
0.200
  6
CONTINUOUS
 10
38.79000
 20
49.46700
 30
 0
 40
1.69700
 50
51.77260
 51
128.22740
  0
ARC
  8
Engraving
 62
   7
 39
0.200
  6
CONTINUOUS
 10
38.81600
 20
49.45000
 30
 0
 40
1.72600
 50
128.55614
 51
180.00000
  0
LINE
  8
Engraving
 62
   7
 39
0.200
  6
CONTINUOUS
 10
55.00700
 20
49.65000
 30
 0
 11
55.85700
 21
49.65000
  0
ARC
  8
Engraving
 62
   7
 39
0.200
  6
CONTINUOUS
 10
56.55200
 20
49.67000
 30
 0
 40
0.69500
 50
102.03720
 51
-178.35166
  0
ARC
  8
Engraving
 62
   7
 39
0.200
  6
CONTINUOUS
 10
56.70700
 20
49.00600
 30
 0
 40
1.37700
 50
437.41704
 51
102.58296
  0
ARC
  8
Engraving
 62
   7
 39
0.200
  6
CONTINUOUS
 10
56.88400
 20
49.78400
 30
 0
 40
0.57900
 50
292.66556
 51
77.73943
  0
ARC
  8
Engraving
 62
   7
 39
0.200
  6
CONTINUOUS
 10
56.58700
 20
50.47000
 30
 0
 40
1.32600
 50
264.37537
 51
-66.91487
  0
LINE
  8
Engraving
 62
   7
 39
0.200
  6
CONTINUOUS
 10
56.45700
 20
49.15000
 30
 0
 11
56.45700
 21
48.40000
  0
LINE
  8
Engraving
 62
   7
 39
0.200
  6
CONTINUOUS
 10
56.45700
 20
48.40000
 30
 0
 11
56.85700
 21
48.40000
  0
ARC
  8
Engraving
 62
   7
 39
0.200
  6
CONTINUOUS
 10
56.85300
 20
47.73900
 30
 0
 40
0.66100
 50
393.08925
 51
89.65328
  0
ARC
  8
Engraving
 62
   7
 39
0.200
  6
CONTINUOUS
 10
56.72200
 20
47.66300
 30
 0
 40
0.81300
 50
316.09787
 51
32.53609
  0
ARC
  8
Engraving
 62
   7
 39
0.200
  6
CONTINUOUS
 10
56.65500
 20
47.74200
 30
 0
 40
0.91500
 50
220.30253
 51
-44.55723
  0
ARC
  8
Engraving
 62
   7
 39
0.200
  6
CONTINUOUS
 10
56.62700
 20
47.70500
 30
 0
 40
0.87000
 50
180.32928
 51
-140.36307
  0
LINE
  8
Engraving
 62
   7
 39
0.200
  6
CONTINUOUS
 10
55.75700
 20
47.70000
 30
 0
 11
54.85700
 21
47.70000
  0
ARC
  8
Engraving
 62
   7
 39
0.200
  6
CONTINUOUS
 10
56.39400
 20
47.69000
 30
 0
 40
1.53700
 50
179.62723
 51
249.54868
  0
ARC
  8
Engraving
 62
   7
 39
0.200
  6
CONTINUOUS
 10
56.62100
 20
48.29000
 30
 0
 40
2.17800
 50
-110.53142
 51
-66.00012
  0
ARC
  8
Engraving
 62
   7
 39
0.200
  6
CONTINUOUS
 10
56.86200
 20
47.70500
 30
 0
 40
1.54600
 50
-65.34134
 51
-2.03879
  0
ARC
  8
Engraving
 62
   7
 39
0.200
  6
CONTINUOUS
 10
57.24500
 20
47.68400
 30
 0
 40
1.16200
 50
-1.67599
 51
66.56829
  0
ARC
  8
Engraving
 62
   7
 39
0.200
  6
CONTINUOUS
 10
57.12300
 20
49.77700
 30
 0
 40
1.18100
 50
-60.37542
 51
37.74309
  0
ARC
  8
Engraving
 62
   7
 39
0.200
  6
CONTINUOUS
 10
56.65700
 20
49.40700
 30
 0
 40
1.77600
 50
37.97967
 51
142.02033
  0
ARC
  8
Engraving
 62
   7
 39
0.200
  6
CONTINUOUS
 10
56.21600
 20
49.75600
 30
 0
 40
1.21400
 50
142.19540
 51
185.01064
  0
LINE
  8
Engraving
 62
   7
 39
0.200
  6
CONTINUOUS
 10
75.07400
 20
49.70000
 30
 0
 11
73.97400
 21
48.20000
  0
LINE
  8
Engraving
 62
   7
 39
0.200
  6
CONTINUOUS
 10
73.97400
 20
48.20000
 30
 0
 11
75.07400
 21
48.20000
  0
LINE
  8
Engraving
 62
   7
 39
0.200
  6
CONTINUOUS
 10
75.07400
 20
48.20000
 30
 0
 11
75.07400
 21
49.70000
  0
LINE
  8
Engraving
 62
   7
 39
0.200
  6
CONTINUOUS
 10
75.17400
 20
51.15000
 30
 0
 11
72.72400
 21
47.80000
  0
LINE
  8
Engraving
 62
   7
 39
0.200
  6
CONTINUOUS
 10
72.72400
 20
47.80000
 30
 0
 11
72.72400
 21
47.40000
  0
LINE
  8
Engraving
 62
   7
 39
0.200
  6
CONTINUOUS
 10
72.72400
 20
47.40000
 30
 0
 11
75.07400
 21
47.40000
  0
LINE
  8
Engraving
 62
   7
 39
0.200
  6
CONTINUOUS
 10
75.07400
 20
47.40000
 30
 0
 11
75.07400
 21
46.15000
  0
LINE
  8
Engraving
 62
   7
 39
0.200
  6
CONTINUOUS
 10
75.07400
 20
46.15000
 30
 0
 11
75.87400
 21
46.15000
  0
LINE
  8
Engraving
 62
   7
 39
0.200
  6
CONTINUOUS
 10
75.87400
 20
46.15000
 30
 0
 11
75.87400
 21
47.40000
  0
LINE
  8
Engraving
 62
   7
 39
0.200
  6
CONTINUOUS
 10
75.87400
 20
47.40000
 30
 0
 11
76.52400
 21
47.40000
  0
LINE
  8
Engraving
 62
   7
 39
0.200
  6
CONTINUOUS
 10
76.52400
 20
47.40000
 30
 0
 11
76.52400
 21
48.20000
  0
LINE
  8
Engraving
 62
   7
 39
0.200
  6
CONTINUOUS
 10
76.52400
 20
48.20000
 30
 0
 11
75.87400
 21
48.20000
  0
LINE
  8
Engraving
 62
   7
 39
0.200
  6
CONTINUOUS
 10
75.87400
 20
48.20000
 30
 0
 11
75.87400
 21
51.15000
  0
LINE
  8
Engraving
 62
   7
 39
0.200
  6
CONTINUOUS
 10
75.87400
 20
51.15000
 30
 0
 11
75.17400
 21
51.15000
  0
LINE
  8
Engraving
 62
   7
 39
0.200
  6
CONTINUOUS
 10
91.59000
 20
51.15000
 30
 0
 11
90.99000
 21
48.45000
  0
ARC
  8
Engraving
 62
   7
 39
0.200
  6
CONTINUOUS
 10
92.05900
 20
46.66100
 30
 0
 40
2.08400
 50
438.06462
 51
120.86003
  0
ARC
  8
Engraving
 62
   7
 39
0.200
  6
CONTINUOUS
 10
92.31500
 20
47.84200
 30
 0
 40
0.87600
 50
357.25191
 51
78.47192
  0
ARC
  8
Engraving
 62
   7
 39
0.200
  6
CONTINUOUS
 10
92.24800
 20
47.85000
 30
 0
 40
0.94300
 50
244.35899
 51
-3.03833
  0
ARC
  8
Engraving
 62
   7
 39
0.200
  6
CONTINUOUS
 10
96.07300
 20
55.62600
 30
 0
 40
9.60900
 50
236.64566
 51
-116.13837
  0
LINE
  8
Engraving
 62
   7
 39
0.200
  6
CONTINUOUS
 10
90.79000
 20
47.60000
 30
 0
 11
90.59000
 21
46.75000
  0
ARC
  8
Engraving
 62
   7
 39
0.200
  6
CONTINUOUS
 10
92.16900
 20
48.49000
 30
 0
 40
2.35000
 50
-132.22284
 51
-65.59438
  0
ARC
  8
Engraving
 62
   7
 39
0.200
  6
CONTINUOUS
 10
92.46400
 20
47.80900
 30
 0
 40
1.60800
 50
-65.14025
 51
40.33468
  0
ARC
  8
Engraving
 62
   7
 39
0.200
  6
CONTINUOUS
 10
92.32000
 20
47.67600
 30
 0
 40
1.80400
 50
40.59441
 51
100.53773
  0
LINE
  8
Engraving
 62
   7
 39
0.200
  6
CONTINUOUS
 10
91.99000
 20
49.45000
 30
 0
 11
92.19000
 21
50.40000
  0
LINE
  8
Engraving
 62
   7
 39
0.200
  6
CONTINUOUS
 10
92.19000
 20
50.40000
 30
 0
 11
93.79000
 21
50.40000
  0
LINE
  8
Engraving
 62
   7
 39
0.200
  6
CONTINUOUS
 10
93.79000
 20
50.40000
 30
 0
 11
93.79000
 21
51.15000
  0
LINE
  8
Engraving
 62
   7
 39
0.200
  6
CONTINUOUS
 10
93.79000
 20
51.15000
 30
 0
 11
91.59000
 21
51.15000
  0
ARC
  8
Engraving
 62
   7
 39
0.200
  6
CONTINUOUS
 10
110.29400
 20
47.90000
 30
 0
 40
0.95000
 50
180.00000
 51
360.00000
  0
ARC
  8
Engraving
 62
   7
 39
0.200
  6
CONTINUOUS
 10
110.29400
 20
47.90000
 30
 0
 40
0.95000
 50
0.00000
 51
180.00000
  0
LINE
  8
Engraving
 62
   7
 39
0.200
  6
CONTINUOUS
 10
109.84400
 20
49.25000
 30
 0
 11
111.19400
 21
51.15000
  0
LINE
  8
Engraving
 62
   7
 39
0.200
  6
CONTINUOUS
 10
111.19400
 20
51.15000
 30
 0
 11
110.24400
 21
51.15000
  0
LINE
  8
Engraving
 62
   7
 39
0.200
  6
CONTINUOUS
 10
110.24400
 20
51.15000
 30
 0
 11
108.79400
 21
49.10000
  0
ARC
  8
Engraving
 62
   7
 39
0.200
  6
CONTINUOUS
 10
110.33300
 20
48.02500
 30
 0
 40
1.87700
 50
145.06549
 51
267.28240
  0
ARC
  8
Engraving
 62
   7
 39
0.200
  6
CONTINUOUS
 10
110.32500
 20
47.92600
 30
 0
 40
1.77800
 50
-92.61134
 51
5.61758
  0
ARC
  8
Engraving
 62
   7
 39
0.200
  6
CONTINUOUS
 10
110.60600
 20
47.96500
 30
 0
 40
1.49400
 50
5.18401
 51
120.66778
  0
LINE
  8
Engraving
 62
   7
 39
0.200
  6
CONTINUOUS
 10
126.32400
 20
51.15000
 30
 0
 11
126.32400
 21
50.35000
  0
LINE
  8
Engraving
 62
   7
 39
0.200
  6
CONTINUOUS
 10
126.32400
 20
50.35000
 30
 0
 11
128.67400
 21
50.35000
  0
LINE
  8
Engraving
 62
   7
 39
0.200
  6
CONTINUOUS
 10
128.67400
 20
50.35000
 30
 0
 11
126.32400
 21
46.15000
  0
LINE
  8
Engraving
 62
   7
 39
0.200
  6
CONTINUOUS
 10
126.32400
 20
46.15000
 30
 0
 11
127.32400
 21
46.15000
  0
LINE
  8
Engraving
 62
   7
 39
0.200
  6
CONTINUOUS
 10
127.32400
 20
46.15000
 30
 0
 11
130.07400
 21
51.15000
  0
LINE
  8
Engraving
 62
   7
 39
0.200
  6
CONTINUOUS
 10
130.07400
 20
51.15000
 30
 0
 11
126.32400
 21
51.15000
  0
ARC
  8
Engraving
 62
   7
 39
0.200
  6
CONTINUOUS
 10
145.84100
 20
49.90000
 30
 0
 40
0.65000
 50
-90.00000
 51
90.00000
  0
ARC
  8
Engraving
 62
   7
 39
0.200
  6
CONTINUOUS
 10
145.84100
 20
49.90000
 30
 0
 40
0.65000
 50
90.00000
 51
270.00000
  0
ARC
  8
Engraving
 62
   7
 39
0.200
  6
CONTINUOUS
 10
145.84100
 20
47.65000
 30
 0
 40
0.80000
 50
270.00000
 51
90.00000
  0
ARC
  8
Engraving
 62
   7
 39
0.200
  6
CONTINUOUS
 10
145.84100
 20
47.65000
 30
 0
 40
0.80000
 50
90.00000
 51
-90.00000
  0
ARC
  8
Engraving
 62
   7
 39
0.200
  6
CONTINUOUS
 10
146.13400
 20
47.68600
 30
 0
 40
1.35700
 50
358.48035
 51
63.43495
  0
ARC
  8
Engraving
 62
   7
 39
0.200
  6
CONTINUOUS
 10
145.94400
 20
47.69500
 30
 0
 40
1.54800
 50
266.18593
 51
-1.66618
  0
ARC
  8
Engraving
 62
   7
 39
0.200
  6
CONTINUOUS
 10
145.73800
 20
47.69500
 30
 0
 40
1.54800
 50
181.66618
 51
-86.18593
  0
ARC
  8
Engraving
 62
   7
 39
0.200
  6
CONTINUOUS
 10
145.54800
 20
47.68600
 30
 0
 40
1.35700
 50
116.56505
 51
-178.48035
  0
ARC
  8
Engraving
 62
   7
 39
0.200
  6
CONTINUOUS
 10
145.44900
 20
49.91200
 30
 0
 40
1.13200
 50
139.29986
 51
-116.65557
  0
ARC
  8
Engraving
 62
   7
 39
0.200
  6
CONTINUOUS
 10
145.69800
 20
49.69600
 30
 0
 40
1.46100
 50
444.38306
 51
139.24561
  0
ARC
  8
Engraving
 62
   7
 39
0.200
  6
CONTINUOUS
 10
145.98400
 20
49.69600
 30
 0
 40
1.46100
 50
400.75439
 51
95.61694
  0
ARC
  8
Engraving
 62
   7
 39
0.200
  6
CONTINUOUS
 10
146.23300
 20
49.91200
 30
 0
 40
1.13200
 50
296.65557
 51
40.70014
  0
ARC
  8
Engraving
 62
   7
 39
0.200
  6
CONTINUOUS
 10
163.86400
 20
49.40000
 30
 0
 40
0.95000
 50
360.00000
 51
180.00000
  0
ARC
  8
Engraving
 62
   7
 39
0.200
  6
CONTINUOUS
 10
163.86400
 20
49.40000
 30
 0
 40
0.95000
 50
180.00000
 51
0.00000
  0
LINE
  8
Engraving
 62
   7
 39
0.200
  6
CONTINUOUS
 10
164.31400
 20
48.05000
 30
 0
 11
162.96400
 21
46.15000
  0
LINE
  8
Engraving
 62
   7
 39
0.200
  6
CONTINUOUS
 10
162.96400
 20
46.15000
 30
 0
 11
163.91400
 21
46.15000
  0
LINE
  8
Engraving
 62
   7
 39
0.200
  6
CONTINUOUS
 10
163.91400
 20
46.15000
 30
 0
 11
165.36400
 21
48.20000
  0
ARC
  8
Engraving
 62
   7
 39
0.200
  6
CONTINUOUS
 10
163.82500
 20
49.27500
 30
 0
 40
1.87700
 50
-34.93451
 51
87.28240
  0
ARC
  8
Engraving
 62
   7
 39
0.200
  6
CONTINUOUS
 10
163.83300
 20
49.37400
 30
 0
 40
1.77800
 50
87.38866
 51
185.61758
  0
ARC
  8
Engraving
 62
   7
 39
0.200
  6
CONTINUOUS
 10
163.55200
 20
49.33500
 30
 0
 40
1.49400
 50
-174.81599
 51
-59.33222
  0
LINE
  8
Engraving
 62
   7
 39
0.200
  6
CONTINUOUS
 10
177.92400
 20
51.15000
 30
 0
 11
177.92400
 21
50.45000
  0
LINE
  8
Engraving
 62
   7
 39
0.200
  6
CONTINUOUS
 10
177.92400
 20
50.45000
 30
 0
 11
178.57400
 21
50.45000
  0
LINE
  8
Engraving
 62
   7
 39
0.200
  6
CONTINUOUS
 10
178.57400
 20
50.45000
 30
 0
 11
178.57400
 21
46.15000
  0
LINE
  8
Engraving
 62
   7
 39
0.200
  6
CONTINUOUS
 10
178.57400
 20
46.15000
 30
 0
 11
179.42400
 21
46.15000
  0
LINE
  8
Engraving
 62
   7
 39
0.200
  6
CONTINUOUS
 10
179.42400
 20
46.15000
 30
 0
 11
179.42400
 21
51.15000
  0
LINE
  8
Engraving
 62
   7
 39
0.200
  6
CONTINUOUS
 10
179.42400
 20
51.15000
 30
 0
 11
177.92400
 21
51.15000
  0
ARC
  8
Engraving
 62
   7
 39
0.200
  6
CONTINUOUS
 10
184.07600
 20
48.65000
 30
 0
 40
2.97900
 50
150.87067
 51
209.12933
  0
ARC
  8
Engraving
 62
   7
 39
0.200
  6
CONTINUOUS
 10
182.07400
 20
47.54100
 30
 0
 40
0.69000
 50
-150.38899
 51
-29.61101
  0
ARC
  8
Engraving
 62
   7
 39
0.200
  6
CONTINUOUS
 10
180.07200
 20
48.65000
 30
 0
 40
2.97900
 50
-29.12933
 51
29.12933
  0
ARC
  8
Engraving
 62
   7
 39
0.200
  6
CONTINUOUS
 10
182.07400
 20
49.75900
 30
 0
 40
0.69000
 50
29.61101
 51
150.38899
  0
ARC
  8
Engraving
 62
   7
 39
0.200
  6
CONTINUOUS
 10
183.58800
 20
48.65000
 30
 0
 40
3.36800
 50
146.67799
 51
213.32201
  0
ARC
  8
Engraving
 62
   7
 39
0.200
  6
CONTINUOUS
 10
182.07400
 20
47.66600
 30
 0
 40
1.56200
 50
-146.33028
 51
-33.66972
  0
ARC
  8
Engraving
 62
   7
 39
0.200
  6
CONTINUOUS
 10
180.56000
 20
48.65000
 30
 0
 40
3.36800
 50
-33.32201
 51
33.32201
  0
ARC
  8
Engraving
 62
   7
 39
0.200
  6
CONTINUOUS
 10
182.07400
 20
49.63400
 30
 0
 40
1.56200
 50
33.66972
 51
146.33028
  0
LINE
  8
Engraving
 62
   7
 39
0.200
  6
CONTINUOUS
 10
195.79000
 20
51.15000
 30
 0
 11
195.79000
 21
50.45000
  0
LINE
  8
Engraving
 62
   7
 39
0.200
  6
CONTINUOUS
 10
195.79000
 20
50.45000
 30
 0
 11
196.44000
 21
50.45000
  0
LINE
  8
Engraving
 62
   7
 39
0.200
  6
CONTINUOUS
 10
196.44000
 20
50.45000
 30
 0
 11
196.44000
 21
46.15000
  0
LINE
  8
Engraving
 62
   7
 39
0.200
  6
CONTINUOUS
 10
196.44000
 20
46.15000
 30
 0
 11
197.29000
 21
46.15000
  0
LINE
  8
Engraving
 62
   7
 39
0.200
  6
CONTINUOUS
 10
197.29000
 20
46.15000
 30
 0
 11
197.29000
 21
51.15000
  0
LINE
  8
Engraving
 62
   7
 39
0.200
  6
CONTINUOUS
 10
197.29000
 20
51.15000
 30
 0
 11
195.79000
 21
51.15000
  0
LINE
  8
Engraving
 62
   7
 39
0.200
  6
CONTINUOUS
 10
198.09000
 20
51.15000
 30
 0
 11
198.09000
 21
50.45000
  0
LINE
  8
Engraving
 62
   7
 39
0.200
  6
CONTINUOUS
 10
198.09000
 20
50.45000
 30
 0
 11
198.74000
 21
50.45000
  0
LINE
  8
Engraving
 62
   7
 39
0.200
  6
CONTINUOUS
 10
198.74000
 20
50.45000
 30
 0
 11
198.74000
 21
46.15000
  0
LINE
  8
Engraving
 62
   7
 39
0.200
  6
CONTINUOUS
 10
198.74000
 20
46.15000
 30
 0
 11
199.59000
 21
46.15000
  0
LINE
  8
Engraving
 62
   7
 39
0.200
  6
CONTINUOUS
 10
199.59000
 20
46.15000
 30
 0
 11
199.59000
 21
51.15000
  0
LINE
  8
Engraving
 62
   7
 39
0.200
  6
CONTINUOUS
 10
199.59000
 20
51.15000
 30
 0
 11
198.09000
 21
51.15000
  0
LINE
  8
Engraving
 62
   7
 39
0.200
  6
CONTINUOUS
 10
213.90700
 20
51.15000
 30
 0
 11
213.90700
 21
50.45000
  0
LINE
  8
Engraving
 62
   7
 39
0.200
  6
CONTINUOUS
 10
213.90700
 20
50.45000
 30
 0
 11
214.55700
 21
50.45000
  0
LINE
  8
Engraving
 62
   7
 39
0.200
  6
CONTINUOUS
 10
214.55700
 20
50.45000
 30
 0
 11
214.55700
 21
46.15000
  0
LINE
  8
Engraving
 62
   7
 39
0.200
  6
CONTINUOUS
 10
214.55700
 20
46.15000
 30
 0
 11
215.40700
 21
46.15000
  0
LINE
  8
Engraving
 62
   7
 39
0.200
  6
CONTINUOUS
 10
215.40700
 20
46.15000
 30
 0
 11
215.40700
 21
51.15000
  0
LINE
  8
Engraving
 62
   7
 39
0.200
  6
CONTINUOUS
 10
215.40700
 20
51.15000
 30
 0
 11
213.90700
 21
51.15000
  0
LINE
  8
Engraving
 62
   7
 39
0.200
  6
CONTINUOUS
 10
216.25700
 20
49.45000
 30
 0
 11
217.15700
 21
49.45000
  0
ARC
  8
Engraving
 62
   7
 39
0.200
  6
CONTINUOUS
 10
217.95700
 20
49.55000
 30
 0
 40
0.80600
 50
7.12502
 51
-172.87498
  0
ARC
  8
Engraving
 62
   7
 39
0.200
  6
CONTINUOUS
 10
217.76900
 20
49.52000
 30
 0
 40
0.99700
 50
317.76498
 51
7.49586
  0
LINE
  8
Engraving
 62
   7
 39
0.200
  6
CONTINUOUS
 10
218.50700
 20
48.85000
 30
 0
 11
216.15700
 21
46.35000
  0
LINE
  8
Engraving
 62
   7
 39
0.200
  6
CONTINUOUS
 10
216.15700
 20
46.35000
 30
 0
 11
216.15700
 21
46.15000
  0
LINE
  8
Engraving
 62
   7
 39
0.200
  6
CONTINUOUS
 10
216.15700
 20
46.15000
 30
 0
 11
219.40700
 21
46.15000
  0
LINE
  8
Engraving
 62
   7
 39
0.200
  6
CONTINUOUS
 10
219.40700
 20
46.15000
 30
 0
 11
219.40700
 21
46.95000
  0
LINE
  8
Engraving
 62
   7
 39
0.200
  6
CONTINUOUS
 10
219.40700
 20
46.95000
 30
 0
 11
217.90700
 21
46.95000
  0
LINE
  8
Engraving
 62
   7
 39
0.200
  6
CONTINUOUS
 10
217.90700
 20
46.95000
 30
 0
 11
219.20700
 21
48.40000
  0
ARC
  8
Engraving
 62
   7
 39
0.200
  6
CONTINUOUS
 10
217.98100
 20
49.50600
 30
 0
 40
1.65100
 50
-42.05427
 51
51.58944
  0
ARC
  8
Engraving
 62
   7
 39
0.200
  6
CONTINUOUS
 10
217.95700
 20
49.46700
 30
 0
 40
1.69700
 50
51.77260
 51
128.22740
  0
ARC
  8
Engraving
 62
   7
 39
0.200
  6
CONTINUOUS
 10
217.98300
 20
49.45000
 30
 0
 40
1.72600
 50
128.55614
 51
180.00000
  0
LINE
  8
Engraving
 62
   7
 39
0.200
  6
CONTINUOUS
 10
231.52400
 20
51.15000
 30
 0
 11
231.52400
 21
50.45000
  0
LINE
  8
Engraving
 62
   7
 39
0.200
  6
CONTINUOUS
 10
231.52400
 20
50.45000
 30
 0
 11
232.17400
 21
50.45000
  0
LINE
  8
Engraving
 62
   7
 39
0.200
  6
CONTINUOUS
 10
232.17400
 20
50.45000
 30
 0
 11
232.17400
 21
46.15000
  0
LINE
  8
Engraving
 62
   7
 39
0.200
  6
CONTINUOUS
 10
232.17400
 20
46.15000
 30
 0
 11
233.02400
 21
46.15000
  0
LINE
  8
Engraving
 62
   7
 39
0.200
  6
CONTINUOUS
 10
233.02400
 20
46.15000
 30
 0
 11
233.02400
 21
51.15000
  0
LINE
  8
Engraving
 62
   7
 39
0.200
  6
CONTINUOUS
 10
233.02400
 20
51.15000
 30
 0
 11
231.52400
 21
51.15000
  0
LINE
  8
Engraving
 62
   7
 39
0.200
  6
CONTINUOUS
 10
233.92400
 20
49.65000
 30
 0
 11
234.77400
 21
49.65000
  0
ARC
  8
Engraving
 62
   7
 39
0.200
  6
CONTINUOUS
 10
235.46900
 20
49.67000
 30
 0
 40
0.69500
 50
102.03720
 51
-178.35166
  0
ARC
  8
Engraving
 62
   7
 39
0.200
  6
CONTINUOUS
 10
235.62400
 20
49.00600
 30
 0
 40
1.37700
 50
437.41704
 51
102.58296
  0
ARC
  8
Engraving
 62
   7
 39
0.200
  6
CONTINUOUS
 10
235.80100
 20
49.78400
 30
 0
 40
0.57900
 50
292.66556
 51
77.73943
  0
ARC
  8
Engraving
 62
   7
 39
0.200
  6
CONTINUOUS
 10
235.50400
 20
50.47000
 30
 0
 40
1.32600
 50
264.37537
 51
-66.91487
  0
LINE
  8
Engraving
 62
   7
 39
0.200
  6
CONTINUOUS
 10
235.37400
 20
49.15000
 30
 0
 11
235.37400
 21
48.40000
  0
LINE
  8
Engraving
 62
   7
 39
0.200
  6
CONTINUOUS
 10
235.37400
 20
48.40000
 30
 0
 11
235.77400
 21
48.40000
  0
ARC
  8
Engraving
 62
   7
 39
0.200
  6
CONTINUOUS
 10
235.77000
 20
47.73900
 30
 0
 40
0.66100
 50
393.08925
 51
89.65328
  0
ARC
  8
Engraving
 62
   7
 39
0.200
  6
CONTINUOUS
 10
235.63900
 20
47.66300
 30
 0
 40
0.81300
 50
316.09787
 51
32.53609
  0
ARC
  8
Engraving
 62
   7
 39
0.200
  6
CONTINUOUS
 10
235.57200
 20
47.74200
 30
 0
 40
0.91500
 50
220.30253
 51
-44.55723
  0
ARC
  8
Engraving
 62
   7
 39
0.200
  6
CONTINUOUS
 10
235.54400
 20
47.70500
 30
 0
 40
0.87000
 50
180.32928
 51
-140.36307
  0
LINE
  8
Engraving
 62
   7
 39
0.200
  6
CONTINUOUS
 10
234.67400
 20
47.70000
 30
 0
 11
233.77400
 21
47.70000
  0
ARC
  8
Engraving
 62
   7
 39
0.200
  6
CONTINUOUS
 10
235.31100
 20
47.69000
 30
 0
 40
1.53700
 50
179.62723
 51
249.54868
  0
ARC
  8
Engraving
 62
   7
 39
0.200
  6
CONTINUOUS
 10
235.53800
 20
48.29000
 30
 0
 40
2.17800
 50
-110.53142
 51
-66.00012
  0
ARC
  8
Engraving
 62
   7
 39
0.200
  6
CONTINUOUS
 10
235.77900
 20
47.70500
 30
 0
 40
1.54600
 50
-65.34134
 51
-2.03879
  0
ARC
  8
Engraving
 62
   7
 39
0.200
  6
CONTINUOUS
 10
236.16200
 20
47.68400
 30
 0
 40
1.16200
 50
-1.67599
 51
66.56829
  0
ARC
  8
Engraving
 62
   7
 39
0.200
  6
CONTINUOUS
 10
236.04000
 20
49.77700
 30
 0
 40
1.18100
 50
-60.37542
 51
37.74309
  0
ARC
  8
Engraving
 62
   7
 39
0.200
  6
CONTINUOUS
 10
235.57400
 20
49.40700
 30
 0
 40
1.77600
 50
37.97967
 51
142.02033
  0
ARC
  8
Engraving
 62
   7
 39
0.200
  6
CONTINUOUS
 10
235.13300
 20
49.75600
 30
 0
 40
1.21400
 50
142.19540
 51
185.01064
  0
LINE
  8
Engraving
 62
   7
 39
0.200
  6
CONTINUOUS
 10
249.39000
 20
51.15000
 30
 0
 11
249.39000
 21
50.45000
  0
LINE
  8
Engraving
 62
   7
 39
0.200
  6
CONTINUOUS
 10
249.39000
 20
50.45000
 30
 0
 11
250.04000
 21
50.45000
  0
LINE
  8
Engraving
 62
   7
 39
0.200
  6
CONTINUOUS
 10
250.04000
 20
50.45000
 30
 0
 11
250.04000
 21
46.15000
  0
LINE
  8
Engraving
 62
   7
 39
0.200
  6
CONTINUOUS
 10
250.04000
 20
46.15000
 30
 0
 11
250.89000
 21
46.15000
  0
LINE
  8
Engraving
 62
   7
 39
0.200
  6
CONTINUOUS
 10
250.89000
 20
46.15000
 30
 0
 11
250.89000
 21
51.15000
  0
LINE
  8
Engraving
 62
   7
 39
0.200
  6
CONTINUOUS
 10
250.89000
 20
51.15000
 30
 0
 11
249.39000
 21
51.15000
  0
LINE
  8
Engraving
 62
   7
 39
0.200
  6
CONTINUOUS
 10
254.04000
 20
49.70000
 30
 0
 11
252.94000
 21
48.20000
  0
LINE
  8
Engraving
 62
   7
 39
0.200
  6
CONTINUOUS
 10
252.94000
 20
48.20000
 30
 0
 11
254.04000
 21
48.20000
  0
LINE
  8
Engraving
 62
   7
 39
0.200
  6
CONTINUOUS
 10
254.04000
 20
48.20000
 30
 0
 11
254.04000
 21
49.70000
  0
LINE
  8
Engraving
 62
   7
 39
0.200
  6
CONTINUOUS
 10
254.14000
 20
51.15000
 30
 0
 11
251.69000
 21
47.80000
  0
LINE
  8
Engraving
 62
   7
 39
0.200
  6
CONTINUOUS
 10
251.69000
 20
47.80000
 30
 0
 11
251.69000
 21
47.40000
  0
LINE
  8
Engraving
 62
   7
 39
0.200
  6
CONTINUOUS
 10
251.69000
 20
47.40000
 30
 0
 11
254.04000
 21
47.40000
  0
LINE
  8
Engraving
 62
   7
 39
0.200
  6
CONTINUOUS
 10
254.04000
 20
47.40000
 30
 0
 11
254.04000
 21
46.15000
  0
LINE
  8
Engraving
 62
   7
 39
0.200
  6
CONTINUOUS
 10
254.04000
 20
46.15000
 30
 0
 11
254.84000
 21
46.15000
  0
LINE
  8
Engraving
 62
   7
 39
0.200
  6
CONTINUOUS
 10
254.84000
 20
46.15000
 30
 0
 11
254.84000
 21
47.40000
  0
LINE
  8
Engraving
 62
   7
 39
0.200
  6
CONTINUOUS
 10
254.84000
 20
47.40000
 30
 0
 11
255.49000
 21
47.40000
  0
LINE
  8
Engraving
 62
   7
 39
0.200
  6
CONTINUOUS
 10
255.49000
 20
47.40000
 30
 0
 11
255.49000
 21
48.20000
  0
LINE
  8
Engraving
 62
   7
 39
0.200
  6
CONTINUOUS
 10
255.49000
 20
48.20000
 30
 0
 11
254.84000
 21
48.20000
  0
LINE
  8
Engraving
 62
   7
 39
0.200
  6
CONTINUOUS
 10
254.84000
 20
48.20000
 30
 0
 11
254.84000
 21
51.15000
  0
LINE
  8
Engraving
 62
   7
 39
0.200
  6
CONTINUOUS
 10
254.84000
 20
51.15000
 30
 0
 11
254.14000
 21
51.15000
  0
LINE
  8
Engraving
 62
   7
 39
0.200
  6
CONTINUOUS
 10
267.25700
 20
51.15000
 30
 0
 11
267.25700
 21
50.45000
  0
LINE
  8
Engraving
 62
   7
 39
0.200
  6
CONTINUOUS
 10
267.25700
 20
50.45000
 30
 0
 11
267.90700
 21
50.45000
  0
LINE
  8
Engraving
 62
   7
 39
0.200
  6
CONTINUOUS
 10
267.90700
 20
50.45000
 30
 0
 11
267.90700
 21
46.15000
  0
LINE
  8
Engraving
 62
   7
 39
0.200
  6
CONTINUOUS
 10
267.90700
 20
46.15000
 30
 0
 11
268.75700
 21
46.15000
  0
LINE
  8
Engraving
 62
   7
 39
0.200
  6
CONTINUOUS
 10
268.75700
 20
46.15000
 30
 0
 11
268.75700
 21
51.15000
  0
LINE
  8
Engraving
 62
   7
 39
0.200
  6
CONTINUOUS
 10
268.75700
 20
51.15000
 30
 0
 11
267.25700
 21
51.15000
  0
LINE
  8
Engraving
 62
   7
 39
0.200
  6
CONTINUOUS
 10
270.55700
 20
51.15000
 30
 0
 11
269.95700
 21
48.45000
  0
ARC
  8
Engraving
 62
   7
 39
0.200
  6
CONTINUOUS
 10
271.02600
 20
46.66100
 30
 0
 40
2.08400
 50
438.06462
 51
120.86003
  0
ARC
  8
Engraving
 62
   7
 39
0.200
  6
CONTINUOUS
 10
271.28200
 20
47.84200
 30
 0
 40
0.87600
 50
357.25191
 51
78.47192
  0
ARC
  8
Engraving
 62
   7
 39
0.200
  6
CONTINUOUS
 10
271.21500
 20
47.85000
 30
 0
 40
0.94300
 50
244.35899
 51
-3.03833
  0
ARC
  8
Engraving
 62
   7
 39
0.200
  6
CONTINUOUS
 10
275.04000
 20
55.62600
 30
 0
 40
9.60900
 50
236.64566
 51
-116.13837
  0
LINE
  8
Engraving
 62
   7
 39
0.200
  6
CONTINUOUS
 10
269.75700
 20
47.60000
 30
 0
 11
269.55700
 21
46.75000
  0
ARC
  8
Engraving
 62
   7
 39
0.200
  6
CONTINUOUS
 10
271.13600
 20
48.49000
 30
 0
 40
2.35000
 50
-132.22284
 51
-65.59438
  0
ARC
  8
Engraving
 62
   7
 39
0.200
  6
CONTINUOUS
 10
271.43100
 20
47.80900
 30
 0
 40
1.60800
 50
-65.14025
 51
40.33468
  0
ARC
  8
Engraving
 62
   7
 39
0.200
  6
CONTINUOUS
 10
271.28700
 20
47.67600
 30
 0
 40
1.80400
 50
40.59441
 51
100.53773
  0
LINE
  8
Engraving
 62
   7
 39
0.200
  6
CONTINUOUS
 10
270.95700
 20
49.45000
 30
 0
 11
271.15700
 21
50.40000
  0
LINE
  8
Engraving
 62
   7
 39
0.200
  6
CONTINUOUS
 10
271.15700
 20
50.40000
 30
 0
 11
272.75700
 21
50.40000
  0
LINE
  8
Engraving
 62
   7
 39
0.200
  6
CONTINUOUS
 10
272.75700
 20
50.40000
 30
 0
 11
272.75700
 21
51.15000
  0
LINE
  8
Engraving
 62
   7
 39
0.200
  6
CONTINUOUS
 10
272.75700
 20
51.15000
 30
 0
 11
270.55700
 21
51.15000
  0
ARC
  8
Contour
 62
   7
 39
0.100
  6
CONTINUOUS
 10
10.00000
 20
157.00000
 30
 0
 40
2.00000
 50
0.00000
 51
270.00000
  0
CIRCLE
  8
Contour
 62
   7
 39
0.100
  6
CONTINUOUS
 10
10.00000
 20
157.00000
 30
 0
 40
1.72900
  0
ARC
  8
Contour
 62
   7
 39
0.100
  6
CONTINUOUS
 10
298.00000
 20
157.00000
 30
 0
 40
2.00000
 50
0.00000
 51
270.00000
  0
CIRCLE
  8
Contour
 62
   7
 39
0.100
  6
CONTINUOUS
 10
298.00000
 20
157.00000
 30
 0
 40
1.72900
  0
ARC
  8
Contour
 62
   7
 39
0.100
  6
CONTINUOUS
 10
10.00000
 20
10.00000
 30
 0
 40
2.00000
 50
0.00000
 51
270.00000
  0
CIRCLE
  8
Contour
 62
   7
 39
0.100
  6
CONTINUOUS
 10
10.00000
 20
10.00000
 30
 0
 40
1.72900
  0
ARC
  8
Contour
 62
   7
 39
0.100
  6
CONTINUOUS
 10
298.00000
 20
10.00000
 30
 0
 40
2.00000
 50
0.00000
 51
270.00000
  0
CIRCLE
  8
Contour
 62
   7
 39
0.100
  6
CONTINUOUS
 10
298.00000
 20
10.00000
 30
 0
 40
1.72900
  0
LINE
  8
Contour
 62
   7
 39
0.100
  6
CONTINUOUS
 10
199.65000
 20
97.70000
 30
 0
 11
199.65000
 21
69.30000
  0
ARC
  8
Contour
 62
   7
 39
0.100
  6
CONTINUOUS
 10
198.15000
 20
69.30000
 30
 0
 40
1.50000
 50
270.00000
 51
0.00000
  0
LINE
  8
Contour
 62
   7
 39
0.100
  6
CONTINUOUS
 10
198.15000
 20
67.80000
 30
 0
 11
109.85000
 21
67.80000
  0
ARC
  8
Contour
 62
   7
 39
0.100
  6
CONTINUOUS
 10
109.85000
 20
69.30000
 30
 0
 40
1.50000
 50
180.00000
 51
-90.00000
  0
LINE
  8
Contour
 62
   7
 39
0.100
  6
CONTINUOUS
 10
108.35000
 20
69.30000
 30
 0
 11
108.35000
 21
97.70000
  0
ARC
  8
Contour
 62
   7
 39
0.100
  6
CONTINUOUS
 10
109.85000
 20
97.70000
 30
 0
 40
1.50000
 50
450.00000
 51
180.00000
  0
LINE
  8
Contour
 62
   7
 39
0.100
  6
CONTINUOUS
 10
109.85000
 20
99.20000
 30
 0
 11
198.15000
 21
99.20000
  0
ARC
  8
Contour
 62
   7
 39
0.100
  6
CONTINUOUS
 10
198.15000
 20
97.70000
 30
 0
 40
1.50000
 50
360.00000
 51
90.00000
  0
CIRCLE
  8
Contour
 62
   7
 39
0.100
  6
CONTINUOUS
 10
100.00000
 20
98.00000
 30
 0
 40
1.75000
  0
CIRCLE
  8
Contour
 62
   7
 39
0.100
  6
CONTINUOUS
 10
100.00000
 20
69.00000
 30
 0
 40
1.75000
  0
CIRCLE
  8
Contour
 62
   7
 39
0.100
  6
CONTINUOUS
 10
208.00000
 20
98.00000
 30
 0
 40
1.75000
  0
CIRCLE
  8
Contour
 62
   7
 39
0.100
  6
CONTINUOUS
 10
208.00000
 20
69.00000
 30
 0
 40
1.75000
  0
ARC
  8
Contour
 62
   7
 39
0.100
  6
CONTINUOUS
 10
288.12400
 20
136.65000
 30
 0
 40
5.55600
 50
0.00000
 51
270.00000
  0
CIRCLE
  8
Contour
 62
   7
 39
0.100
  6
CONTINUOUS
 10
288.12400
 20
136.65000
 30
 0
 40
4.86900
  0
CIRCLE
  8
Contour
 62
   7
 39
0.100
  6
CONTINUOUS
 10
288.12400
 20
148.15000
 30
 0
 40
2.50000
  0
CIRCLE
  8
Contour
 62
   7
 39
0.100
  6
CONTINUOUS
 10
288.12400
 20
123.90000
 30
 0
 40
3.00000
  0
CIRCLE
  8
Contour
 62
   7
 39
0.100
  6
CONTINUOUS
 10
288.12400
 20
116.65000
 30
 0
 40
0.87500
  0
ARC
  8
Contour
 62
   7
 39
0.100
  6
CONTINUOUS
 10
19.87400
 20
136.65000
 30
 0
 40
5.55600
 50
0.00000
 51
270.00000
  0
CIRCLE
  8
Contour
 62
   7
 39
0.100
  6
CONTINUOUS
 10
19.87400
 20
136.65000
 30
 0
 40
4.86900
  0
CIRCLE
  8
Contour
 62
   7
 39
0.100
  6
CONTINUOUS
 10
19.87400
 20
148.15000
 30
 0
 40
2.50000
  0
CIRCLE
  8
Contour
 62
   7
 39
0.100
  6
CONTINUOUS
 10
19.87400
 20
123.90000
 30
 0
 40
3.00000
  0
CIRCLE
  8
Contour
 62
   7
 39
0.100
  6
CONTINUOUS
 10
19.87400
 20
116.65000
 30
 0
 40
0.87500
  0
ARC
  8
Contour
 62
   7
 39
0.100
  6
CONTINUOUS
 10
37.75700
 20
136.65000
 30
 0
 40
5.55600
 50
0.00000
 51
270.00000
  0
CIRCLE
  8
Contour
 62
   7
 39
0.100
  6
CONTINUOUS
 10
37.75700
 20
136.65000
 30
 0
 40
4.86900
  0
CIRCLE
  8
Contour
 62
   7
 39
0.100
  6
CONTINUOUS
 10
37.75700
 20
148.15000
 30
 0
 40
2.50000
  0
CIRCLE
  8
Contour
 62
   7
 39
0.100
  6
CONTINUOUS
 10
37.75700
 20
123.90000
 30
 0
 40
3.00000
  0
CIRCLE
  8
Contour
 62
   7
 39
0.100
  6
CONTINUOUS
 10
37.75700
 20
116.65000
 30
 0
 40
0.87500
  0
ARC
  8
Contour
 62
   7
 39
0.100
  6
CONTINUOUS
 10
55.64000
 20
136.65000
 30
 0
 40
5.55600
 50
0.00000
 51
270.00000
  0
CIRCLE
  8
Contour
 62
   7
 39
0.100
  6
CONTINUOUS
 10
55.64000
 20
136.65000
 30
 0
 40
4.86900
  0
CIRCLE
  8
Contour
 62
   7
 39
0.100
  6
CONTINUOUS
 10
55.64000
 20
148.15000
 30
 0
 40
2.50000
  0
CIRCLE
  8
Contour
 62
   7
 39
0.100
  6
CONTINUOUS
 10
55.64000
 20
123.90000
 30
 0
 40
3.00000
  0
CIRCLE
  8
Contour
 62
   7
 39
0.100
  6
CONTINUOUS
 10
55.64000
 20
116.65000
 30
 0
 40
0.87500
  0
ARC
  8
Contour
 62
   7
 39
0.100
  6
CONTINUOUS
 10
73.52400
 20
136.65000
 30
 0
 40
5.55600
 50
0.00000
 51
270.00000
  0
CIRCLE
  8
Contour
 62
   7
 39
0.100
  6
CONTINUOUS
 10
73.52400
 20
136.65000
 30
 0
 40
4.86900
  0
CIRCLE
  8
Contour
 62
   7
 39
0.100
  6
CONTINUOUS
 10
73.52400
 20
148.15000
 30
 0
 40
2.50000
  0
CIRCLE
  8
Contour
 62
   7
 39
0.100
  6
CONTINUOUS
 10
73.52400
 20
123.90000
 30
 0
 40
3.00000
  0
CIRCLE
  8
Contour
 62
   7
 39
0.100
  6
CONTINUOUS
 10
73.52400
 20
116.65000
 30
 0
 40
0.87500
  0
ARC
  8
Contour
 62
   7
 39
0.100
  6
CONTINUOUS
 10
91.40700
 20
136.65000
 30
 0
 40
5.55600
 50
0.00000
 51
270.00000
  0
CIRCLE
  8
Contour
 62
   7
 39
0.100
  6
CONTINUOUS
 10
91.40700
 20
136.65000
 30
 0
 40
4.86900
  0
CIRCLE
  8
Contour
 62
   7
 39
0.100
  6
CONTINUOUS
 10
91.40700
 20
148.15000
 30
 0
 40
2.50000
  0
CIRCLE
  8
Contour
 62
   7
 39
0.100
  6
CONTINUOUS
 10
91.40700
 20
123.90000
 30
 0
 40
3.00000
  0
CIRCLE
  8
Contour
 62
   7
 39
0.100
  6
CONTINUOUS
 10
91.40700
 20
116.65000
 30
 0
 40
0.87500
  0
ARC
  8
Contour
 62
   7
 39
0.100
  6
CONTINUOUS
 10
109.29000
 20
136.65000
 30
 0
 40
5.55600
 50
0.00000
 51
270.00000
  0
CIRCLE
  8
Contour
 62
   7
 39
0.100
  6
CONTINUOUS
 10
109.29000
 20
136.65000
 30
 0
 40
4.86900
  0
CIRCLE
  8
Contour
 62
   7
 39
0.100
  6
CONTINUOUS
 10
109.29000
 20
148.15000
 30
 0
 40
2.50000
  0
CIRCLE
  8
Contour
 62
   7
 39
0.100
  6
CONTINUOUS
 10
109.29000
 20
123.90000
 30
 0
 40
3.00000
  0
CIRCLE
  8
Contour
 62
   7
 39
0.100
  6
CONTINUOUS
 10
109.29000
 20
116.65000
 30
 0
 40
0.87500
  0
ARC
  8
Contour
 62
   7
 39
0.100
  6
CONTINUOUS
 10
127.17400
 20
136.65000
 30
 0
 40
5.55600
 50
0.00000
 51
270.00000
  0
CIRCLE
  8
Contour
 62
   7
 39
0.100
  6
CONTINUOUS
 10
127.17400
 20
136.65000
 30
 0
 40
4.86900
  0
CIRCLE
  8
Contour
 62
   7
 39
0.100
  6
CONTINUOUS
 10
127.17400
 20
148.15000
 30
 0
 40
2.50000
  0
CIRCLE
  8
Contour
 62
   7
 39
0.100
  6
CONTINUOUS
 10
127.17400
 20
123.90000
 30
 0
 40
3.00000
  0
CIRCLE
  8
Contour
 62
   7
 39
0.100
  6
CONTINUOUS
 10
127.17400
 20
116.65000
 30
 0
 40
0.87500
  0
ARC
  8
Contour
 62
   7
 39
0.100
  6
CONTINUOUS
 10
145.05700
 20
136.65000
 30
 0
 40
5.55600
 50
0.00000
 51
270.00000
  0
CIRCLE
  8
Contour
 62
   7
 39
0.100
  6
CONTINUOUS
 10
145.05700
 20
136.65000
 30
 0
 40
4.86900
  0
CIRCLE
  8
Contour
 62
   7
 39
0.100
  6
CONTINUOUS
 10
145.05700
 20
148.15000
 30
 0
 40
2.50000
  0
CIRCLE
  8
Contour
 62
   7
 39
0.100
  6
CONTINUOUS
 10
145.05700
 20
123.90000
 30
 0
 40
3.00000
  0
CIRCLE
  8
Contour
 62
   7
 39
0.100
  6
CONTINUOUS
 10
145.05700
 20
116.65000
 30
 0
 40
0.87500
  0
ARC
  8
Contour
 62
   7
 39
0.100
  6
CONTINUOUS
 10
162.94000
 20
136.65000
 30
 0
 40
5.55600
 50
0.00000
 51
270.00000
  0
CIRCLE
  8
Contour
 62
   7
 39
0.100
  6
CONTINUOUS
 10
162.94000
 20
136.65000
 30
 0
 40
4.86900
  0
CIRCLE
  8
Contour
 62
   7
 39
0.100
  6
CONTINUOUS
 10
162.94000
 20
148.15000
 30
 0
 40
2.50000
  0
CIRCLE
  8
Contour
 62
   7
 39
0.100
  6
CONTINUOUS
 10
162.94000
 20
123.90000
 30
 0
 40
3.00000
  0
CIRCLE
  8
Contour
 62
   7
 39
0.100
  6
CONTINUOUS
 10
162.94000
 20
116.65000
 30
 0
 40
0.87500
  0
ARC
  8
Contour
 62
   7
 39
0.100
  6
CONTINUOUS
 10
180.82400
 20
136.65000
 30
 0
 40
5.55600
 50
0.00000
 51
270.00000
  0
CIRCLE
  8
Contour
 62
   7
 39
0.100
  6
CONTINUOUS
 10
180.82400
 20
136.65000
 30
 0
 40
4.86900
  0
CIRCLE
  8
Contour
 62
   7
 39
0.100
  6
CONTINUOUS
 10
180.82400
 20
148.15000
 30
 0
 40
2.50000
  0
CIRCLE
  8
Contour
 62
   7
 39
0.100
  6
CONTINUOUS
 10
180.82400
 20
123.90000
 30
 0
 40
3.00000
  0
CIRCLE
  8
Contour
 62
   7
 39
0.100
  6
CONTINUOUS
 10
180.82400
 20
116.65000
 30
 0
 40
0.87500
  0
ARC
  8
Contour
 62
   7
 39
0.100
  6
CONTINUOUS
 10
198.70700
 20
136.65000
 30
 0
 40
5.55600
 50
0.00000
 51
270.00000
  0
CIRCLE
  8
Contour
 62
   7
 39
0.100
  6
CONTINUOUS
 10
198.70700
 20
136.65000
 30
 0
 40
4.86900
  0
CIRCLE
  8
Contour
 62
   7
 39
0.100
  6
CONTINUOUS
 10
198.70700
 20
148.15000
 30
 0
 40
2.50000
  0
CIRCLE
  8
Contour
 62
   7
 39
0.100
  6
CONTINUOUS
 10
198.70700
 20
123.90000
 30
 0
 40
3.00000
  0
CIRCLE
  8
Contour
 62
   7
 39
0.100
  6
CONTINUOUS
 10
198.70700
 20
116.65000
 30
 0
 40
0.87500
  0
ARC
  8
Contour
 62
   7
 39
0.100
  6
CONTINUOUS
 10
216.59000
 20
136.65000
 30
 0
 40
5.55600
 50
0.00000
 51
270.00000
  0
CIRCLE
  8
Contour
 62
   7
 39
0.100
  6
CONTINUOUS
 10
216.59000
 20
136.65000
 30
 0
 40
4.86900
  0
CIRCLE
  8
Contour
 62
   7
 39
0.100
  6
CONTINUOUS
 10
216.59000
 20
148.15000
 30
 0
 40
2.50000
  0
CIRCLE
  8
Contour
 62
   7
 39
0.100
  6
CONTINUOUS
 10
216.59000
 20
123.90000
 30
 0
 40
3.00000
  0
CIRCLE
  8
Contour
 62
   7
 39
0.100
  6
CONTINUOUS
 10
216.59000
 20
116.65000
 30
 0
 40
0.87500
  0
ARC
  8
Contour
 62
   7
 39
0.100
  6
CONTINUOUS
 10
234.47400
 20
136.65000
 30
 0
 40
5.55600
 50
0.00000
 51
270.00000
  0
CIRCLE
  8
Contour
 62
   7
 39
0.100
  6
CONTINUOUS
 10
234.47400
 20
136.65000
 30
 0
 40
4.86900
  0
CIRCLE
  8
Contour
 62
   7
 39
0.100
  6
CONTINUOUS
 10
234.47400
 20
148.15000
 30
 0
 40
2.50000
  0
CIRCLE
  8
Contour
 62
   7
 39
0.100
  6
CONTINUOUS
 10
234.47400
 20
123.90000
 30
 0
 40
3.00000
  0
CIRCLE
  8
Contour
 62
   7
 39
0.100
  6
CONTINUOUS
 10
234.47400
 20
116.65000
 30
 0
 40
0.87500
  0
ARC
  8
Contour
 62
   7
 39
0.100
  6
CONTINUOUS
 10
252.35700
 20
136.65000
 30
 0
 40
5.55600
 50
0.00000
 51
270.00000
  0
CIRCLE
  8
Contour
 62
   7
 39
0.100
  6
CONTINUOUS
 10
252.35700
 20
136.65000
 30
 0
 40
4.86900
  0
CIRCLE
  8
Contour
 62
   7
 39
0.100
  6
CONTINUOUS
 10
252.35700
 20
148.15000
 30
 0
 40
2.50000
  0
CIRCLE
  8
Contour
 62
   7
 39
0.100
  6
CONTINUOUS
 10
252.35700
 20
123.90000
 30
 0
 40
3.00000
  0
CIRCLE
  8
Contour
 62
   7
 39
0.100
  6
CONTINUOUS
 10
252.35700
 20
116.65000
 30
 0
 40
0.87500
  0
ARC
  8
Contour
 62
   7
 39
0.100
  6
CONTINUOUS
 10
270.24000
 20
136.65000
 30
 0
 40
5.55600
 50
0.00000
 51
270.00000
  0
CIRCLE
  8
Contour
 62
   7
 39
0.100
  6
CONTINUOUS
 10
270.24000
 20
136.65000
 30
 0
 40
4.86900
  0
CIRCLE
  8
Contour
 62
   7
 39
0.100
  6
CONTINUOUS
 10
270.24000
 20
148.15000
 30
 0
 40
2.50000
  0
CIRCLE
  8
Contour
 62
   7
 39
0.100
  6
CONTINUOUS
 10
270.24000
 20
123.90000
 30
 0
 40
3.00000
  0
CIRCLE
  8
Contour
 62
   7
 39
0.100
  6
CONTINUOUS
 10
270.24000
 20
116.65000
 30
 0
 40
0.87500
  0
ARC
  8
Contour
 62
   7
 39
0.100
  6
CONTINUOUS
 10
288.12400
 20
28.90000
 30
 0
 40
5.55600
 50
0.00000
 51
270.00000
  0
CIRCLE
  8
Contour
 62
   7
 39
0.100
  6
CONTINUOUS
 10
288.12400
 20
28.90000
 30
 0
 40
4.86900
  0
CIRCLE
  8
Contour
 62
   7
 39
0.100
  6
CONTINUOUS
 10
288.12400
 20
39.65000
 30
 0
 40
2.50000
  0
CIRCLE
  8
Contour
 62
   7
 39
0.100
  6
CONTINUOUS
 10
288.12400
 20
16.15000
 30
 0
 40
3.00000
  0
CIRCLE
  8
Contour
 62
   7
 39
0.100
  6
CONTINUOUS
 10
288.12400
 20
8.90000
 30
 0
 40
0.87500
  0
ARC
  8
Contour
 62
   7
 39
0.100
  6
CONTINUOUS
 10
20.12400
 20
28.90000
 30
 0
 40
5.55600
 50
0.00000
 51
270.00000
  0
CIRCLE
  8
Contour
 62
   7
 39
0.100
  6
CONTINUOUS
 10
20.12400
 20
28.90000
 30
 0
 40
4.86900
  0
CIRCLE
  8
Contour
 62
   7
 39
0.100
  6
CONTINUOUS
 10
20.12400
 20
39.65000
 30
 0
 40
2.50000
  0
CIRCLE
  8
Contour
 62
   7
 39
0.100
  6
CONTINUOUS
 10
20.12400
 20
16.15000
 30
 0
 40
3.00000
  0
CIRCLE
  8
Contour
 62
   7
 39
0.100
  6
CONTINUOUS
 10
20.12400
 20
8.90000
 30
 0
 40
0.87500
  0
ARC
  8
Contour
 62
   7
 39
0.100
  6
CONTINUOUS
 10
37.99000
 20
28.90000
 30
 0
 40
5.55600
 50
0.00000
 51
270.00000
  0
CIRCLE
  8
Contour
 62
   7
 39
0.100
  6
CONTINUOUS
 10
37.99000
 20
28.90000
 30
 0
 40
4.86900
  0
CIRCLE
  8
Contour
 62
   7
 39
0.100
  6
CONTINUOUS
 10
37.99000
 20
39.65000
 30
 0
 40
2.50000
  0
CIRCLE
  8
Contour
 62
   7
 39
0.100
  6
CONTINUOUS
 10
37.99000
 20
16.15000
 30
 0
 40
3.00000
  0
CIRCLE
  8
Contour
 62
   7
 39
0.100
  6
CONTINUOUS
 10
37.99000
 20
8.90000
 30
 0
 40
0.87500
  0
ARC
  8
Contour
 62
   7
 39
0.100
  6
CONTINUOUS
 10
55.85700
 20
28.90000
 30
 0
 40
5.55600
 50
0.00000
 51
270.00000
  0
CIRCLE
  8
Contour
 62
   7
 39
0.100
  6
CONTINUOUS
 10
55.85700
 20
28.90000
 30
 0
 40
4.86900
  0
CIRCLE
  8
Contour
 62
   7
 39
0.100
  6
CONTINUOUS
 10
55.85700
 20
39.65000
 30
 0
 40
2.50000
  0
CIRCLE
  8
Contour
 62
   7
 39
0.100
  6
CONTINUOUS
 10
55.85700
 20
16.15000
 30
 0
 40
3.00000
  0
CIRCLE
  8
Contour
 62
   7
 39
0.100
  6
CONTINUOUS
 10
55.85700
 20
8.90000
 30
 0
 40
0.87500
  0
ARC
  8
Contour
 62
   7
 39
0.100
  6
CONTINUOUS
 10
73.72400
 20
28.90000
 30
 0
 40
5.55600
 50
0.00000
 51
270.00000
  0
CIRCLE
  8
Contour
 62
   7
 39
0.100
  6
CONTINUOUS
 10
73.72400
 20
28.90000
 30
 0
 40
4.86900
  0
CIRCLE
  8
Contour
 62
   7
 39
0.100
  6
CONTINUOUS
 10
73.72400
 20
39.65000
 30
 0
 40
2.50000
  0
CIRCLE
  8
Contour
 62
   7
 39
0.100
  6
CONTINUOUS
 10
73.72400
 20
16.15000
 30
 0
 40
3.00000
  0
CIRCLE
  8
Contour
 62
   7
 39
0.100
  6
CONTINUOUS
 10
73.72400
 20
8.90000
 30
 0
 40
0.87500
  0
ARC
  8
Contour
 62
   7
 39
0.100
  6
CONTINUOUS
 10
91.59000
 20
28.90000
 30
 0
 40
5.55600
 50
0.00000
 51
270.00000
  0
CIRCLE
  8
Contour
 62
   7
 39
0.100
  6
CONTINUOUS
 10
91.59000
 20
28.90000
 30
 0
 40
4.86900
  0
CIRCLE
  8
Contour
 62
   7
 39
0.100
  6
CONTINUOUS
 10
91.59000
 20
39.65000
 30
 0
 40
2.50000
  0
CIRCLE
  8
Contour
 62
   7
 39
0.100
  6
CONTINUOUS
 10
91.59000
 20
16.15000
 30
 0
 40
3.00000
  0
CIRCLE
  8
Contour
 62
   7
 39
0.100
  6
CONTINUOUS
 10
91.59000
 20
8.90000
 30
 0
 40
0.87500
  0
ARC
  8
Contour
 62
   7
 39
0.100
  6
CONTINUOUS
 10
109.45700
 20
28.90000
 30
 0
 40
5.55600
 50
0.00000
 51
270.00000
  0
CIRCLE
  8
Contour
 62
   7
 39
0.100
  6
CONTINUOUS
 10
109.45700
 20
28.90000
 30
 0
 40
4.86900
  0
CIRCLE
  8
Contour
 62
   7
 39
0.100
  6
CONTINUOUS
 10
109.45700
 20
39.65000
 30
 0
 40
2.50000
  0
CIRCLE
  8
Contour
 62
   7
 39
0.100
  6
CONTINUOUS
 10
109.45700
 20
16.15000
 30
 0
 40
3.00000
  0
CIRCLE
  8
Contour
 62
   7
 39
0.100
  6
CONTINUOUS
 10
109.45700
 20
8.90000
 30
 0
 40
0.87500
  0
ARC
  8
Contour
 62
   7
 39
0.100
  6
CONTINUOUS
 10
127.32400
 20
28.90000
 30
 0
 40
5.55600
 50
0.00000
 51
270.00000
  0
CIRCLE
  8
Contour
 62
   7
 39
0.100
  6
CONTINUOUS
 10
127.32400
 20
28.90000
 30
 0
 40
4.86900
  0
CIRCLE
  8
Contour
 62
   7
 39
0.100
  6
CONTINUOUS
 10
127.32400
 20
39.65000
 30
 0
 40
2.50000
  0
CIRCLE
  8
Contour
 62
   7
 39
0.100
  6
CONTINUOUS
 10
127.32400
 20
16.15000
 30
 0
 40
3.00000
  0
CIRCLE
  8
Contour
 62
   7
 39
0.100
  6
CONTINUOUS
 10
127.32400
 20
8.90000
 30
 0
 40
0.87500
  0
ARC
  8
Contour
 62
   7
 39
0.100
  6
CONTINUOUS
 10
145.19000
 20
28.90000
 30
 0
 40
5.55600
 50
0.00000
 51
270.00000
  0
CIRCLE
  8
Contour
 62
   7
 39
0.100
  6
CONTINUOUS
 10
145.19000
 20
28.90000
 30
 0
 40
4.86900
  0
CIRCLE
  8
Contour
 62
   7
 39
0.100
  6
CONTINUOUS
 10
145.19000
 20
39.65000
 30
 0
 40
2.50000
  0
CIRCLE
  8
Contour
 62
   7
 39
0.100
  6
CONTINUOUS
 10
145.19000
 20
16.15000
 30
 0
 40
3.00000
  0
CIRCLE
  8
Contour
 62
   7
 39
0.100
  6
CONTINUOUS
 10
145.19000
 20
8.90000
 30
 0
 40
0.87500
  0
ARC
  8
Contour
 62
   7
 39
0.100
  6
CONTINUOUS
 10
163.05700
 20
28.90000
 30
 0
 40
5.55600
 50
0.00000
 51
270.00000
  0
CIRCLE
  8
Contour
 62
   7
 39
0.100
  6
CONTINUOUS
 10
163.05700
 20
28.90000
 30
 0
 40
4.86900
  0
CIRCLE
  8
Contour
 62
   7
 39
0.100
  6
CONTINUOUS
 10
163.05700
 20
39.65000
 30
 0
 40
2.50000
  0
CIRCLE
  8
Contour
 62
   7
 39
0.100
  6
CONTINUOUS
 10
163.05700
 20
16.15000
 30
 0
 40
3.00000
  0
CIRCLE
  8
Contour
 62
   7
 39
0.100
  6
CONTINUOUS
 10
163.05700
 20
8.90000
 30
 0
 40
0.87500
  0
ARC
  8
Contour
 62
   7
 39
0.100
  6
CONTINUOUS
 10
180.92400
 20
28.90000
 30
 0
 40
5.55600
 50
0.00000
 51
270.00000
  0
CIRCLE
  8
Contour
 62
   7
 39
0.100
  6
CONTINUOUS
 10
180.92400
 20
28.90000
 30
 0
 40
4.86900
  0
CIRCLE
  8
Contour
 62
   7
 39
0.100
  6
CONTINUOUS
 10
180.92400
 20
39.65000
 30
 0
 40
2.50000
  0
CIRCLE
  8
Contour
 62
   7
 39
0.100
  6
CONTINUOUS
 10
180.92400
 20
16.15000
 30
 0
 40
3.00000
  0
CIRCLE
  8
Contour
 62
   7
 39
0.100
  6
CONTINUOUS
 10
180.92400
 20
8.90000
 30
 0
 40
0.87500
  0
ARC
  8
Contour
 62
   7
 39
0.100
  6
CONTINUOUS
 10
198.79000
 20
28.90000
 30
 0
 40
5.55600
 50
0.00000
 51
270.00000
  0
CIRCLE
  8
Contour
 62
   7
 39
0.100
  6
CONTINUOUS
 10
198.79000
 20
28.90000
 30
 0
 40
4.86900
  0
CIRCLE
  8
Contour
 62
   7
 39
0.100
  6
CONTINUOUS
 10
198.79000
 20
39.65000
 30
 0
 40
2.50000
  0
CIRCLE
  8
Contour
 62
   7
 39
0.100
  6
CONTINUOUS
 10
198.79000
 20
16.15000
 30
 0
 40
3.00000
  0
CIRCLE
  8
Contour
 62
   7
 39
0.100
  6
CONTINUOUS
 10
198.79000
 20
8.90000
 30
 0
 40
0.87500
  0
ARC
  8
Contour
 62
   7
 39
0.100
  6
CONTINUOUS
 10
216.65700
 20
28.90000
 30
 0
 40
5.55600
 50
0.00000
 51
270.00000
  0
CIRCLE
  8
Contour
 62
   7
 39
0.100
  6
CONTINUOUS
 10
216.65700
 20
28.90000
 30
 0
 40
4.86900
  0
CIRCLE
  8
Contour
 62
   7
 39
0.100
  6
CONTINUOUS
 10
216.65700
 20
39.65000
 30
 0
 40
2.50000
  0
CIRCLE
  8
Contour
 62
   7
 39
0.100
  6
CONTINUOUS
 10
216.65700
 20
16.15000
 30
 0
 40
3.00000
  0
CIRCLE
  8
Contour
 62
   7
 39
0.100
  6
CONTINUOUS
 10
216.65700
 20
8.90000
 30
 0
 40
0.87500
  0
ARC
  8
Contour
 62
   7
 39
0.100
  6
CONTINUOUS
 10
234.52400
 20
28.90000
 30
 0
 40
5.55600
 50
0.00000
 51
270.00000
  0
CIRCLE
  8
Contour
 62
   7
 39
0.100
  6
CONTINUOUS
 10
234.52400
 20
28.90000
 30
 0
 40
4.86900
  0
CIRCLE
  8
Contour
 62
   7
 39
0.100
  6
CONTINUOUS
 10
234.52400
 20
39.65000
 30
 0
 40
2.50000
  0
CIRCLE
  8
Contour
 62
   7
 39
0.100
  6
CONTINUOUS
 10
234.52400
 20
16.15000
 30
 0
 40
3.00000
  0
CIRCLE
  8
Contour
 62
   7
 39
0.100
  6
CONTINUOUS
 10
234.52400
 20
8.90000
 30
 0
 40
0.87500
  0
ARC
  8
Contour
 62
   7
 39
0.100
  6
CONTINUOUS
 10
252.39000
 20
28.90000
 30
 0
 40
5.55600
 50
0.00000
 51
270.00000
  0
CIRCLE
  8
Contour
 62
   7
 39
0.100
  6
CONTINUOUS
 10
252.39000
 20
28.90000
 30
 0
 40
4.86900
  0
CIRCLE
  8
Contour
 62
   7
 39
0.100
  6
CONTINUOUS
 10
252.39000
 20
39.65000
 30
 0
 40
2.50000
  0
CIRCLE
  8
Contour
 62
   7
 39
0.100
  6
CONTINUOUS
 10
252.39000
 20
16.15000
 30
 0
 40
3.00000
  0
CIRCLE
  8
Contour
 62
   7
 39
0.100
  6
CONTINUOUS
 10
252.39000
 20
8.90000
 30
 0
 40
0.87500
  0
ARC
  8
Contour
 62
   7
 39
0.100
  6
CONTINUOUS
 10
270.25700
 20
28.90000
 30
 0
 40
5.55600
 50
0.00000
 51
270.00000
  0
CIRCLE
  8
Contour
 62
   7
 39
0.100
  6
CONTINUOUS
 10
270.25700
 20
28.90000
 30
 0
 40
4.86900
  0
CIRCLE
  8
Contour
 62
   7
 39
0.100
  6
CONTINUOUS
 10
270.25700
 20
39.65000
 30
 0
 40
2.50000
  0
CIRCLE
  8
Contour
 62
   7
 39
0.100
  6
CONTINUOUS
 10
270.25700
 20
16.15000
 30
 0
 40
3.00000
  0
CIRCLE
  8
Contour
 62
   7
 39
0.100
  6
CONTINUOUS
 10
270.25700
 20
8.90000
 30
 0
 40
0.87500
  0
LINE
  8
Reference_points
 62
   1
 39
0.100
  6
CONTINUOUS
 10
-1.00000
 20
0.00000
 30
 0
 11
1.00000
 21
0.00000
  0
LINE
  8
Reference_points
 62
   1
 39
0.100
  6
CONTINUOUS
 10
0.00000
 20
-1.00000
 30
 0
 11
0.00000
 21
1.00000
  0
LINE
  8
Reference_points
 62
   1
 39
0.100
  6
CONTINUOUS
 10
9.00000
 20
157.00000
 30
 0
 11
11.00000
 21
157.00000
  0
LINE
  8
Reference_points
 62
   1
 39
0.100
  6
CONTINUOUS
 10
10.00000
 20
156.00000
 30
 0
 11
10.00000
 21
158.00000
  0
LINE
  8
Reference_points
 62
   1
 39
0.100
  6
CONTINUOUS
 10
297.00000
 20
157.00000
 30
 0
 11
299.00000
 21
157.00000
  0
LINE
  8
Reference_points
 62
   1
 39
0.100
  6
CONTINUOUS
 10
298.00000
 20
156.00000
 30
 0
 11
298.00000
 21
158.00000
  0
LINE
  8
Reference_points
 62
   1
 39
0.100
  6
CONTINUOUS
 10
9.00000
 20
10.00000
 30
 0
 11
11.00000
 21
10.00000
  0
LINE
  8
Reference_points
 62
   1
 39
0.100
  6
CONTINUOUS
 10
10.00000
 20
9.00000
 30
 0
 11
10.00000
 21
11.00000
  0
LINE
  8
Reference_points
 62
   1
 39
0.100
  6
CONTINUOUS
 10
297.00000
 20
10.00000
 30
 0
 11
299.00000
 21
10.00000
  0
LINE
  8
Reference_points
 62
   1
 39
0.100
  6
CONTINUOUS
 10
298.00000
 20
9.00000
 30
 0
 11
298.00000
 21
11.00000
  0
LINE
  8
Reference_points
 62
   1
 39
0.100
  6
CONTINUOUS
 10
153.00000
 20
83.50000
 30
 0
 11
155.00000
 21
83.50000
  0
LINE
  8
Reference_points
 62
   1
 39
0.100
  6
CONTINUOUS
 10
154.00000
 20
82.50000
 30
 0
 11
154.00000
 21
84.50000
  0
LINE
  8
Reference_points
 62
   1
 39
0.100
  6
CONTINUOUS
 10
99.00000
 20
98.00000
 30
 0
 11
101.00000
 21
98.00000
  0
LINE
  8
Reference_points
 62
   1
 39
0.100
  6
CONTINUOUS
 10
100.00000
 20
97.00000
 30
 0
 11
100.00000
 21
99.00000
  0
LINE
  8
Reference_points
 62
   1
 39
0.100
  6
CONTINUOUS
 10
99.00000
 20
69.00000
 30
 0
 11
101.00000
 21
69.00000
  0
LINE
  8
Reference_points
 62
   1
 39
0.100
  6
CONTINUOUS
 10
100.00000
 20
68.00000
 30
 0
 11
100.00000
 21
70.00000
  0
LINE
  8
Reference_points
 62
   1
 39
0.100
  6
CONTINUOUS
 10
99.00000
 20
83.50000
 30
 0
 11
101.00000
 21
83.50000
  0
LINE
  8
Reference_points
 62
   1
 39
0.100
  6
CONTINUOUS
 10
100.00000
 20
82.50000
 30
 0
 11
100.00000
 21
84.50000
  0
LINE
  8
Reference_points
 62
   1
 39
0.100
  6
CONTINUOUS
 10
207.00000
 20
98.00000
 30
 0
 11
209.00000
 21
98.00000
  0
LINE
  8
Reference_points
 62
   1
 39
0.100
  6
CONTINUOUS
 10
208.00000
 20
97.00000
 30
 0
 11
208.00000
 21
99.00000
  0
LINE
  8
Reference_points
 62
   1
 39
0.100
  6
CONTINUOUS
 10
207.00000
 20
69.00000
 30
 0
 11
209.00000
 21
69.00000
  0
LINE
  8
Reference_points
 62
   1
 39
0.100
  6
CONTINUOUS
 10
208.00000
 20
68.00000
 30
 0
 11
208.00000
 21
70.00000
  0
LINE
  8
Reference_points
 62
   1
 39
0.100
  6
CONTINUOUS
 10
207.00000
 20
83.50000
 30
 0
 11
209.00000
 21
83.50000
  0
LINE
  8
Reference_points
 62
   1
 39
0.100
  6
CONTINUOUS
 10
208.00000
 20
82.50000
 30
 0
 11
208.00000
 21
84.50000
  0
LINE
  8
Reference_points
 62
   1
 39
0.100
  6
CONTINUOUS
 10
212.75000
 20
83.50000
 30
 0
 11
214.75000
 21
83.50000
  0
LINE
  8
Reference_points
 62
   1
 39
0.100
  6
CONTINUOUS
 10
213.75000
 20
82.50000
 30
 0
 11
213.75000
 21
84.50000
  0
LINE
  8
Reference_points
 62
   1
 39
0.100
  6
CONTINUOUS
 10
287.12400
 20
136.65000
 30
 0
 11
289.12400
 21
136.65000
  0
LINE
  8
Reference_points
 62
   1
 39
0.100
  6
CONTINUOUS
 10
288.12400
 20
135.65000
 30
 0
 11
288.12400
 21
137.65000
  0
LINE
  8
Reference_points
 62
   1
 39
0.100
  6
CONTINUOUS
 10
287.12400
 20
148.15000
 30
 0
 11
289.12400
 21
148.15000
  0
LINE
  8
Reference_points
 62
   1
 39
0.100
  6
CONTINUOUS
 10
288.12400
 20
147.15000
 30
 0
 11
288.12400
 21
149.15000
  0
LINE
  8
Reference_points
 62
   1
 39
0.100
  6
CONTINUOUS
 10
287.12400
 20
123.90000
 30
 0
 11
289.12400
 21
123.90000
  0
LINE
  8
Reference_points
 62
   1
 39
0.100
  6
CONTINUOUS
 10
288.12400
 20
122.90000
 30
 0
 11
288.12400
 21
124.90000
  0
LINE
  8
Reference_points
 62
   1
 39
0.100
  6
CONTINUOUS
 10
284.12400
 20
156.40000
 30
 0
 11
286.12400
 21
156.40000
  0
LINE
  8
Reference_points
 62
   1
 39
0.100
  6
CONTINUOUS
 10
285.12400
 20
155.40000
 30
 0
 11
285.12400
 21
157.40000
  0
LINE
  8
Reference_points
 62
   1
 39
0.100
  6
CONTINUOUS
 10
287.12400
 20
116.65000
 30
 0
 11
289.12400
 21
116.65000
  0
LINE
  8
Reference_points
 62
   1
 39
0.100
  6
CONTINUOUS
 10
288.12400
 20
115.65000
 30
 0
 11
288.12400
 21
117.65000
  0
LINE
  8
Reference_points
 62
   1
 39
0.100
  6
CONTINUOUS
 10
18.87400
 20
136.65000
 30
 0
 11
20.87400
 21
136.65000
  0
LINE
  8
Reference_points
 62
   1
 39
0.100
  6
CONTINUOUS
 10
19.87400
 20
135.65000
 30
 0
 11
19.87400
 21
137.65000
  0
LINE
  8
Reference_points
 62
   1
 39
0.100
  6
CONTINUOUS
 10
18.87400
 20
148.15000
 30
 0
 11
20.87400
 21
148.15000
  0
LINE
  8
Reference_points
 62
   1
 39
0.100
  6
CONTINUOUS
 10
19.87400
 20
147.15000
 30
 0
 11
19.87400
 21
149.15000
  0
LINE
  8
Reference_points
 62
   1
 39
0.100
  6
CONTINUOUS
 10
18.87400
 20
123.90000
 30
 0
 11
20.87400
 21
123.90000
  0
LINE
  8
Reference_points
 62
   1
 39
0.100
  6
CONTINUOUS
 10
19.87400
 20
122.90000
 30
 0
 11
19.87400
 21
124.90000
  0
LINE
  8
Reference_points
 62
   1
 39
0.100
  6
CONTINUOUS
 10
17.87400
 20
156.40000
 30
 0
 11
19.87400
 21
156.40000
  0
LINE
  8
Reference_points
 62
   1
 39
0.100
  6
CONTINUOUS
 10
18.87400
 20
155.40000
 30
 0
 11
18.87400
 21
157.40000
  0
LINE
  8
Reference_points
 62
   1
 39
0.100
  6
CONTINUOUS
 10
18.87400
 20
116.65000
 30
 0
 11
20.87400
 21
116.65000
  0
LINE
  8
Reference_points
 62
   1
 39
0.100
  6
CONTINUOUS
 10
19.87400
 20
115.65000
 30
 0
 11
19.87400
 21
117.65000
  0
LINE
  8
Reference_points
 62
   1
 39
0.100
  6
CONTINUOUS
 10
36.75700
 20
136.65000
 30
 0
 11
38.75700
 21
136.65000
  0
LINE
  8
Reference_points
 62
   1
 39
0.100
  6
CONTINUOUS
 10
37.75700
 20
135.65000
 30
 0
 11
37.75700
 21
137.65000
  0
LINE
  8
Reference_points
 62
   1
 39
0.100
  6
CONTINUOUS
 10
36.75700
 20
148.15000
 30
 0
 11
38.75700
 21
148.15000
  0
LINE
  8
Reference_points
 62
   1
 39
0.100
  6
CONTINUOUS
 10
37.75700
 20
147.15000
 30
 0
 11
37.75700
 21
149.15000
  0
LINE
  8
Reference_points
 62
   1
 39
0.100
  6
CONTINUOUS
 10
36.75700
 20
123.90000
 30
 0
 11
38.75700
 21
123.90000
  0
LINE
  8
Reference_points
 62
   1
 39
0.100
  6
CONTINUOUS
 10
37.75700
 20
122.90000
 30
 0
 11
37.75700
 21
124.90000
  0
LINE
  8
Reference_points
 62
   1
 39
0.100
  6
CONTINUOUS
 10
35.75700
 20
156.40000
 30
 0
 11
37.75700
 21
156.40000
  0
LINE
  8
Reference_points
 62
   1
 39
0.100
  6
CONTINUOUS
 10
36.75700
 20
155.40000
 30
 0
 11
36.75700
 21
157.40000
  0
LINE
  8
Reference_points
 62
   1
 39
0.100
  6
CONTINUOUS
 10
36.75700
 20
116.65000
 30
 0
 11
38.75700
 21
116.65000
  0
LINE
  8
Reference_points
 62
   1
 39
0.100
  6
CONTINUOUS
 10
37.75700
 20
115.65000
 30
 0
 11
37.75700
 21
117.65000
  0
LINE
  8
Reference_points
 62
   1
 39
0.100
  6
CONTINUOUS
 10
54.64000
 20
136.65000
 30
 0
 11
56.64000
 21
136.65000
  0
LINE
  8
Reference_points
 62
   1
 39
0.100
  6
CONTINUOUS
 10
55.64000
 20
135.65000
 30
 0
 11
55.64000
 21
137.65000
  0
LINE
  8
Reference_points
 62
   1
 39
0.100
  6
CONTINUOUS
 10
54.64000
 20
148.15000
 30
 0
 11
56.64000
 21
148.15000
  0
LINE
  8
Reference_points
 62
   1
 39
0.100
  6
CONTINUOUS
 10
55.64000
 20
147.15000
 30
 0
 11
55.64000
 21
149.15000
  0
LINE
  8
Reference_points
 62
   1
 39
0.100
  6
CONTINUOUS
 10
54.64000
 20
123.90000
 30
 0
 11
56.64000
 21
123.90000
  0
LINE
  8
Reference_points
 62
   1
 39
0.100
  6
CONTINUOUS
 10
55.64000
 20
122.90000
 30
 0
 11
55.64000
 21
124.90000
  0
LINE
  8
Reference_points
 62
   1
 39
0.100
  6
CONTINUOUS
 10
53.64000
 20
156.40000
 30
 0
 11
55.64000
 21
156.40000
  0
LINE
  8
Reference_points
 62
   1
 39
0.100
  6
CONTINUOUS
 10
54.64000
 20
155.40000
 30
 0
 11
54.64000
 21
157.40000
  0
LINE
  8
Reference_points
 62
   1
 39
0.100
  6
CONTINUOUS
 10
54.64000
 20
116.65000
 30
 0
 11
56.64000
 21
116.65000
  0
LINE
  8
Reference_points
 62
   1
 39
0.100
  6
CONTINUOUS
 10
55.64000
 20
115.65000
 30
 0
 11
55.64000
 21
117.65000
  0
LINE
  8
Reference_points
 62
   1
 39
0.100
  6
CONTINUOUS
 10
72.52400
 20
136.65000
 30
 0
 11
74.52400
 21
136.65000
  0
LINE
  8
Reference_points
 62
   1
 39
0.100
  6
CONTINUOUS
 10
73.52400
 20
135.65000
 30
 0
 11
73.52400
 21
137.65000
  0
LINE
  8
Reference_points
 62
   1
 39
0.100
  6
CONTINUOUS
 10
72.52400
 20
148.15000
 30
 0
 11
74.52400
 21
148.15000
  0
LINE
  8
Reference_points
 62
   1
 39
0.100
  6
CONTINUOUS
 10
73.52400
 20
147.15000
 30
 0
 11
73.52400
 21
149.15000
  0
LINE
  8
Reference_points
 62
   1
 39
0.100
  6
CONTINUOUS
 10
72.52400
 20
123.90000
 30
 0
 11
74.52400
 21
123.90000
  0
LINE
  8
Reference_points
 62
   1
 39
0.100
  6
CONTINUOUS
 10
73.52400
 20
122.90000
 30
 0
 11
73.52400
 21
124.90000
  0
LINE
  8
Reference_points
 62
   1
 39
0.100
  6
CONTINUOUS
 10
71.52400
 20
156.40000
 30
 0
 11
73.52400
 21
156.40000
  0
LINE
  8
Reference_points
 62
   1
 39
0.100
  6
CONTINUOUS
 10
72.52400
 20
155.40000
 30
 0
 11
72.52400
 21
157.40000
  0
LINE
  8
Reference_points
 62
   1
 39
0.100
  6
CONTINUOUS
 10
72.52400
 20
116.65000
 30
 0
 11
74.52400
 21
116.65000
  0
LINE
  8
Reference_points
 62
   1
 39
0.100
  6
CONTINUOUS
 10
73.52400
 20
115.65000
 30
 0
 11
73.52400
 21
117.65000
  0
LINE
  8
Reference_points
 62
   1
 39
0.100
  6
CONTINUOUS
 10
90.40700
 20
136.65000
 30
 0
 11
92.40700
 21
136.65000
  0
LINE
  8
Reference_points
 62
   1
 39
0.100
  6
CONTINUOUS
 10
91.40700
 20
135.65000
 30
 0
 11
91.40700
 21
137.65000
  0
LINE
  8
Reference_points
 62
   1
 39
0.100
  6
CONTINUOUS
 10
90.40700
 20
148.15000
 30
 0
 11
92.40700
 21
148.15000
  0
LINE
  8
Reference_points
 62
   1
 39
0.100
  6
CONTINUOUS
 10
91.40700
 20
147.15000
 30
 0
 11
91.40700
 21
149.15000
  0
LINE
  8
Reference_points
 62
   1
 39
0.100
  6
CONTINUOUS
 10
90.40700
 20
123.90000
 30
 0
 11
92.40700
 21
123.90000
  0
LINE
  8
Reference_points
 62
   1
 39
0.100
  6
CONTINUOUS
 10
91.40700
 20
122.90000
 30
 0
 11
91.40700
 21
124.90000
  0
LINE
  8
Reference_points
 62
   1
 39
0.100
  6
CONTINUOUS
 10
89.40700
 20
156.40000
 30
 0
 11
91.40700
 21
156.40000
  0
LINE
  8
Reference_points
 62
   1
 39
0.100
  6
CONTINUOUS
 10
90.40700
 20
155.40000
 30
 0
 11
90.40700
 21
157.40000
  0
LINE
  8
Reference_points
 62
   1
 39
0.100
  6
CONTINUOUS
 10
90.40700
 20
116.65000
 30
 0
 11
92.40700
 21
116.65000
  0
LINE
  8
Reference_points
 62
   1
 39
0.100
  6
CONTINUOUS
 10
91.40700
 20
115.65000
 30
 0
 11
91.40700
 21
117.65000
  0
LINE
  8
Reference_points
 62
   1
 39
0.100
  6
CONTINUOUS
 10
108.29000
 20
136.65000
 30
 0
 11
110.29000
 21
136.65000
  0
LINE
  8
Reference_points
 62
   1
 39
0.100
  6
CONTINUOUS
 10
109.29000
 20
135.65000
 30
 0
 11
109.29000
 21
137.65000
  0
LINE
  8
Reference_points
 62
   1
 39
0.100
  6
CONTINUOUS
 10
108.29000
 20
148.15000
 30
 0
 11
110.29000
 21
148.15000
  0
LINE
  8
Reference_points
 62
   1
 39
0.100
  6
CONTINUOUS
 10
109.29000
 20
147.15000
 30
 0
 11
109.29000
 21
149.15000
  0
LINE
  8
Reference_points
 62
   1
 39
0.100
  6
CONTINUOUS
 10
108.29000
 20
123.90000
 30
 0
 11
110.29000
 21
123.90000
  0
LINE
  8
Reference_points
 62
   1
 39
0.100
  6
CONTINUOUS
 10
109.29000
 20
122.90000
 30
 0
 11
109.29000
 21
124.90000
  0
LINE
  8
Reference_points
 62
   1
 39
0.100
  6
CONTINUOUS
 10
107.29000
 20
156.40000
 30
 0
 11
109.29000
 21
156.40000
  0
LINE
  8
Reference_points
 62
   1
 39
0.100
  6
CONTINUOUS
 10
108.29000
 20
155.40000
 30
 0
 11
108.29000
 21
157.40000
  0
LINE
  8
Reference_points
 62
   1
 39
0.100
  6
CONTINUOUS
 10
108.29000
 20
116.65000
 30
 0
 11
110.29000
 21
116.65000
  0
LINE
  8
Reference_points
 62
   1
 39
0.100
  6
CONTINUOUS
 10
109.29000
 20
115.65000
 30
 0
 11
109.29000
 21
117.65000
  0
LINE
  8
Reference_points
 62
   1
 39
0.100
  6
CONTINUOUS
 10
126.17400
 20
136.65000
 30
 0
 11
128.17400
 21
136.65000
  0
LINE
  8
Reference_points
 62
   1
 39
0.100
  6
CONTINUOUS
 10
127.17400
 20
135.65000
 30
 0
 11
127.17400
 21
137.65000
  0
LINE
  8
Reference_points
 62
   1
 39
0.100
  6
CONTINUOUS
 10
126.17400
 20
148.15000
 30
 0
 11
128.17400
 21
148.15000
  0
LINE
  8
Reference_points
 62
   1
 39
0.100
  6
CONTINUOUS
 10
127.17400
 20
147.15000
 30
 0
 11
127.17400
 21
149.15000
  0
LINE
  8
Reference_points
 62
   1
 39
0.100
  6
CONTINUOUS
 10
126.17400
 20
123.90000
 30
 0
 11
128.17400
 21
123.90000
  0
LINE
  8
Reference_points
 62
   1
 39
0.100
  6
CONTINUOUS
 10
127.17400
 20
122.90000
 30
 0
 11
127.17400
 21
124.90000
  0
LINE
  8
Reference_points
 62
   1
 39
0.100
  6
CONTINUOUS
 10
125.17400
 20
156.40000
 30
 0
 11
127.17400
 21
156.40000
  0
LINE
  8
Reference_points
 62
   1
 39
0.100
  6
CONTINUOUS
 10
126.17400
 20
155.40000
 30
 0
 11
126.17400
 21
157.40000
  0
LINE
  8
Reference_points
 62
   1
 39
0.100
  6
CONTINUOUS
 10
126.17400
 20
116.65000
 30
 0
 11
128.17400
 21
116.65000
  0
LINE
  8
Reference_points
 62
   1
 39
0.100
  6
CONTINUOUS
 10
127.17400
 20
115.65000
 30
 0
 11
127.17400
 21
117.65000
  0
LINE
  8
Reference_points
 62
   1
 39
0.100
  6
CONTINUOUS
 10
144.05700
 20
136.65000
 30
 0
 11
146.05700
 21
136.65000
  0
LINE
  8
Reference_points
 62
   1
 39
0.100
  6
CONTINUOUS
 10
145.05700
 20
135.65000
 30
 0
 11
145.05700
 21
137.65000
  0
LINE
  8
Reference_points
 62
   1
 39
0.100
  6
CONTINUOUS
 10
144.05700
 20
148.15000
 30
 0
 11
146.05700
 21
148.15000
  0
LINE
  8
Reference_points
 62
   1
 39
0.100
  6
CONTINUOUS
 10
145.05700
 20
147.15000
 30
 0
 11
145.05700
 21
149.15000
  0
LINE
  8
Reference_points
 62
   1
 39
0.100
  6
CONTINUOUS
 10
144.05700
 20
123.90000
 30
 0
 11
146.05700
 21
123.90000
  0
LINE
  8
Reference_points
 62
   1
 39
0.100
  6
CONTINUOUS
 10
145.05700
 20
122.90000
 30
 0
 11
145.05700
 21
124.90000
  0
LINE
  8
Reference_points
 62
   1
 39
0.100
  6
CONTINUOUS
 10
143.05700
 20
156.40000
 30
 0
 11
145.05700
 21
156.40000
  0
LINE
  8
Reference_points
 62
   1
 39
0.100
  6
CONTINUOUS
 10
144.05700
 20
155.40000
 30
 0
 11
144.05700
 21
157.40000
  0
LINE
  8
Reference_points
 62
   1
 39
0.100
  6
CONTINUOUS
 10
144.05700
 20
116.65000
 30
 0
 11
146.05700
 21
116.65000
  0
LINE
  8
Reference_points
 62
   1
 39
0.100
  6
CONTINUOUS
 10
145.05700
 20
115.65000
 30
 0
 11
145.05700
 21
117.65000
  0
LINE
  8
Reference_points
 62
   1
 39
0.100
  6
CONTINUOUS
 10
161.94000
 20
136.65000
 30
 0
 11
163.94000
 21
136.65000
  0
LINE
  8
Reference_points
 62
   1
 39
0.100
  6
CONTINUOUS
 10
162.94000
 20
135.65000
 30
 0
 11
162.94000
 21
137.65000
  0
LINE
  8
Reference_points
 62
   1
 39
0.100
  6
CONTINUOUS
 10
161.94000
 20
148.15000
 30
 0
 11
163.94000
 21
148.15000
  0
LINE
  8
Reference_points
 62
   1
 39
0.100
  6
CONTINUOUS
 10
162.94000
 20
147.15000
 30
 0
 11
162.94000
 21
149.15000
  0
LINE
  8
Reference_points
 62
   1
 39
0.100
  6
CONTINUOUS
 10
161.94000
 20
123.90000
 30
 0
 11
163.94000
 21
123.90000
  0
LINE
  8
Reference_points
 62
   1
 39
0.100
  6
CONTINUOUS
 10
162.94000
 20
122.90000
 30
 0
 11
162.94000
 21
124.90000
  0
LINE
  8
Reference_points
 62
   1
 39
0.100
  6
CONTINUOUS
 10
160.94000
 20
156.40000
 30
 0
 11
162.94000
 21
156.40000
  0
LINE
  8
Reference_points
 62
   1
 39
0.100
  6
CONTINUOUS
 10
161.94000
 20
155.40000
 30
 0
 11
161.94000
 21
157.40000
  0
LINE
  8
Reference_points
 62
   1
 39
0.100
  6
CONTINUOUS
 10
161.94000
 20
116.65000
 30
 0
 11
163.94000
 21
116.65000
  0
LINE
  8
Reference_points
 62
   1
 39
0.100
  6
CONTINUOUS
 10
162.94000
 20
115.65000
 30
 0
 11
162.94000
 21
117.65000
  0
LINE
  8
Reference_points
 62
   1
 39
0.100
  6
CONTINUOUS
 10
179.82400
 20
136.65000
 30
 0
 11
181.82400
 21
136.65000
  0
LINE
  8
Reference_points
 62
   1
 39
0.100
  6
CONTINUOUS
 10
180.82400
 20
135.65000
 30
 0
 11
180.82400
 21
137.65000
  0
LINE
  8
Reference_points
 62
   1
 39
0.100
  6
CONTINUOUS
 10
179.82400
 20
148.15000
 30
 0
 11
181.82400
 21
148.15000
  0
LINE
  8
Reference_points
 62
   1
 39
0.100
  6
CONTINUOUS
 10
180.82400
 20
147.15000
 30
 0
 11
180.82400
 21
149.15000
  0
LINE
  8
Reference_points
 62
   1
 39
0.100
  6
CONTINUOUS
 10
179.82400
 20
123.90000
 30
 0
 11
181.82400
 21
123.90000
  0
LINE
  8
Reference_points
 62
   1
 39
0.100
  6
CONTINUOUS
 10
180.82400
 20
122.90000
 30
 0
 11
180.82400
 21
124.90000
  0
LINE
  8
Reference_points
 62
   1
 39
0.100
  6
CONTINUOUS
 10
176.82400
 20
156.40000
 30
 0
 11
178.82400
 21
156.40000
  0
LINE
  8
Reference_points
 62
   1
 39
0.100
  6
CONTINUOUS
 10
177.82400
 20
155.40000
 30
 0
 11
177.82400
 21
157.40000
  0
LINE
  8
Reference_points
 62
   1
 39
0.100
  6
CONTINUOUS
 10
179.82400
 20
116.65000
 30
 0
 11
181.82400
 21
116.65000
  0
LINE
  8
Reference_points
 62
   1
 39
0.100
  6
CONTINUOUS
 10
180.82400
 20
115.65000
 30
 0
 11
180.82400
 21
117.65000
  0
LINE
  8
Reference_points
 62
   1
 39
0.100
  6
CONTINUOUS
 10
197.70700
 20
136.65000
 30
 0
 11
199.70700
 21
136.65000
  0
LINE
  8
Reference_points
 62
   1
 39
0.100
  6
CONTINUOUS
 10
198.70700
 20
135.65000
 30
 0
 11
198.70700
 21
137.65000
  0
LINE
  8
Reference_points
 62
   1
 39
0.100
  6
CONTINUOUS
 10
197.70700
 20
148.15000
 30
 0
 11
199.70700
 21
148.15000
  0
LINE
  8
Reference_points
 62
   1
 39
0.100
  6
CONTINUOUS
 10
198.70700
 20
147.15000
 30
 0
 11
198.70700
 21
149.15000
  0
LINE
  8
Reference_points
 62
   1
 39
0.100
  6
CONTINUOUS
 10
197.70700
 20
123.90000
 30
 0
 11
199.70700
 21
123.90000
  0
LINE
  8
Reference_points
 62
   1
 39
0.100
  6
CONTINUOUS
 10
198.70700
 20
122.90000
 30
 0
 11
198.70700
 21
124.90000
  0
LINE
  8
Reference_points
 62
   1
 39
0.100
  6
CONTINUOUS
 10
194.70700
 20
156.40000
 30
 0
 11
196.70700
 21
156.40000
  0
LINE
  8
Reference_points
 62
   1
 39
0.100
  6
CONTINUOUS
 10
195.70700
 20
155.40000
 30
 0
 11
195.70700
 21
157.40000
  0
LINE
  8
Reference_points
 62
   1
 39
0.100
  6
CONTINUOUS
 10
197.70700
 20
116.65000
 30
 0
 11
199.70700
 21
116.65000
  0
LINE
  8
Reference_points
 62
   1
 39
0.100
  6
CONTINUOUS
 10
198.70700
 20
115.65000
 30
 0
 11
198.70700
 21
117.65000
  0
LINE
  8
Reference_points
 62
   1
 39
0.100
  6
CONTINUOUS
 10
215.59000
 20
136.65000
 30
 0
 11
217.59000
 21
136.65000
  0
LINE
  8
Reference_points
 62
   1
 39
0.100
  6
CONTINUOUS
 10
216.59000
 20
135.65000
 30
 0
 11
216.59000
 21
137.65000
  0
LINE
  8
Reference_points
 62
   1
 39
0.100
  6
CONTINUOUS
 10
215.59000
 20
148.15000
 30
 0
 11
217.59000
 21
148.15000
  0
LINE
  8
Reference_points
 62
   1
 39
0.100
  6
CONTINUOUS
 10
216.59000
 20
147.15000
 30
 0
 11
216.59000
 21
149.15000
  0
LINE
  8
Reference_points
 62
   1
 39
0.100
  6
CONTINUOUS
 10
215.59000
 20
123.90000
 30
 0
 11
217.59000
 21
123.90000
  0
LINE
  8
Reference_points
 62
   1
 39
0.100
  6
CONTINUOUS
 10
216.59000
 20
122.90000
 30
 0
 11
216.59000
 21
124.90000
  0
LINE
  8
Reference_points
 62
   1
 39
0.100
  6
CONTINUOUS
 10
212.84000
 20
156.40000
 30
 0
 11
214.84000
 21
156.40000
  0
LINE
  8
Reference_points
 62
   1
 39
0.100
  6
CONTINUOUS
 10
213.84000
 20
155.40000
 30
 0
 11
213.84000
 21
157.40000
  0
LINE
  8
Reference_points
 62
   1
 39
0.100
  6
CONTINUOUS
 10
215.59000
 20
116.65000
 30
 0
 11
217.59000
 21
116.65000
  0
LINE
  8
Reference_points
 62
   1
 39
0.100
  6
CONTINUOUS
 10
216.59000
 20
115.65000
 30
 0
 11
216.59000
 21
117.65000
  0
LINE
  8
Reference_points
 62
   1
 39
0.100
  6
CONTINUOUS
 10
233.47400
 20
136.65000
 30
 0
 11
235.47400
 21
136.65000
  0
LINE
  8
Reference_points
 62
   1
 39
0.100
  6
CONTINUOUS
 10
234.47400
 20
135.65000
 30
 0
 11
234.47400
 21
137.65000
  0
LINE
  8
Reference_points
 62
   1
 39
0.100
  6
CONTINUOUS
 10
233.47400
 20
148.15000
 30
 0
 11
235.47400
 21
148.15000
  0
LINE
  8
Reference_points
 62
   1
 39
0.100
  6
CONTINUOUS
 10
234.47400
 20
147.15000
 30
 0
 11
234.47400
 21
149.15000
  0
LINE
  8
Reference_points
 62
   1
 39
0.100
  6
CONTINUOUS
 10
233.47400
 20
123.90000
 30
 0
 11
235.47400
 21
123.90000
  0
LINE
  8
Reference_points
 62
   1
 39
0.100
  6
CONTINUOUS
 10
234.47400
 20
122.90000
 30
 0
 11
234.47400
 21
124.90000
  0
LINE
  8
Reference_points
 62
   1
 39
0.100
  6
CONTINUOUS
 10
230.47400
 20
156.40000
 30
 0
 11
232.47400
 21
156.40000
  0
LINE
  8
Reference_points
 62
   1
 39
0.100
  6
CONTINUOUS
 10
231.47400
 20
155.40000
 30
 0
 11
231.47400
 21
157.40000
  0
LINE
  8
Reference_points
 62
   1
 39
0.100
  6
CONTINUOUS
 10
233.47400
 20
116.65000
 30
 0
 11
235.47400
 21
116.65000
  0
LINE
  8
Reference_points
 62
   1
 39
0.100
  6
CONTINUOUS
 10
234.47400
 20
115.65000
 30
 0
 11
234.47400
 21
117.65000
  0
LINE
  8
Reference_points
 62
   1
 39
0.100
  6
CONTINUOUS
 10
251.35700
 20
136.65000
 30
 0
 11
253.35700
 21
136.65000
  0
LINE
  8
Reference_points
 62
   1
 39
0.100
  6
CONTINUOUS
 10
252.35700
 20
135.65000
 30
 0
 11
252.35700
 21
137.65000
  0
LINE
  8
Reference_points
 62
   1
 39
0.100
  6
CONTINUOUS
 10
251.35700
 20
148.15000
 30
 0
 11
253.35700
 21
148.15000
  0
LINE
  8
Reference_points
 62
   1
 39
0.100
  6
CONTINUOUS
 10
252.35700
 20
147.15000
 30
 0
 11
252.35700
 21
149.15000
  0
LINE
  8
Reference_points
 62
   1
 39
0.100
  6
CONTINUOUS
 10
251.35700
 20
123.90000
 30
 0
 11
253.35700
 21
123.90000
  0
LINE
  8
Reference_points
 62
   1
 39
0.100
  6
CONTINUOUS
 10
252.35700
 20
122.90000
 30
 0
 11
252.35700
 21
124.90000
  0
LINE
  8
Reference_points
 62
   1
 39
0.100
  6
CONTINUOUS
 10
248.35700
 20
156.40000
 30
 0
 11
250.35700
 21
156.40000
  0
LINE
  8
Reference_points
 62
   1
 39
0.100
  6
CONTINUOUS
 10
249.35700
 20
155.40000
 30
 0
 11
249.35700
 21
157.40000
  0
LINE
  8
Reference_points
 62
   1
 39
0.100
  6
CONTINUOUS
 10
251.35700
 20
116.65000
 30
 0
 11
253.35700
 21
116.65000
  0
LINE
  8
Reference_points
 62
   1
 39
0.100
  6
CONTINUOUS
 10
252.35700
 20
115.65000
 30
 0
 11
252.35700
 21
117.65000
  0
LINE
  8
Reference_points
 62
   1
 39
0.100
  6
CONTINUOUS
 10
269.24000
 20
136.65000
 30
 0
 11
271.24000
 21
136.65000
  0
LINE
  8
Reference_points
 62
   1
 39
0.100
  6
CONTINUOUS
 10
270.24000
 20
135.65000
 30
 0
 11
270.24000
 21
137.65000
  0
LINE
  8
Reference_points
 62
   1
 39
0.100
  6
CONTINUOUS
 10
269.24000
 20
148.15000
 30
 0
 11
271.24000
 21
148.15000
  0
LINE
  8
Reference_points
 62
   1
 39
0.100
  6
CONTINUOUS
 10
270.24000
 20
147.15000
 30
 0
 11
270.24000
 21
149.15000
  0
LINE
  8
Reference_points
 62
   1
 39
0.100
  6
CONTINUOUS
 10
269.24000
 20
123.90000
 30
 0
 11
271.24000
 21
123.90000
  0
LINE
  8
Reference_points
 62
   1
 39
0.100
  6
CONTINUOUS
 10
270.24000
 20
122.90000
 30
 0
 11
270.24000
 21
124.90000
  0
LINE
  8
Reference_points
 62
   1
 39
0.100
  6
CONTINUOUS
 10
266.24000
 20
156.40000
 30
 0
 11
268.24000
 21
156.40000
  0
LINE
  8
Reference_points
 62
   1
 39
0.100
  6
CONTINUOUS
 10
267.24000
 20
155.40000
 30
 0
 11
267.24000
 21
157.40000
  0
LINE
  8
Reference_points
 62
   1
 39
0.100
  6
CONTINUOUS
 10
269.24000
 20
116.65000
 30
 0
 11
271.24000
 21
116.65000
  0
LINE
  8
Reference_points
 62
   1
 39
0.100
  6
CONTINUOUS
 10
270.24000
 20
115.65000
 30
 0
 11
270.24000
 21
117.65000
  0
LINE
  8
Reference_points
 62
   1
 39
0.100
  6
CONTINUOUS
 10
287.12400
 20
28.90000
 30
 0
 11
289.12400
 21
28.90000
  0
LINE
  8
Reference_points
 62
   1
 39
0.100
  6
CONTINUOUS
 10
288.12400
 20
27.90000
 30
 0
 11
288.12400
 21
29.90000
  0
LINE
  8
Reference_points
 62
   1
 39
0.100
  6
CONTINUOUS
 10
287.12400
 20
39.65000
 30
 0
 11
289.12400
 21
39.65000
  0
LINE
  8
Reference_points
 62
   1
 39
0.100
  6
CONTINUOUS
 10
288.12400
 20
38.65000
 30
 0
 11
288.12400
 21
40.65000
  0
LINE
  8
Reference_points
 62
   1
 39
0.100
  6
CONTINUOUS
 10
287.12400
 20
16.15000
 30
 0
 11
289.12400
 21
16.15000
  0
LINE
  8
Reference_points
 62
   1
 39
0.100
  6
CONTINUOUS
 10
288.12400
 20
15.15000
 30
 0
 11
288.12400
 21
17.15000
  0
LINE
  8
Reference_points
 62
   1
 39
0.100
  6
CONTINUOUS
 10
284.12400
 20
48.65000
 30
 0
 11
286.12400
 21
48.65000
  0
LINE
  8
Reference_points
 62
   1
 39
0.100
  6
CONTINUOUS
 10
285.12400
 20
47.65000
 30
 0
 11
285.12400
 21
49.65000
  0
LINE
  8
Reference_points
 62
   1
 39
0.100
  6
CONTINUOUS
 10
287.12400
 20
8.90000
 30
 0
 11
289.12400
 21
8.90000
  0
LINE
  8
Reference_points
 62
   1
 39
0.100
  6
CONTINUOUS
 10
288.12400
 20
7.90000
 30
 0
 11
288.12400
 21
9.90000
  0
LINE
  8
Reference_points
 62
   1
 39
0.100
  6
CONTINUOUS
 10
19.12400
 20
28.90000
 30
 0
 11
21.12400
 21
28.90000
  0
LINE
  8
Reference_points
 62
   1
 39
0.100
  6
CONTINUOUS
 10
20.12400
 20
27.90000
 30
 0
 11
20.12400
 21
29.90000
  0
LINE
  8
Reference_points
 62
   1
 39
0.100
  6
CONTINUOUS
 10
19.12400
 20
39.65000
 30
 0
 11
21.12400
 21
39.65000
  0
LINE
  8
Reference_points
 62
   1
 39
0.100
  6
CONTINUOUS
 10
20.12400
 20
38.65000
 30
 0
 11
20.12400
 21
40.65000
  0
LINE
  8
Reference_points
 62
   1
 39
0.100
  6
CONTINUOUS
 10
19.12400
 20
16.15000
 30
 0
 11
21.12400
 21
16.15000
  0
LINE
  8
Reference_points
 62
   1
 39
0.100
  6
CONTINUOUS
 10
20.12400
 20
15.15000
 30
 0
 11
20.12400
 21
17.15000
  0
LINE
  8
Reference_points
 62
   1
 39
0.100
  6
CONTINUOUS
 10
18.12400
 20
48.65000
 30
 0
 11
20.12400
 21
48.65000
  0
LINE
  8
Reference_points
 62
   1
 39
0.100
  6
CONTINUOUS
 10
19.12400
 20
47.65000
 30
 0
 11
19.12400
 21
49.65000
  0
LINE
  8
Reference_points
 62
   1
 39
0.100
  6
CONTINUOUS
 10
19.12400
 20
8.90000
 30
 0
 11
21.12400
 21
8.90000
  0
LINE
  8
Reference_points
 62
   1
 39
0.100
  6
CONTINUOUS
 10
20.12400
 20
7.90000
 30
 0
 11
20.12400
 21
9.90000
  0
LINE
  8
Reference_points
 62
   1
 39
0.100
  6
CONTINUOUS
 10
36.99000
 20
28.90000
 30
 0
 11
38.99000
 21
28.90000
  0
LINE
  8
Reference_points
 62
   1
 39
0.100
  6
CONTINUOUS
 10
37.99000
 20
27.90000
 30
 0
 11
37.99000
 21
29.90000
  0
LINE
  8
Reference_points
 62
   1
 39
0.100
  6
CONTINUOUS
 10
36.99000
 20
39.65000
 30
 0
 11
38.99000
 21
39.65000
  0
LINE
  8
Reference_points
 62
   1
 39
0.100
  6
CONTINUOUS
 10
37.99000
 20
38.65000
 30
 0
 11
37.99000
 21
40.65000
  0
LINE
  8
Reference_points
 62
   1
 39
0.100
  6
CONTINUOUS
 10
36.99000
 20
16.15000
 30
 0
 11
38.99000
 21
16.15000
  0
LINE
  8
Reference_points
 62
   1
 39
0.100
  6
CONTINUOUS
 10
37.99000
 20
15.15000
 30
 0
 11
37.99000
 21
17.15000
  0
LINE
  8
Reference_points
 62
   1
 39
0.100
  6
CONTINUOUS
 10
35.99000
 20
48.65000
 30
 0
 11
37.99000
 21
48.65000
  0
LINE
  8
Reference_points
 62
   1
 39
0.100
  6
CONTINUOUS
 10
36.99000
 20
47.65000
 30
 0
 11
36.99000
 21
49.65000
  0
LINE
  8
Reference_points
 62
   1
 39
0.100
  6
CONTINUOUS
 10
36.99000
 20
8.90000
 30
 0
 11
38.99000
 21
8.90000
  0
LINE
  8
Reference_points
 62
   1
 39
0.100
  6
CONTINUOUS
 10
37.99000
 20
7.90000
 30
 0
 11
37.99000
 21
9.90000
  0
LINE
  8
Reference_points
 62
   1
 39
0.100
  6
CONTINUOUS
 10
54.85700
 20
28.90000
 30
 0
 11
56.85700
 21
28.90000
  0
LINE
  8
Reference_points
 62
   1
 39
0.100
  6
CONTINUOUS
 10
55.85700
 20
27.90000
 30
 0
 11
55.85700
 21
29.90000
  0
LINE
  8
Reference_points
 62
   1
 39
0.100
  6
CONTINUOUS
 10
54.85700
 20
39.65000
 30
 0
 11
56.85700
 21
39.65000
  0
LINE
  8
Reference_points
 62
   1
 39
0.100
  6
CONTINUOUS
 10
55.85700
 20
38.65000
 30
 0
 11
55.85700
 21
40.65000
  0
LINE
  8
Reference_points
 62
   1
 39
0.100
  6
CONTINUOUS
 10
54.85700
 20
16.15000
 30
 0
 11
56.85700
 21
16.15000
  0
LINE
  8
Reference_points
 62
   1
 39
0.100
  6
CONTINUOUS
 10
55.85700
 20
15.15000
 30
 0
 11
55.85700
 21
17.15000
  0
LINE
  8
Reference_points
 62
   1
 39
0.100
  6
CONTINUOUS
 10
53.85700
 20
48.65000
 30
 0
 11
55.85700
 21
48.65000
  0
LINE
  8
Reference_points
 62
   1
 39
0.100
  6
CONTINUOUS
 10
54.85700
 20
47.65000
 30
 0
 11
54.85700
 21
49.65000
  0
LINE
  8
Reference_points
 62
   1
 39
0.100
  6
CONTINUOUS
 10
54.85700
 20
8.90000
 30
 0
 11
56.85700
 21
8.90000
  0
LINE
  8
Reference_points
 62
   1
 39
0.100
  6
CONTINUOUS
 10
55.85700
 20
7.90000
 30
 0
 11
55.85700
 21
9.90000
  0
LINE
  8
Reference_points
 62
   1
 39
0.100
  6
CONTINUOUS
 10
72.72400
 20
28.90000
 30
 0
 11
74.72400
 21
28.90000
  0
LINE
  8
Reference_points
 62
   1
 39
0.100
  6
CONTINUOUS
 10
73.72400
 20
27.90000
 30
 0
 11
73.72400
 21
29.90000
  0
LINE
  8
Reference_points
 62
   1
 39
0.100
  6
CONTINUOUS
 10
72.72400
 20
39.65000
 30
 0
 11
74.72400
 21
39.65000
  0
LINE
  8
Reference_points
 62
   1
 39
0.100
  6
CONTINUOUS
 10
73.72400
 20
38.65000
 30
 0
 11
73.72400
 21
40.65000
  0
LINE
  8
Reference_points
 62
   1
 39
0.100
  6
CONTINUOUS
 10
72.72400
 20
16.15000
 30
 0
 11
74.72400
 21
16.15000
  0
LINE
  8
Reference_points
 62
   1
 39
0.100
  6
CONTINUOUS
 10
73.72400
 20
15.15000
 30
 0
 11
73.72400
 21
17.15000
  0
LINE
  8
Reference_points
 62
   1
 39
0.100
  6
CONTINUOUS
 10
71.72400
 20
48.65000
 30
 0
 11
73.72400
 21
48.65000
  0
LINE
  8
Reference_points
 62
   1
 39
0.100
  6
CONTINUOUS
 10
72.72400
 20
47.65000
 30
 0
 11
72.72400
 21
49.65000
  0
LINE
  8
Reference_points
 62
   1
 39
0.100
  6
CONTINUOUS
 10
72.72400
 20
8.90000
 30
 0
 11
74.72400
 21
8.90000
  0
LINE
  8
Reference_points
 62
   1
 39
0.100
  6
CONTINUOUS
 10
73.72400
 20
7.90000
 30
 0
 11
73.72400
 21
9.90000
  0
LINE
  8
Reference_points
 62
   1
 39
0.100
  6
CONTINUOUS
 10
90.59000
 20
28.90000
 30
 0
 11
92.59000
 21
28.90000
  0
LINE
  8
Reference_points
 62
   1
 39
0.100
  6
CONTINUOUS
 10
91.59000
 20
27.90000
 30
 0
 11
91.59000
 21
29.90000
  0
LINE
  8
Reference_points
 62
   1
 39
0.100
  6
CONTINUOUS
 10
90.59000
 20
39.65000
 30
 0
 11
92.59000
 21
39.65000
  0
LINE
  8
Reference_points
 62
   1
 39
0.100
  6
CONTINUOUS
 10
91.59000
 20
38.65000
 30
 0
 11
91.59000
 21
40.65000
  0
LINE
  8
Reference_points
 62
   1
 39
0.100
  6
CONTINUOUS
 10
90.59000
 20
16.15000
 30
 0
 11
92.59000
 21
16.15000
  0
LINE
  8
Reference_points
 62
   1
 39
0.100
  6
CONTINUOUS
 10
91.59000
 20
15.15000
 30
 0
 11
91.59000
 21
17.15000
  0
LINE
  8
Reference_points
 62
   1
 39
0.100
  6
CONTINUOUS
 10
89.59000
 20
48.65000
 30
 0
 11
91.59000
 21
48.65000
  0
LINE
  8
Reference_points
 62
   1
 39
0.100
  6
CONTINUOUS
 10
90.59000
 20
47.65000
 30
 0
 11
90.59000
 21
49.65000
  0
LINE
  8
Reference_points
 62
   1
 39
0.100
  6
CONTINUOUS
 10
90.59000
 20
8.90000
 30
 0
 11
92.59000
 21
8.90000
  0
LINE
  8
Reference_points
 62
   1
 39
0.100
  6
CONTINUOUS
 10
91.59000
 20
7.90000
 30
 0
 11
91.59000
 21
9.90000
  0
LINE
  8
Reference_points
 62
   1
 39
0.100
  6
CONTINUOUS
 10
108.45700
 20
28.90000
 30
 0
 11
110.45700
 21
28.90000
  0
LINE
  8
Reference_points
 62
   1
 39
0.100
  6
CONTINUOUS
 10
109.45700
 20
27.90000
 30
 0
 11
109.45700
 21
29.90000
  0
LINE
  8
Reference_points
 62
   1
 39
0.100
  6
CONTINUOUS
 10
108.45700
 20
39.65000
 30
 0
 11
110.45700
 21
39.65000
  0
LINE
  8
Reference_points
 62
   1
 39
0.100
  6
CONTINUOUS
 10
109.45700
 20
38.65000
 30
 0
 11
109.45700
 21
40.65000
  0
LINE
  8
Reference_points
 62
   1
 39
0.100
  6
CONTINUOUS
 10
108.45700
 20
16.15000
 30
 0
 11
110.45700
 21
16.15000
  0
LINE
  8
Reference_points
 62
   1
 39
0.100
  6
CONTINUOUS
 10
109.45700
 20
15.15000
 30
 0
 11
109.45700
 21
17.15000
  0
LINE
  8
Reference_points
 62
   1
 39
0.100
  6
CONTINUOUS
 10
107.45700
 20
48.65000
 30
 0
 11
109.45700
 21
48.65000
  0
LINE
  8
Reference_points
 62
   1
 39
0.100
  6
CONTINUOUS
 10
108.45700
 20
47.65000
 30
 0
 11
108.45700
 21
49.65000
  0
LINE
  8
Reference_points
 62
   1
 39
0.100
  6
CONTINUOUS
 10
108.45700
 20
8.90000
 30
 0
 11
110.45700
 21
8.90000
  0
LINE
  8
Reference_points
 62
   1
 39
0.100
  6
CONTINUOUS
 10
109.45700
 20
7.90000
 30
 0
 11
109.45700
 21
9.90000
  0
LINE
  8
Reference_points
 62
   1
 39
0.100
  6
CONTINUOUS
 10
126.32400
 20
28.90000
 30
 0
 11
128.32400
 21
28.90000
  0
LINE
  8
Reference_points
 62
   1
 39
0.100
  6
CONTINUOUS
 10
127.32400
 20
27.90000
 30
 0
 11
127.32400
 21
29.90000
  0
LINE
  8
Reference_points
 62
   1
 39
0.100
  6
CONTINUOUS
 10
126.32400
 20
39.65000
 30
 0
 11
128.32400
 21
39.65000
  0
LINE
  8
Reference_points
 62
   1
 39
0.100
  6
CONTINUOUS
 10
127.32400
 20
38.65000
 30
 0
 11
127.32400
 21
40.65000
  0
LINE
  8
Reference_points
 62
   1
 39
0.100
  6
CONTINUOUS
 10
126.32400
 20
16.15000
 30
 0
 11
128.32400
 21
16.15000
  0
LINE
  8
Reference_points
 62
   1
 39
0.100
  6
CONTINUOUS
 10
127.32400
 20
15.15000
 30
 0
 11
127.32400
 21
17.15000
  0
LINE
  8
Reference_points
 62
   1
 39
0.100
  6
CONTINUOUS
 10
125.32400
 20
48.65000
 30
 0
 11
127.32400
 21
48.65000
  0
LINE
  8
Reference_points
 62
   1
 39
0.100
  6
CONTINUOUS
 10
126.32400
 20
47.65000
 30
 0
 11
126.32400
 21
49.65000
  0
LINE
  8
Reference_points
 62
   1
 39
0.100
  6
CONTINUOUS
 10
126.32400
 20
8.90000
 30
 0
 11
128.32400
 21
8.90000
  0
LINE
  8
Reference_points
 62
   1
 39
0.100
  6
CONTINUOUS
 10
127.32400
 20
7.90000
 30
 0
 11
127.32400
 21
9.90000
  0
LINE
  8
Reference_points
 62
   1
 39
0.100
  6
CONTINUOUS
 10
144.19000
 20
28.90000
 30
 0
 11
146.19000
 21
28.90000
  0
LINE
  8
Reference_points
 62
   1
 39
0.100
  6
CONTINUOUS
 10
145.19000
 20
27.90000
 30
 0
 11
145.19000
 21
29.90000
  0
LINE
  8
Reference_points
 62
   1
 39
0.100
  6
CONTINUOUS
 10
144.19000
 20
39.65000
 30
 0
 11
146.19000
 21
39.65000
  0
LINE
  8
Reference_points
 62
   1
 39
0.100
  6
CONTINUOUS
 10
145.19000
 20
38.65000
 30
 0
 11
145.19000
 21
40.65000
  0
LINE
  8
Reference_points
 62
   1
 39
0.100
  6
CONTINUOUS
 10
144.19000
 20
16.15000
 30
 0
 11
146.19000
 21
16.15000
  0
LINE
  8
Reference_points
 62
   1
 39
0.100
  6
CONTINUOUS
 10
145.19000
 20
15.15000
 30
 0
 11
145.19000
 21
17.15000
  0
LINE
  8
Reference_points
 62
   1
 39
0.100
  6
CONTINUOUS
 10
143.19000
 20
48.65000
 30
 0
 11
145.19000
 21
48.65000
  0
LINE
  8
Reference_points
 62
   1
 39
0.100
  6
CONTINUOUS
 10
144.19000
 20
47.65000
 30
 0
 11
144.19000
 21
49.65000
  0
LINE
  8
Reference_points
 62
   1
 39
0.100
  6
CONTINUOUS
 10
144.19000
 20
8.90000
 30
 0
 11
146.19000
 21
8.90000
  0
LINE
  8
Reference_points
 62
   1
 39
0.100
  6
CONTINUOUS
 10
145.19000
 20
7.90000
 30
 0
 11
145.19000
 21
9.90000
  0
LINE
  8
Reference_points
 62
   1
 39
0.100
  6
CONTINUOUS
 10
162.05700
 20
28.90000
 30
 0
 11
164.05700
 21
28.90000
  0
LINE
  8
Reference_points
 62
   1
 39
0.100
  6
CONTINUOUS
 10
163.05700
 20
27.90000
 30
 0
 11
163.05700
 21
29.90000
  0
LINE
  8
Reference_points
 62
   1
 39
0.100
  6
CONTINUOUS
 10
162.05700
 20
39.65000
 30
 0
 11
164.05700
 21
39.65000
  0
LINE
  8
Reference_points
 62
   1
 39
0.100
  6
CONTINUOUS
 10
163.05700
 20
38.65000
 30
 0
 11
163.05700
 21
40.65000
  0
LINE
  8
Reference_points
 62
   1
 39
0.100
  6
CONTINUOUS
 10
162.05700
 20
16.15000
 30
 0
 11
164.05700
 21
16.15000
  0
LINE
  8
Reference_points
 62
   1
 39
0.100
  6
CONTINUOUS
 10
163.05700
 20
15.15000
 30
 0
 11
163.05700
 21
17.15000
  0
LINE
  8
Reference_points
 62
   1
 39
0.100
  6
CONTINUOUS
 10
161.05700
 20
48.65000
 30
 0
 11
163.05700
 21
48.65000
  0
LINE
  8
Reference_points
 62
   1
 39
0.100
  6
CONTINUOUS
 10
162.05700
 20
47.65000
 30
 0
 11
162.05700
 21
49.65000
  0
LINE
  8
Reference_points
 62
   1
 39
0.100
  6
CONTINUOUS
 10
162.05700
 20
8.90000
 30
 0
 11
164.05700
 21
8.90000
  0
LINE
  8
Reference_points
 62
   1
 39
0.100
  6
CONTINUOUS
 10
163.05700
 20
7.90000
 30
 0
 11
163.05700
 21
9.90000
  0
LINE
  8
Reference_points
 62
   1
 39
0.100
  6
CONTINUOUS
 10
179.92400
 20
28.90000
 30
 0
 11
181.92400
 21
28.90000
  0
LINE
  8
Reference_points
 62
   1
 39
0.100
  6
CONTINUOUS
 10
180.92400
 20
27.90000
 30
 0
 11
180.92400
 21
29.90000
  0
LINE
  8
Reference_points
 62
   1
 39
0.100
  6
CONTINUOUS
 10
179.92400
 20
39.65000
 30
 0
 11
181.92400
 21
39.65000
  0
LINE
  8
Reference_points
 62
   1
 39
0.100
  6
CONTINUOUS
 10
180.92400
 20
38.65000
 30
 0
 11
180.92400
 21
40.65000
  0
LINE
  8
Reference_points
 62
   1
 39
0.100
  6
CONTINUOUS
 10
179.92400
 20
16.15000
 30
 0
 11
181.92400
 21
16.15000
  0
LINE
  8
Reference_points
 62
   1
 39
0.100
  6
CONTINUOUS
 10
180.92400
 20
15.15000
 30
 0
 11
180.92400
 21
17.15000
  0
LINE
  8
Reference_points
 62
   1
 39
0.100
  6
CONTINUOUS
 10
176.92400
 20
48.65000
 30
 0
 11
178.92400
 21
48.65000
  0
LINE
  8
Reference_points
 62
   1
 39
0.100
  6
CONTINUOUS
 10
177.92400
 20
47.65000
 30
 0
 11
177.92400
 21
49.65000
  0
LINE
  8
Reference_points
 62
   1
 39
0.100
  6
CONTINUOUS
 10
179.92400
 20
8.90000
 30
 0
 11
181.92400
 21
8.90000
  0
LINE
  8
Reference_points
 62
   1
 39
0.100
  6
CONTINUOUS
 10
180.92400
 20
7.90000
 30
 0
 11
180.92400
 21
9.90000
  0
LINE
  8
Reference_points
 62
   1
 39
0.100
  6
CONTINUOUS
 10
197.79000
 20
28.90000
 30
 0
 11
199.79000
 21
28.90000
  0
LINE
  8
Reference_points
 62
   1
 39
0.100
  6
CONTINUOUS
 10
198.79000
 20
27.90000
 30
 0
 11
198.79000
 21
29.90000
  0
LINE
  8
Reference_points
 62
   1
 39
0.100
  6
CONTINUOUS
 10
197.79000
 20
39.65000
 30
 0
 11
199.79000
 21
39.65000
  0
LINE
  8
Reference_points
 62
   1
 39
0.100
  6
CONTINUOUS
 10
198.79000
 20
38.65000
 30
 0
 11
198.79000
 21
40.65000
  0
LINE
  8
Reference_points
 62
   1
 39
0.100
  6
CONTINUOUS
 10
197.79000
 20
16.15000
 30
 0
 11
199.79000
 21
16.15000
  0
LINE
  8
Reference_points
 62
   1
 39
0.100
  6
CONTINUOUS
 10
198.79000
 20
15.15000
 30
 0
 11
198.79000
 21
17.15000
  0
LINE
  8
Reference_points
 62
   1
 39
0.100
  6
CONTINUOUS
 10
194.79000
 20
48.65000
 30
 0
 11
196.79000
 21
48.65000
  0
LINE
  8
Reference_points
 62
   1
 39
0.100
  6
CONTINUOUS
 10
195.79000
 20
47.65000
 30
 0
 11
195.79000
 21
49.65000
  0
LINE
  8
Reference_points
 62
   1
 39
0.100
  6
CONTINUOUS
 10
197.79000
 20
8.90000
 30
 0
 11
199.79000
 21
8.90000
  0
LINE
  8
Reference_points
 62
   1
 39
0.100
  6
CONTINUOUS
 10
198.79000
 20
7.90000
 30
 0
 11
198.79000
 21
9.90000
  0
LINE
  8
Reference_points
 62
   1
 39
0.100
  6
CONTINUOUS
 10
215.65700
 20
28.90000
 30
 0
 11
217.65700
 21
28.90000
  0
LINE
  8
Reference_points
 62
   1
 39
0.100
  6
CONTINUOUS
 10
216.65700
 20
27.90000
 30
 0
 11
216.65700
 21
29.90000
  0
LINE
  8
Reference_points
 62
   1
 39
0.100
  6
CONTINUOUS
 10
215.65700
 20
39.65000
 30
 0
 11
217.65700
 21
39.65000
  0
LINE
  8
Reference_points
 62
   1
 39
0.100
  6
CONTINUOUS
 10
216.65700
 20
38.65000
 30
 0
 11
216.65700
 21
40.65000
  0
LINE
  8
Reference_points
 62
   1
 39
0.100
  6
CONTINUOUS
 10
215.65700
 20
16.15000
 30
 0
 11
217.65700
 21
16.15000
  0
LINE
  8
Reference_points
 62
   1
 39
0.100
  6
CONTINUOUS
 10
216.65700
 20
15.15000
 30
 0
 11
216.65700
 21
17.15000
  0
LINE
  8
Reference_points
 62
   1
 39
0.100
  6
CONTINUOUS
 10
212.90700
 20
48.65000
 30
 0
 11
214.90700
 21
48.65000
  0
LINE
  8
Reference_points
 62
   1
 39
0.100
  6
CONTINUOUS
 10
213.90700
 20
47.65000
 30
 0
 11
213.90700
 21
49.65000
  0
LINE
  8
Reference_points
 62
   1
 39
0.100
  6
CONTINUOUS
 10
215.65700
 20
8.90000
 30
 0
 11
217.65700
 21
8.90000
  0
LINE
  8
Reference_points
 62
   1
 39
0.100
  6
CONTINUOUS
 10
216.65700
 20
7.90000
 30
 0
 11
216.65700
 21
9.90000
  0
LINE
  8
Reference_points
 62
   1
 39
0.100
  6
CONTINUOUS
 10
233.52400
 20
28.90000
 30
 0
 11
235.52400
 21
28.90000
  0
LINE
  8
Reference_points
 62
   1
 39
0.100
  6
CONTINUOUS
 10
234.52400
 20
27.90000
 30
 0
 11
234.52400
 21
29.90000
  0
LINE
  8
Reference_points
 62
   1
 39
0.100
  6
CONTINUOUS
 10
233.52400
 20
39.65000
 30
 0
 11
235.52400
 21
39.65000
  0
LINE
  8
Reference_points
 62
   1
 39
0.100
  6
CONTINUOUS
 10
234.52400
 20
38.65000
 30
 0
 11
234.52400
 21
40.65000
  0
LINE
  8
Reference_points
 62
   1
 39
0.100
  6
CONTINUOUS
 10
233.52400
 20
16.15000
 30
 0
 11
235.52400
 21
16.15000
  0
LINE
  8
Reference_points
 62
   1
 39
0.100
  6
CONTINUOUS
 10
234.52400
 20
15.15000
 30
 0
 11
234.52400
 21
17.15000
  0
LINE
  8
Reference_points
 62
   1
 39
0.100
  6
CONTINUOUS
 10
230.52400
 20
48.65000
 30
 0
 11
232.52400
 21
48.65000
  0
LINE
  8
Reference_points
 62
   1
 39
0.100
  6
CONTINUOUS
 10
231.52400
 20
47.65000
 30
 0
 11
231.52400
 21
49.65000
  0
LINE
  8
Reference_points
 62
   1
 39
0.100
  6
CONTINUOUS
 10
233.52400
 20
8.90000
 30
 0
 11
235.52400
 21
8.90000
  0
LINE
  8
Reference_points
 62
   1
 39
0.100
  6
CONTINUOUS
 10
234.52400
 20
7.90000
 30
 0
 11
234.52400
 21
9.90000
  0
LINE
  8
Reference_points
 62
   1
 39
0.100
  6
CONTINUOUS
 10
251.39000
 20
28.90000
 30
 0
 11
253.39000
 21
28.90000
  0
LINE
  8
Reference_points
 62
   1
 39
0.100
  6
CONTINUOUS
 10
252.39000
 20
27.90000
 30
 0
 11
252.39000
 21
29.90000
  0
LINE
  8
Reference_points
 62
   1
 39
0.100
  6
CONTINUOUS
 10
251.39000
 20
39.65000
 30
 0
 11
253.39000
 21
39.65000
  0
LINE
  8
Reference_points
 62
   1
 39
0.100
  6
CONTINUOUS
 10
252.39000
 20
38.65000
 30
 0
 11
252.39000
 21
40.65000
  0
LINE
  8
Reference_points
 62
   1
 39
0.100
  6
CONTINUOUS
 10
251.39000
 20
16.15000
 30
 0
 11
253.39000
 21
16.15000
  0
LINE
  8
Reference_points
 62
   1
 39
0.100
  6
CONTINUOUS
 10
252.39000
 20
15.15000
 30
 0
 11
252.39000
 21
17.15000
  0
LINE
  8
Reference_points
 62
   1
 39
0.100
  6
CONTINUOUS
 10
248.39000
 20
48.65000
 30
 0
 11
250.39000
 21
48.65000
  0
LINE
  8
Reference_points
 62
   1
 39
0.100
  6
CONTINUOUS
 10
249.39000
 20
47.65000
 30
 0
 11
249.39000
 21
49.65000
  0
LINE
  8
Reference_points
 62
   1
 39
0.100
  6
CONTINUOUS
 10
251.39000
 20
8.90000
 30
 0
 11
253.39000
 21
8.90000
  0
LINE
  8
Reference_points
 62
   1
 39
0.100
  6
CONTINUOUS
 10
252.39000
 20
7.90000
 30
 0
 11
252.39000
 21
9.90000
  0
LINE
  8
Reference_points
 62
   1
 39
0.100
  6
CONTINUOUS
 10
269.25700
 20
28.90000
 30
 0
 11
271.25700
 21
28.90000
  0
LINE
  8
Reference_points
 62
   1
 39
0.100
  6
CONTINUOUS
 10
270.25700
 20
27.90000
 30
 0
 11
270.25700
 21
29.90000
  0
LINE
  8
Reference_points
 62
   1
 39
0.100
  6
CONTINUOUS
 10
269.25700
 20
39.65000
 30
 0
 11
271.25700
 21
39.65000
  0
LINE
  8
Reference_points
 62
   1
 39
0.100
  6
CONTINUOUS
 10
270.25700
 20
38.65000
 30
 0
 11
270.25700
 21
40.65000
  0
LINE
  8
Reference_points
 62
   1
 39
0.100
  6
CONTINUOUS
 10
269.25700
 20
16.15000
 30
 0
 11
271.25700
 21
16.15000
  0
LINE
  8
Reference_points
 62
   1
 39
0.100
  6
CONTINUOUS
 10
270.25700
 20
15.15000
 30
 0
 11
270.25700
 21
17.15000
  0
LINE
  8
Reference_points
 62
   1
 39
0.100
  6
CONTINUOUS
 10
266.25700
 20
48.65000
 30
 0
 11
268.25700
 21
48.65000
  0
LINE
  8
Reference_points
 62
   1
 39
0.100
  6
CONTINUOUS
 10
267.25700
 20
47.65000
 30
 0
 11
267.25700
 21
49.65000
  0
LINE
  8
Reference_points
 62
   1
 39
0.100
  6
CONTINUOUS
 10
269.25700
 20
8.90000
 30
 0
 11
271.25700
 21
8.90000
  0
LINE
  8
Reference_points
 62
   1
 39
0.100
  6
CONTINUOUS
 10
270.25700
 20
7.90000
 30
 0
 11
270.25700
 21
9.90000
  0
ENDSEC
  0
EOF
