<?xml version="1.0" standalone="no"?>
<!DOCTYPE svg PUBLIC "-//W3C//DTD SVG 1.1//EN" 
  "http://www.w3.org/Graphics/SVG/1.1/DTD/svg11.dtd">
<svg width="308.000mm" height="167.000mm" version="1.1"
     viewBox="0 0 308.000 167.000"
     xmlns="http://www.w3.org/2000/svg">
  <desc>Created with the Front Panel Designer by the export of the file 'frontpanel.fpd'.</desc>
<g transform="scale(1,-1) translate(0, -167.000)" 
   fill-rule="evenodd"
   style="stroke-linecap:round; stroke-linejoin:round; stroke-opacity:1.0; stroke-opacity:1.0;">
<path d="M298.000 167.000 
L10.000 167.000
A10.000,10.000 0 0,1 0.000,157.000
L0.000 10.000
A10.000,10.000 0 0,1 10.000,0.000
L298.000 0.000
A10.000,10.000 0 0,1 308.000,10.000
L308.000 157.000
A10.000,10.000 0 0,1 298.000,167.000z"
fill="#cccccc" stroke="#000000" stroke-width="0.100" />
<path d="M11.480 82.666 
L8.456 82.666
A0.810,0.810 0 0,1 8.456,81.046
L11.480 81.046
A0.810,0.810 0 0,1 11.480,82.666
M12.128 83.422 
A1.890,1.890 0 0,1 10.616,84.286
A60.022,60.022 0 0,1 6.836,84.286
A1.906,1.906 0 0,1 5.000,82.342
L5.000 81.262
A1.906,1.906 0 0,1 6.836,79.318
A60.022,60.022 0 0,1 10.616,79.318
A1.890,1.890 0 0,1 12.128,80.182
L12.128 79.318
L14.936 79.318
L14.936 84.718
A2.154,2.154 0 0,1 12.884,86.878
A61.756,61.756 0 0,1 7.052,86.878
A2.154,2.154 0 0,1 5.000,84.718
L7.808 84.718
A0.645,0.645 0 0,0 8.456,85.366
L11.480 85.366
A0.645,0.645 0 0,0 12.128,84.718
L12.128 83.422
M18.176 86.878 
L20.984 86.878
L20.984 85.366
A2.003,2.003 0 0,0 22.712,86.878
A12.775,12.775 0 0,0 25.520,86.878
A2.463,2.463 0 0,0 27.464,85.474
A2.369,2.369 0 0,0 29.516,86.878
A32.022,32.022 0 0,0 32.540,86.878
A2.154,2.154 0 0,0 34.592,84.718
L34.592 79.318
L31.784 79.318
L31.784 83.854
A0.868,0.868 0 0,1 31.028,84.718
A9.897,9.897 0 0,1 28.544,84.718
A0.868,0.868 0 0,1 27.788,83.854
L27.788 79.318
L24.980 79.318
L24.980 83.854
A0.868,0.868 0 0,1 24.224,84.718
A9.897,9.897 0 0,1 21.740,84.718
A0.868,0.868 0 0,1 20.984,83.854
L20.984 79.318
L18.176 79.318
L18.176 86.878
M37.832 86.878 
L40.640 86.878
L40.640 85.582
A2.092,2.092 0 0,0 42.476,86.878
A36.596,36.596 0 0,0 45.932,86.878
A2.154,2.154 0 0,0 47.984,84.718
L47.984 79.318
L45.176 79.318
L45.176 83.854
A0.983,0.983 0 0,1 44.312,84.826
A12.775,12.775 0 0,1 41.504,84.826
A0.983,0.983 0 0,1 40.640,83.854
L40.640 79.318
L37.832 79.318
L37.832 86.878
M51.224 90.118 
L62.456 90.118
L62.456 87.742
L54.140 87.742
L54.140 85.906
L62.132 85.906
L62.132 83.746
L54.140 83.746
L54.140 81.694
L62.456 81.694
L62.456 79.318
L51.224 79.318
L51.224 90.118
M72.932 84.718 
L75.632 84.718
L75.632 85.150
A1.737,1.737 0 0,1 74.012,86.878
A53.202,53.202 0 0,1 67.316,86.878
A1.666,1.666 0 0,1 65.696,85.150
L65.696 83.962
A1.571,1.571 0 0,1 67.316,82.342
L72.392 82.342
A0.648,0.648 0 0,0 72.392,81.046
L69.152 81.046
A0.645,0.645 0 0,0 68.504,81.694
L65.696 81.694
L65.696 81.046
A1.625,1.625 0 0,1 67.208,79.426
A56.635,56.635 0 0,1 74.336,79.426
A1.625,1.625 0 0,1 75.848,81.046
L75.848 82.126
A1.625,1.625 0 0,1 74.336,83.746
L69.044 83.962
A0.703,0.703 0 0,0 69.044,85.366
L72.176 85.366
A0.765,0.765 0 0,0 72.932,84.718
M79.088 87.958 
L81.896 87.958
L81.896 90.118
L79.088 90.118
L79.088 87.958
M79.088 86.878 
L81.896 86.878
L81.896 79.318
L79.088 79.318
L79.088 86.878
M91.616 82.666 
L88.592 82.666
A0.810,0.810 0 0,1 88.592,81.046
L91.616 81.046
A0.810,0.810 0 0,1 91.616,82.666
M92.264 83.422 
A1.890,1.890 0 0,1 90.752,84.286
A60.022,60.022 0 0,1 86.972,84.286
A1.906,1.906 0 0,1 85.136,82.342
L85.136 81.262
A1.906,1.906 0 0,1 86.972,79.318
A60.022,60.022 0 0,1 90.752,79.318
A1.890,1.890 0 0,1 92.264,80.182
L92.264 79.318
L95.072 79.318
L95.072 84.718
A2.154,2.154 0 0,1 93.020,86.878
A61.756,61.756 0 0,1 87.188,86.878
A2.154,2.154 0 0,1 85.136,84.718
L87.944 84.718
A0.645,0.645 0 0,0 88.592,85.366
L91.616 85.366
A0.645,0.645 0 0,0 92.264,84.718
L92.264 83.422"
fill="none" stroke="#000000" stroke-width="0.400" />
<path d="M285.124 154.650 
L285.124 153.950
L285.774 153.950
L285.774 149.650
L286.624 149.650
L286.624 154.650
L285.124 154.650
M288.274 151.400 A0.950,0.950 0 0,1 290.174,151.400A0.950,0.950 0 0,1 288.274,151.400
M288.774 152.750 
L290.124 154.650
L289.174 154.650
L287.724 152.600
A1.877,1.877 0 0,1 289.174,149.650
A1.778,1.778 0 0,1 291.024,151.600
A1.494,1.494 0 0,1 288.774,152.750"
fill="none" stroke="#000000" stroke-width="0.200" />
<path d="M18.874 154.650 
L18.874 153.950
L19.524 153.950
L19.524 149.650
L20.374 149.650
L20.374 154.650
L18.874 154.650"
fill="none" stroke="#000000" stroke-width="0.200" />
<path d="M36.857 152.950 
L37.757 152.950
A0.806,0.806 0 0,0 39.357,153.150
A0.997,0.997 0 0,0 39.107,152.350
L36.757 149.850
L36.757 149.650
L40.007 149.650
L40.007 150.450
L38.507 150.450
L39.807 151.900
A1.651,1.651 0 0,1 39.607,154.300
A1.697,1.697 0 0,1 37.507,154.300
A1.726,1.726 0 0,1 36.857,152.950"
fill="none" stroke="#000000" stroke-width="0.200" />
<path d="M54.790 153.150 
L55.640 153.150
A0.695,0.695 0 0,0 56.190,153.850
A1.377,1.377 0 0,0 56.790,153.850
A0.579,0.579 0 0,0 56.890,152.750
A1.326,1.326 0 0,0 56.240,152.650
L56.240 151.900
L56.640 151.900
A0.661,0.661 0 0,0 57.190,151.600
A0.813,0.813 0 0,0 57.090,150.600
A0.915,0.915 0 0,0 55.740,150.650
A0.870,0.870 0 0,0 55.540,151.200
L54.640 151.200
A1.537,1.537 0 0,1 55.640,149.750
A2.178,2.178 0 0,1 57.290,149.800
A1.546,1.546 0 0,1 58.190,151.150
A1.162,1.162 0 0,1 57.490,152.250
A1.181,1.181 0 0,1 57.840,154.000
A1.776,1.776 0 0,1 55.040,154.000
A1.214,1.214 0 0,1 54.790,153.150"
fill="none" stroke="#000000" stroke-width="0.200" />
<path d="M74.874 153.200 
L73.774 151.700
L74.874 151.700
L74.874 153.200
M74.974 154.650 
L72.524 151.300
L72.524 150.900
L74.874 150.900
L74.874 149.650
L75.674 149.650
L75.674 150.900
L76.324 150.900
L76.324 151.700
L75.674 151.700
L75.674 154.650
L74.974 154.650"
fill="none" stroke="#000000" stroke-width="0.200" />
<path d="M91.407 154.650 
L90.807 151.950
A2.084,2.084 0 0,0 92.307,152.200
A0.876,0.876 0 0,0 93.007,151.300
A0.943,0.943 0 0,0 91.657,150.500
A9.609,9.609 0 0,0 90.607,151.100
L90.407 150.250
A2.350,2.350 0 0,1 92.957,149.850
A1.608,1.608 0 0,1 93.507,152.350
A1.804,1.804 0 0,1 91.807,152.950
L92.007 153.900
L93.607 153.900
L93.607 154.650
L91.407 154.650"
fill="none" stroke="#000000" stroke-width="0.200" />
<path d="M109.177 151.400 A0.950,0.950 0 0,1 111.077,151.400A0.950,0.950 0 0,1 109.177,151.400
M109.677 152.750 
L111.027 154.650
L110.077 154.650
L108.627 152.600
A1.877,1.877 0 0,1 110.077,149.650
A1.778,1.778 0 0,1 111.927,151.600
A1.494,1.494 0 0,1 109.677,152.750"
fill="none" stroke="#000000" stroke-width="0.200" />
<path d="M126.174 154.650 
L126.174 153.850
L128.524 153.850
L126.174 149.650
L127.174 149.650
L129.924 154.650
L126.174 154.650"
fill="none" stroke="#000000" stroke-width="0.200" />
<path d="M145.708 152.750 A0.650,0.650 0 0,1 145.708,154.050A0.650,0.650 0 0,1 145.708,152.750
M145.708 151.950 A0.800,0.800 0 0,0 145.708,150.350A0.800,0.800 0 0,0 145.708,151.950
M146.608 152.400 
A1.357,1.357 0 0,0 147.358,151.150
A1.548,1.548 0 0,0 145.708,149.650
A1.548,1.548 0 0,0 144.058,151.150
A1.357,1.357 0 0,0 144.808,152.400
A1.132,1.132 0 0,0 144.458,154.150
A1.461,1.461 0 0,0 145.708,154.650
A1.461,1.461 0 0,0 146.958,154.150
A1.132,1.132 0 0,0 146.608,152.400"
fill="none" stroke="#000000" stroke-width="0.200" />
<path d="M162.797 152.900 A0.950,0.950 0 0,0 164.697,152.900A0.950,0.950 0 0,0 162.797,152.900
M164.197 151.550 
L162.847 149.650
L163.797 149.650
L165.247 151.700
A1.877,1.877 0 0,1 163.797,154.650
A1.778,1.778 0 0,1 161.947,152.700
A1.494,1.494 0 0,1 164.197,151.550"
fill="none" stroke="#000000" stroke-width="0.200" />
<path d="M177.824 154.650 
L177.824 153.950
L178.474 153.950
L178.474 149.650
L179.324 149.650
L179.324 154.650
L177.824 154.650
M181.374 153.600 
A2.979,2.979 0 0,1 181.374,150.700
A0.690,0.690 0 0,1 182.574,150.700
A2.979,2.979 0 0,1 182.574,153.600
A0.690,0.690 0 0,1 181.374,153.600
M180.674 154.000 
A3.368,3.368 0 0,1 180.674,150.300
A1.562,1.562 0 0,1 183.274,150.300
A3.368,3.368 0 0,1 183.274,154.000
A1.562,1.562 0 0,1 180.674,154.000"
fill="none" stroke="#000000" stroke-width="0.200" />
<path d="M195.707 154.650 
L195.707 153.950
L196.357 153.950
L196.357 149.650
L197.207 149.650
L197.207 154.650
L195.707 154.650
M198.007 154.650 
L198.007 153.950
L198.657 153.950
L198.657 149.650
L199.507 149.650
L199.507 154.650
L198.007 154.650"
fill="none" stroke="#000000" stroke-width="0.200" />
<path d="M213.840 154.650 
L213.840 153.950
L214.490 153.950
L214.490 149.650
L215.340 149.650
L215.340 154.650
L213.840 154.650
M216.190 152.950 
L217.090 152.950
A0.806,0.806 0 0,0 218.690,153.150
A0.997,0.997 0 0,0 218.440,152.350
L216.090 149.850
L216.090 149.650
L219.340 149.650
L219.340 150.450
L217.840 150.450
L219.140 151.900
A1.651,1.651 0 0,1 218.940,154.300
A1.697,1.697 0 0,1 216.840,154.300
A1.726,1.726 0 0,1 216.190,152.950"
fill="none" stroke="#000000" stroke-width="0.200" />
<path d="M231.474 154.650 
L231.474 153.950
L232.124 153.950
L232.124 149.650
L232.974 149.650
L232.974 154.650
L231.474 154.650
M233.874 153.150 
L234.724 153.150
A0.695,0.695 0 0,0 235.274,153.850
A1.377,1.377 0 0,0 235.874,153.850
A0.579,0.579 0 0,0 235.974,152.750
A1.326,1.326 0 0,0 235.324,152.650
L235.324 151.900
L235.724 151.900
A0.661,0.661 0 0,0 236.274,151.600
A0.813,0.813 0 0,0 236.174,150.600
A0.915,0.915 0 0,0 234.824,150.650
A0.870,0.870 0 0,0 234.624,151.200
L233.724 151.200
A1.537,1.537 0 0,1 234.724,149.750
A2.178,2.178 0 0,1 236.374,149.800
A1.546,1.546 0 0,1 237.274,151.150
A1.162,1.162 0 0,1 236.574,152.250
A1.181,1.181 0 0,1 236.924,154.000
A1.776,1.776 0 0,1 234.124,154.000
A1.214,1.214 0 0,1 233.874,153.150"
fill="none" stroke="#000000" stroke-width="0.200" />
<path d="M249.357 154.650 
L249.357 153.950
L250.007 153.950
L250.007 149.650
L250.857 149.650
L250.857 154.650
L249.357 154.650
M254.007 153.200 
L252.907 151.700
L254.007 151.700
L254.007 153.200
M254.107 154.650 
L251.657 151.300
L251.657 150.900
L254.007 150.900
L254.007 149.650
L254.807 149.650
L254.807 150.900
L255.457 150.900
L255.457 151.700
L254.807 151.700
L254.807 154.650
L254.107 154.650"
fill="none" stroke="#000000" stroke-width="0.200" />
<path d="M267.240 154.650 
L267.240 153.950
L267.890 153.950
L267.890 149.650
L268.740 149.650
L268.740 154.650
L267.240 154.650
M270.540 154.650 
L269.940 151.950
A2.084,2.084 0 0,0 271.440,152.200
A0.876,0.876 0 0,0 272.140,151.300
A0.943,0.943 0 0,0 270.790,150.500
A9.609,9.609 0 0,0 269.740,151.100
L269.540 150.250
A2.350,2.350 0 0,1 272.090,149.850
A1.608,1.608 0 0,1 272.640,152.350
A1.804,1.804 0 0,1 270.940,152.950
L271.140 153.900
L272.740 153.900
L272.740 154.650
L270.540 154.650"
fill="none" stroke="#000000" stroke-width="0.200" />
<path d="M285.124 39.900 
L285.124 39.200
L285.774 39.200
L285.774 34.900
L286.624 34.900
L286.624 39.900
L285.124 39.900
M288.274 36.650 A0.950,0.950 0 0,1 290.174,36.650A0.950,0.950 0 0,1 288.274,36.650
M288.774 38.000 
L290.124 39.900
L289.174 39.900
L287.724 37.850
A1.877,1.877 0 0,1 289.174,34.900
A1.778,1.778 0 0,1 291.024,36.850
A1.494,1.494 0 0,1 288.774,38.000"
fill="none" stroke="#000000" stroke-width="0.200" />
<path d="M19.124 39.900 
L19.124 39.200
L19.774 39.200
L19.774 34.900
L20.624 34.900
L20.624 39.900
L19.124 39.900"
fill="none" stroke="#000000" stroke-width="0.200" />
<path d="M37.090 38.200 
L37.990 38.200
A0.806,0.806 0 0,0 39.590,38.400
A0.997,0.997 0 0,0 39.340,37.600
L36.990 35.100
L36.990 34.900
L40.240 34.900
L40.240 35.700
L38.740 35.700
L40.040 37.150
A1.651,1.651 0 0,1 39.840,39.550
A1.697,1.697 0 0,1 37.740,39.550
A1.726,1.726 0 0,1 37.090,38.200"
fill="none" stroke="#000000" stroke-width="0.200" />
<path d="M55.007 38.400 
L55.857 38.400
A0.695,0.695 0 0,0 56.407,39.100
A1.377,1.377 0 0,0 57.007,39.100
A0.579,0.579 0 0,0 57.107,38.000
A1.326,1.326 0 0,0 56.457,37.900
L56.457 37.150
L56.857 37.150
A0.661,0.661 0 0,0 57.407,36.850
A0.813,0.813 0 0,0 57.307,35.850
A0.915,0.915 0 0,0 55.957,35.900
A0.870,0.870 0 0,0 55.757,36.450
L54.857 36.450
A1.537,1.537 0 0,1 55.857,35.000
A2.178,2.178 0 0,1 57.507,35.050
A1.546,1.546 0 0,1 58.407,36.400
A1.162,1.162 0 0,1 57.707,37.500
A1.181,1.181 0 0,1 58.057,39.250
A1.776,1.776 0 0,1 55.257,39.250
A1.214,1.214 0 0,1 55.007,38.400"
fill="none" stroke="#000000" stroke-width="0.200" />
<path d="M75.074 38.450 
L73.974 36.950
L75.074 36.950
L75.074 38.450
M75.174 39.900 
L72.724 36.550
L72.724 36.150
L75.074 36.150
L75.074 34.900
L75.874 34.900
L75.874 36.150
L76.524 36.150
L76.524 36.950
L75.874 36.950
L75.874 39.900
L75.174 39.900"
fill="none" stroke="#000000" stroke-width="0.200" />
<path d="M91.590 39.900 
L90.990 37.200
A2.084,2.084 0 0,0 92.490,37.450
A0.876,0.876 0 0,0 93.190,36.550
A0.943,0.943 0 0,0 91.840,35.750
A9.609,9.609 0 0,0 90.790,36.350
L90.590 35.500
A2.350,2.350 0 0,1 93.140,35.100
A1.608,1.608 0 0,1 93.690,37.600
A1.804,1.804 0 0,1 91.990,38.200
L92.190 39.150
L93.790 39.150
L93.790 39.900
L91.590 39.900"
fill="none" stroke="#000000" stroke-width="0.200" />
<path d="M109.344 36.650 A0.950,0.950 0 0,1 111.244,36.650A0.950,0.950 0 0,1 109.344,36.650
M109.844 38.000 
L111.194 39.900
L110.244 39.900
L108.794 37.850
A1.877,1.877 0 0,1 110.244,34.900
A1.778,1.778 0 0,1 112.094,36.850
A1.494,1.494 0 0,1 109.844,38.000"
fill="none" stroke="#000000" stroke-width="0.200" />
<path d="M126.324 39.900 
L126.324 39.100
L128.674 39.100
L126.324 34.900
L127.324 34.900
L130.074 39.900
L126.324 39.900"
fill="none" stroke="#000000" stroke-width="0.200" />
<path d="M145.841 38.000 A0.650,0.650 0 0,1 145.841,39.300A0.650,0.650 0 0,1 145.841,38.000
M145.841 37.200 A0.800,0.800 0 0,0 145.841,35.600A0.800,0.800 0 0,0 145.841,37.200
M146.741 37.650 
A1.357,1.357 0 0,0 147.491,36.400
A1.548,1.548 0 0,0 145.841,34.900
A1.548,1.548 0 0,0 144.191,36.400
A1.357,1.357 0 0,0 144.941,37.650
A1.132,1.132 0 0,0 144.591,39.400
A1.461,1.461 0 0,0 145.841,39.900
A1.461,1.461 0 0,0 147.091,39.400
A1.132,1.132 0 0,0 146.741,37.650"
fill="none" stroke="#000000" stroke-width="0.200" />
<path d="M162.914 38.150 A0.950,0.950 0 0,0 164.814,38.150A0.950,0.950 0 0,0 162.914,38.150
M164.314 36.800 
L162.964 34.900
L163.914 34.900
L165.364 36.950
A1.877,1.877 0 0,1 163.914,39.900
A1.778,1.778 0 0,1 162.064,37.950
A1.494,1.494 0 0,1 164.314,36.800"
fill="none" stroke="#000000" stroke-width="0.200" />
<path d="M177.924 39.900 
L177.924 39.200
L178.574 39.200
L178.574 34.900
L179.424 34.900
L179.424 39.900
L177.924 39.900
M181.474 38.850 
A2.979,2.979 0 0,1 181.474,35.950
A0.690,0.690 0 0,1 182.674,35.950
A2.979,2.979 0 0,1 182.674,38.850
A0.690,0.690 0 0,1 181.474,38.850
M180.774 39.250 
A3.368,3.368 0 0,1 180.774,35.550
A1.562,1.562 0 0,1 183.374,35.550
A3.368,3.368 0 0,1 183.374,39.250
A1.562,1.562 0 0,1 180.774,39.250"
fill="none" stroke="#000000" stroke-width="0.200" />
<path d="M195.790 39.900 
L195.790 39.200
L196.440 39.200
L196.440 34.900
L197.290 34.900
L197.290 39.900
L195.790 39.900
M198.090 39.900 
L198.090 39.200
L198.740 39.200
L198.740 34.900
L199.590 34.900
L199.590 39.900
L198.090 39.900"
fill="none" stroke="#000000" stroke-width="0.200" />
<path d="M213.907 39.900 
L213.907 39.200
L214.557 39.200
L214.557 34.900
L215.407 34.900
L215.407 39.900
L213.907 39.900
M216.257 38.200 
L217.157 38.200
A0.806,0.806 0 0,0 218.757,38.400
A0.997,0.997 0 0,0 218.507,37.600
L216.157 35.100
L216.157 34.900
L219.407 34.900
L219.407 35.700
L217.907 35.700
L219.207 37.150
A1.651,1.651 0 0,1 219.007,39.550
A1.697,1.697 0 0,1 216.907,39.550
A1.726,1.726 0 0,1 216.257,38.200"
fill="none" stroke="#000000" stroke-width="0.200" />
<path d="M231.524 39.900 
L231.524 39.200
L232.174 39.200
L232.174 34.900
L233.024 34.900
L233.024 39.900
L231.524 39.900
M233.924 38.400 
L234.774 38.400
A0.695,0.695 0 0,0 235.324,39.100
A1.377,1.377 0 0,0 235.924,39.100
A0.579,0.579 0 0,0 236.024,38.000
A1.326,1.326 0 0,0 235.374,37.900
L235.374 37.150
L235.774 37.150
A0.661,0.661 0 0,0 236.324,36.850
A0.813,0.813 0 0,0 236.224,35.850
A0.915,0.915 0 0,0 234.874,35.900
A0.870,0.870 0 0,0 234.674,36.450
L233.774 36.450
A1.537,1.537 0 0,1 234.774,35.000
A2.178,2.178 0 0,1 236.424,35.050
A1.546,1.546 0 0,1 237.324,36.400
A1.162,1.162 0 0,1 236.624,37.500
A1.181,1.181 0 0,1 236.974,39.250
A1.776,1.776 0 0,1 234.174,39.250
A1.214,1.214 0 0,1 233.924,38.400"
fill="none" stroke="#000000" stroke-width="0.200" />
<path d="M249.390 39.900 
L249.390 39.200
L250.040 39.200
L250.040 34.900
L250.890 34.900
L250.890 39.900
L249.390 39.900
M254.040 38.450 
L252.940 36.950
L254.040 36.950
L254.040 38.450
M254.140 39.900 
L251.690 36.550
L251.690 36.150
L254.040 36.150
L254.040 34.900
L254.840 34.900
L254.840 36.150
L255.490 36.150
L255.490 36.950
L254.840 36.950
L254.840 39.900
L254.140 39.900"
fill="none" stroke="#000000" stroke-width="0.200" />
<path d="M267.257 39.900 
L267.257 39.200
L267.907 39.200
L267.907 34.900
L268.757 34.900
L268.757 39.900
L267.257 39.900
M270.557 39.900 
L269.957 37.200
A2.084,2.084 0 0,0 271.457,37.450
A0.876,0.876 0 0,0 272.157,36.550
A0.943,0.943 0 0,0 270.807,35.750
A9.609,9.609 0 0,0 269.757,36.350
L269.557 35.500
A2.350,2.350 0 0,1 272.107,35.100
A1.608,1.608 0 0,1 272.657,37.600
A1.804,1.804 0 0,1 270.957,38.200
L271.157 39.150
L272.757 39.150
L272.757 39.900
L270.557 39.900"
fill="none" stroke="#000000" stroke-width="0.200" />
<path d="M12.000 157.000 A2.000,2.000 0 1,1 10.000,155.000"
fill="none" stroke="#000000" stroke-width="0.100" />
<circle cx="10.000" cy="157.000" r="1.729"
fill="#ffffff" stroke="#000000" stroke-width="0.100" 
/>
<path d="M300.000 157.000 A2.000,2.000 0 1,1 298.000,155.000"
fill="none" stroke="#000000" stroke-width="0.100" />
<circle cx="298.000" cy="157.000" r="1.729"
fill="#ffffff" stroke="#000000" stroke-width="0.100" 
/>
<path d="M12.000 10.000 A2.000,2.000 0 1,1 10.000,8.000"
fill="none" stroke="#000000" stroke-width="0.100" />
<circle cx="10.000" cy="10.000" r="1.729"
fill="#ffffff" stroke="#000000" stroke-width="0.100" 
/>
<path d="M300.000 10.000 A2.000,2.000 0 1,1 298.000,8.000"
fill="none" stroke="#000000" stroke-width="0.100" />
<circle cx="298.000" cy="10.000" r="1.729"
fill="#ffffff" stroke="#000000" stroke-width="0.100" 
/>
<rect x="108.350" y="67.800" width="91.300" height="31.400" rx="1.500"
fill="#ffffff" stroke="#000000" stroke-width="0.100" 
/>
<circle cx="100.000" cy="98.000" r="1.750"
fill="#ffffff" stroke="#000000" stroke-width="0.100" 
/>
<circle cx="100.000" cy="69.000" r="1.750"
fill="#ffffff" stroke="#000000" stroke-width="0.100" 
/>
<circle cx="208.000" cy="98.000" r="1.750"
fill="#ffffff" stroke="#000000" stroke-width="0.100" 
/>
<circle cx="208.000" cy="69.000" r="1.750"
fill="#ffffff" stroke="#000000" stroke-width="0.100" 
/>
<path d="M293.680 132.400 A5.556,5.556 0 1,1 288.124,126.844"
fill="none" stroke="#000000" stroke-width="0.100" />
<circle cx="288.124" cy="132.400" r="4.869"
fill="#ffffff" stroke="#000000" stroke-width="0.100" 
/>
<circle cx="288.124" cy="143.900" r="2.500"
fill="#ffffff" stroke="#000000" stroke-width="0.100" 
/>
<path d="M25.430 132.400 A5.556,5.556 0 1,1 19.874,126.844"
fill="none" stroke="#000000" stroke-width="0.100" />
<circle cx="19.874" cy="132.400" r="4.869"
fill="#ffffff" stroke="#000000" stroke-width="0.100" 
/>
<circle cx="19.874" cy="143.900" r="2.500"
fill="#ffffff" stroke="#000000" stroke-width="0.100" 
/>
<path d="M43.313 132.400 A5.556,5.556 0 1,1 37.757,126.844"
fill="none" stroke="#000000" stroke-width="0.100" />
<circle cx="37.757" cy="132.400" r="4.869"
fill="#ffffff" stroke="#000000" stroke-width="0.100" 
/>
<circle cx="37.757" cy="143.900" r="2.500"
fill="#ffffff" stroke="#000000" stroke-width="0.100" 
/>
<path d="M61.196 132.400 A5.556,5.556 0 1,1 55.640,126.844"
fill="none" stroke="#000000" stroke-width="0.100" />
<circle cx="55.640" cy="132.400" r="4.869"
fill="#ffffff" stroke="#000000" stroke-width="0.100" 
/>
<circle cx="55.640" cy="143.900" r="2.500"
fill="#ffffff" stroke="#000000" stroke-width="0.100" 
/>
<path d="M79.080 132.400 A5.556,5.556 0 1,1 73.524,126.844"
fill="none" stroke="#000000" stroke-width="0.100" />
<circle cx="73.524" cy="132.400" r="4.869"
fill="#ffffff" stroke="#000000" stroke-width="0.100" 
/>
<circle cx="73.524" cy="143.900" r="2.500"
fill="#ffffff" stroke="#000000" stroke-width="0.100" 
/>
<path d="M96.963 132.400 A5.556,5.556 0 1,1 91.407,126.844"
fill="none" stroke="#000000" stroke-width="0.100" />
<circle cx="91.407" cy="132.400" r="4.869"
fill="#ffffff" stroke="#000000" stroke-width="0.100" 
/>
<circle cx="91.407" cy="143.900" r="2.500"
fill="#ffffff" stroke="#000000" stroke-width="0.100" 
/>
<path d="M114.846 132.400 A5.556,5.556 0 1,1 109.290,126.844"
fill="none" stroke="#000000" stroke-width="0.100" />
<circle cx="109.290" cy="132.400" r="4.869"
fill="#ffffff" stroke="#000000" stroke-width="0.100" 
/>
<circle cx="109.290" cy="143.900" r="2.500"
fill="#ffffff" stroke="#000000" stroke-width="0.100" 
/>
<path d="M132.730 132.400 A5.556,5.556 0 1,1 127.174,126.844"
fill="none" stroke="#000000" stroke-width="0.100" />
<circle cx="127.174" cy="132.400" r="4.869"
fill="#ffffff" stroke="#000000" stroke-width="0.100" 
/>
<circle cx="127.174" cy="143.900" r="2.500"
fill="#ffffff" stroke="#000000" stroke-width="0.100" 
/>
<path d="M150.613 132.400 A5.556,5.556 0 1,1 145.057,126.844"
fill="none" stroke="#000000" stroke-width="0.100" />
<circle cx="145.057" cy="132.400" r="4.869"
fill="#ffffff" stroke="#000000" stroke-width="0.100" 
/>
<circle cx="145.057" cy="143.900" r="2.500"
fill="#ffffff" stroke="#000000" stroke-width="0.100" 
/>
<path d="M168.496 132.400 A5.556,5.556 0 1,1 162.940,126.844"
fill="none" stroke="#000000" stroke-width="0.100" />
<circle cx="162.940" cy="132.400" r="4.869"
fill="#ffffff" stroke="#000000" stroke-width="0.100" 
/>
<circle cx="162.940" cy="143.900" r="2.500"
fill="#ffffff" stroke="#000000" stroke-width="0.100" 
/>
<path d="M186.380 132.400 A5.556,5.556 0 1,1 180.824,126.844"
fill="none" stroke="#000000" stroke-width="0.100" />
<circle cx="180.824" cy="132.400" r="4.869"
fill="#ffffff" stroke="#000000" stroke-width="0.100" 
/>
<circle cx="180.824" cy="143.900" r="2.500"
fill="#ffffff" stroke="#000000" stroke-width="0.100" 
/>
<path d="M204.263 132.400 A5.556,5.556 0 1,1 198.707,126.844"
fill="none" stroke="#000000" stroke-width="0.100" />
<circle cx="198.707" cy="132.400" r="4.869"
fill="#ffffff" stroke="#000000" stroke-width="0.100" 
/>
<circle cx="198.707" cy="143.900" r="2.500"
fill="#ffffff" stroke="#000000" stroke-width="0.100" 
/>
<path d="M222.146 132.400 A5.556,5.556 0 1,1 216.590,126.844"
fill="none" stroke="#000000" stroke-width="0.100" />
<circle cx="216.590" cy="132.400" r="4.869"
fill="#ffffff" stroke="#000000" stroke-width="0.100" 
/>
<circle cx="216.590" cy="143.900" r="2.500"
fill="#ffffff" stroke="#000000" stroke-width="0.100" 
/>
<path d="M240.030 132.400 A5.556,5.556 0 1,1 234.474,126.844"
fill="none" stroke="#000000" stroke-width="0.100" />
<circle cx="234.474" cy="132.400" r="4.869"
fill="#ffffff" stroke="#000000" stroke-width="0.100" 
/>
<circle cx="234.474" cy="143.900" r="2.500"
fill="#ffffff" stroke="#000000" stroke-width="0.100" 
/>
<path d="M257.913 132.400 A5.556,5.556 0 1,1 252.357,126.844"
fill="none" stroke="#000000" stroke-width="0.100" />
<circle cx="252.357" cy="132.400" r="4.869"
fill="#ffffff" stroke="#000000" stroke-width="0.100" 
/>
<circle cx="252.357" cy="143.900" r="2.500"
fill="#ffffff" stroke="#000000" stroke-width="0.100" 
/>
<path d="M275.796 132.400 A5.556,5.556 0 1,1 270.240,126.844"
fill="none" stroke="#000000" stroke-width="0.100" />
<circle cx="270.240" cy="132.400" r="4.869"
fill="#ffffff" stroke="#000000" stroke-width="0.100" 
/>
<circle cx="270.240" cy="143.900" r="2.500"
fill="#ffffff" stroke="#000000" stroke-width="0.100" 
/>
<path d="M293.680 17.650 A5.556,5.556 0 1,1 288.124,12.094"
fill="none" stroke="#000000" stroke-width="0.100" />
<circle cx="288.124" cy="17.650" r="4.869"
fill="#ffffff" stroke="#000000" stroke-width="0.100" 
/>
<circle cx="288.124" cy="28.400" r="2.500"
fill="#ffffff" stroke="#000000" stroke-width="0.100" 
/>
<path d="M25.680 17.650 A5.556,5.556 0 1,1 20.124,12.094"
fill="none" stroke="#000000" stroke-width="0.100" />
<circle cx="20.124" cy="17.650" r="4.869"
fill="#ffffff" stroke="#000000" stroke-width="0.100" 
/>
<circle cx="20.124" cy="28.400" r="2.500"
fill="#ffffff" stroke="#000000" stroke-width="0.100" 
/>
<path d="M43.546 17.650 A5.556,5.556 0 1,1 37.990,12.094"
fill="none" stroke="#000000" stroke-width="0.100" />
<circle cx="37.990" cy="17.650" r="4.869"
fill="#ffffff" stroke="#000000" stroke-width="0.100" 
/>
<circle cx="37.990" cy="28.400" r="2.500"
fill="#ffffff" stroke="#000000" stroke-width="0.100" 
/>
<path d="M61.413 17.650 A5.556,5.556 0 1,1 55.857,12.094"
fill="none" stroke="#000000" stroke-width="0.100" />
<circle cx="55.857" cy="17.650" r="4.869"
fill="#ffffff" stroke="#000000" stroke-width="0.100" 
/>
<circle cx="55.857" cy="28.400" r="2.500"
fill="#ffffff" stroke="#000000" stroke-width="0.100" 
/>
<path d="M79.280 17.650 A5.556,5.556 0 1,1 73.724,12.094"
fill="none" stroke="#000000" stroke-width="0.100" />
<circle cx="73.724" cy="17.650" r="4.869"
fill="#ffffff" stroke="#000000" stroke-width="0.100" 
/>
<circle cx="73.724" cy="28.400" r="2.500"
fill="#ffffff" stroke="#000000" stroke-width="0.100" 
/>
<path d="M97.146 17.650 A5.556,5.556 0 1,1 91.590,12.094"
fill="none" stroke="#000000" stroke-width="0.100" />
<circle cx="91.590" cy="17.650" r="4.869"
fill="#ffffff" stroke="#000000" stroke-width="0.100" 
/>
<circle cx="91.590" cy="28.400" r="2.500"
fill="#ffffff" stroke="#000000" stroke-width="0.100" 
/>
<path d="M115.013 17.650 A5.556,5.556 0 1,1 109.457,12.094"
fill="none" stroke="#000000" stroke-width="0.100" />
<circle cx="109.457" cy="17.650" r="4.869"
fill="#ffffff" stroke="#000000" stroke-width="0.100" 
/>
<circle cx="109.457" cy="28.400" r="2.500"
fill="#ffffff" stroke="#000000" stroke-width="0.100" 
/>
<path d="M132.880 17.650 A5.556,5.556 0 1,1 127.324,12.094"
fill="none" stroke="#000000" stroke-width="0.100" />
<circle cx="127.324" cy="17.650" r="4.869"
fill="#ffffff" stroke="#000000" stroke-width="0.100" 
/>
<circle cx="127.324" cy="28.400" r="2.500"
fill="#ffffff" stroke="#000000" stroke-width="0.100" 
/>
<path d="M150.746 17.650 A5.556,5.556 0 1,1 145.190,12.094"
fill="none" stroke="#000000" stroke-width="0.100" />
<circle cx="145.190" cy="17.650" r="4.869"
fill="#ffffff" stroke="#000000" stroke-width="0.100" 
/>
<circle cx="145.190" cy="28.400" r="2.500"
fill="#ffffff" stroke="#000000" stroke-width="0.100" 
/>
<path d="M168.613 17.650 A5.556,5.556 0 1,1 163.057,12.094"
fill="none" stroke="#000000" stroke-width="0.100" />
<circle cx="163.057" cy="17.650" r="4.869"
fill="#ffffff" stroke="#000000" stroke-width="0.100" 
/>
<circle cx="163.057" cy="28.400" r="2.500"
fill="#ffffff" stroke="#000000" stroke-width="0.100" 
/>
<path d="M186.480 17.650 A5.556,5.556 0 1,1 180.924,12.094"
fill="none" stroke="#000000" stroke-width="0.100" />
<circle cx="180.924" cy="17.650" r="4.869"
fill="#ffffff" stroke="#000000" stroke-width="0.100" 
/>
<circle cx="180.924" cy="28.400" r="2.500"
fill="#ffffff" stroke="#000000" stroke-width="0.100" 
/>
<path d="M204.346 17.650 A5.556,5.556 0 1,1 198.790,12.094"
fill="none" stroke="#000000" stroke-width="0.100" />
<circle cx="198.790" cy="17.650" r="4.869"
fill="#ffffff" stroke="#000000" stroke-width="0.100" 
/>
<circle cx="198.790" cy="28.400" r="2.500"
fill="#ffffff" stroke="#000000" stroke-width="0.100" 
/>
<path d="M222.213 17.650 A5.556,5.556 0 1,1 216.657,12.094"
fill="none" stroke="#000000" stroke-width="0.100" />
<circle cx="216.657" cy="17.650" r="4.869"
fill="#ffffff" stroke="#000000" stroke-width="0.100" 
/>
<circle cx="216.657" cy="28.400" r="2.500"
fill="#ffffff" stroke="#000000" stroke-width="0.100" 
/>
<path d="M240.080 17.650 A5.556,5.556 0 1,1 234.524,12.094"
fill="none" stroke="#000000" stroke-width="0.100" />
<circle cx="234.524" cy="17.650" r="4.869"
fill="#ffffff" stroke="#000000" stroke-width="0.100" 
/>
<circle cx="234.524" cy="28.400" r="2.500"
fill="#ffffff" stroke="#000000" stroke-width="0.100" 
/>
<path d="M257.946 17.650 A5.556,5.556 0 1,1 252.390,12.094"
fill="none" stroke="#000000" stroke-width="0.100" />
<circle cx="252.390" cy="17.650" r="4.869"
fill="#ffffff" stroke="#000000" stroke-width="0.100" 
/>
<circle cx="252.390" cy="28.400" r="2.500"
fill="#ffffff" stroke="#000000" stroke-width="0.100" 
/>
<path d="M275.813 17.650 A5.556,5.556 0 1,1 270.257,12.094"
fill="none" stroke="#000000" stroke-width="0.100" />
<circle cx="270.257" cy="17.650" r="4.869"
fill="#ffffff" stroke="#000000" stroke-width="0.100" 
/>
<circle cx="270.257" cy="28.400" r="2.500"
fill="#ffffff" stroke="#000000" stroke-width="0.100" 
/>
<path d="M235.750 83.500 A4.500,4.500 0 1,1 231.250,79.000"
fill="none" stroke="#000000" stroke-width="0.100" />
<circle cx="231.250" cy="83.500" r="3.823"
fill="#ffffff" stroke="#000000" stroke-width="0.100" 
/>
<circle cx="261.000" cy="83.500" r="8.100"
fill="#ffffff" stroke="#000000" stroke-width="0.100" 
/>
<path d="M-1.000 0.000 L1.000 0.000
M0.000 -1.000 L0.000 1.000"
fill="none" stroke="#ff0000" stroke-width="0.100" />
<path d="M9.000 157.000 L11.000 157.000
M10.000 156.000 L10.000 158.000"
fill="none" stroke="#ff0000" stroke-width="0.100" />
<path d="M297.000 157.000 L299.000 157.000
M298.000 156.000 L298.000 158.000"
fill="none" stroke="#ff0000" stroke-width="0.100" />
<path d="M9.000 10.000 L11.000 10.000
M10.000 9.000 L10.000 11.000"
fill="none" stroke="#ff0000" stroke-width="0.100" />
<path d="M297.000 10.000 L299.000 10.000
M298.000 9.000 L298.000 11.000"
fill="none" stroke="#ff0000" stroke-width="0.100" />
<path d="M153.000 83.500 L155.000 83.500
M154.000 82.500 L154.000 84.500"
fill="none" stroke="#ff0000" stroke-width="0.100" />
<path d="M99.000 98.000 L101.000 98.000
M100.000 97.000 L100.000 99.000"
fill="none" stroke="#00ff00" stroke-width="0.100" />
<path d="M99.000 69.000 L101.000 69.000
M100.000 68.000 L100.000 70.000"
fill="none" stroke="#00ff00" stroke-width="0.100" />
<path d="M99.000 83.500 L101.000 83.500
M100.000 82.500 L100.000 84.500"
fill="none" stroke="#ff0000" stroke-width="0.100" />
<path d="M207.000 98.000 L209.000 98.000
M208.000 97.000 L208.000 99.000"
fill="none" stroke="#00ff00" stroke-width="0.100" />
<path d="M207.000 69.000 L209.000 69.000
M208.000 68.000 L208.000 70.000"
fill="none" stroke="#00ff00" stroke-width="0.100" />
<path d="M207.000 83.500 L209.000 83.500
M208.000 82.500 L208.000 84.500"
fill="none" stroke="#ff0000" stroke-width="0.100" />
<path d="M4.000 84.750 L6.000 84.750
M5.000 83.750 L5.000 85.750"
fill="none" stroke="#ff0000" stroke-width="0.100" />
<path d="M287.124 132.400 L289.124 132.400
M288.124 131.400 L288.124 133.400"
fill="none" stroke="#ff0000" stroke-width="0.100" />
<path d="M287.124 143.900 L289.124 143.900
M288.124 142.900 L288.124 144.900"
fill="none" stroke="#ff0000" stroke-width="0.100" />
<path d="M284.124 152.150 L286.124 152.150
M285.124 151.150 L285.124 153.150"
fill="none" stroke="#ff0000" stroke-width="0.100" />
<path d="M18.874 132.400 L20.874 132.400
M19.874 131.400 L19.874 133.400"
fill="none" stroke="#ff0000" stroke-width="0.100" />
<path d="M18.874 143.900 L20.874 143.900
M19.874 142.900 L19.874 144.900"
fill="none" stroke="#ff0000" stroke-width="0.100" />
<path d="M17.874 152.150 L19.874 152.150
M18.874 151.150 L18.874 153.150"
fill="none" stroke="#ff0000" stroke-width="0.100" />
<path d="M36.757 132.400 L38.757 132.400
M37.757 131.400 L37.757 133.400"
fill="none" stroke="#ff0000" stroke-width="0.100" />
<path d="M36.757 143.900 L38.757 143.900
M37.757 142.900 L37.757 144.900"
fill="none" stroke="#ff0000" stroke-width="0.100" />
<path d="M35.757 152.150 L37.757 152.150
M36.757 151.150 L36.757 153.150"
fill="none" stroke="#ff0000" stroke-width="0.100" />
<path d="M54.640 132.400 L56.640 132.400
M55.640 131.400 L55.640 133.400"
fill="none" stroke="#ff0000" stroke-width="0.100" />
<path d="M54.640 143.900 L56.640 143.900
M55.640 142.900 L55.640 144.900"
fill="none" stroke="#ff0000" stroke-width="0.100" />
<path d="M53.640 152.150 L55.640 152.150
M54.640 151.150 L54.640 153.150"
fill="none" stroke="#ff0000" stroke-width="0.100" />
<path d="M72.524 132.400 L74.524 132.400
M73.524 131.400 L73.524 133.400"
fill="none" stroke="#ff0000" stroke-width="0.100" />
<path d="M72.524 143.900 L74.524 143.900
M73.524 142.900 L73.524 144.900"
fill="none" stroke="#ff0000" stroke-width="0.100" />
<path d="M71.524 152.150 L73.524 152.150
M72.524 151.150 L72.524 153.150"
fill="none" stroke="#ff0000" stroke-width="0.100" />
<path d="M90.407 132.400 L92.407 132.400
M91.407 131.400 L91.407 133.400"
fill="none" stroke="#ff0000" stroke-width="0.100" />
<path d="M90.407 143.900 L92.407 143.900
M91.407 142.900 L91.407 144.900"
fill="none" stroke="#ff0000" stroke-width="0.100" />
<path d="M89.407 152.150 L91.407 152.150
M90.407 151.150 L90.407 153.150"
fill="none" stroke="#ff0000" stroke-width="0.100" />
<path d="M108.290 132.400 L110.290 132.400
M109.290 131.400 L109.290 133.400"
fill="none" stroke="#ff0000" stroke-width="0.100" />
<path d="M108.290 143.900 L110.290 143.900
M109.290 142.900 L109.290 144.900"
fill="none" stroke="#ff0000" stroke-width="0.100" />
<path d="M107.290 152.150 L109.290 152.150
M108.290 151.150 L108.290 153.150"
fill="none" stroke="#ff0000" stroke-width="0.100" />
<path d="M126.174 132.400 L128.174 132.400
M127.174 131.400 L127.174 133.400"
fill="none" stroke="#ff0000" stroke-width="0.100" />
<path d="M126.174 143.900 L128.174 143.900
M127.174 142.900 L127.174 144.900"
fill="none" stroke="#ff0000" stroke-width="0.100" />
<path d="M125.174 152.150 L127.174 152.150
M126.174 151.150 L126.174 153.150"
fill="none" stroke="#ff0000" stroke-width="0.100" />
<path d="M144.057 132.400 L146.057 132.400
M145.057 131.400 L145.057 133.400"
fill="none" stroke="#ff0000" stroke-width="0.100" />
<path d="M144.057 143.900 L146.057 143.900
M145.057 142.900 L145.057 144.900"
fill="none" stroke="#ff0000" stroke-width="0.100" />
<path d="M143.057 152.150 L145.057 152.150
M144.057 151.150 L144.057 153.150"
fill="none" stroke="#ff0000" stroke-width="0.100" />
<path d="M161.940 132.400 L163.940 132.400
M162.940 131.400 L162.940 133.400"
fill="none" stroke="#ff0000" stroke-width="0.100" />
<path d="M161.940 143.900 L163.940 143.900
M162.940 142.900 L162.940 144.900"
fill="none" stroke="#ff0000" stroke-width="0.100" />
<path d="M160.940 152.150 L162.940 152.150
M161.940 151.150 L161.940 153.150"
fill="none" stroke="#ff0000" stroke-width="0.100" />
<path d="M179.824 132.400 L181.824 132.400
M180.824 131.400 L180.824 133.400"
fill="none" stroke="#ff0000" stroke-width="0.100" />
<path d="M179.824 143.900 L181.824 143.900
M180.824 142.900 L180.824 144.900"
fill="none" stroke="#ff0000" stroke-width="0.100" />
<path d="M176.824 152.150 L178.824 152.150
M177.824 151.150 L177.824 153.150"
fill="none" stroke="#ff0000" stroke-width="0.100" />
<path d="M197.707 132.400 L199.707 132.400
M198.707 131.400 L198.707 133.400"
fill="none" stroke="#ff0000" stroke-width="0.100" />
<path d="M197.707 143.900 L199.707 143.900
M198.707 142.900 L198.707 144.900"
fill="none" stroke="#ff0000" stroke-width="0.100" />
<path d="M194.707 152.150 L196.707 152.150
M195.707 151.150 L195.707 153.150"
fill="none" stroke="#ff0000" stroke-width="0.100" />
<path d="M215.590 132.400 L217.590 132.400
M216.590 131.400 L216.590 133.400"
fill="none" stroke="#ff0000" stroke-width="0.100" />
<path d="M215.590 143.900 L217.590 143.900
M216.590 142.900 L216.590 144.900"
fill="none" stroke="#ff0000" stroke-width="0.100" />
<path d="M212.840 152.150 L214.840 152.150
M213.840 151.150 L213.840 153.150"
fill="none" stroke="#ff0000" stroke-width="0.100" />
<path d="M233.474 132.400 L235.474 132.400
M234.474 131.400 L234.474 133.400"
fill="none" stroke="#ff0000" stroke-width="0.100" />
<path d="M233.474 143.900 L235.474 143.900
M234.474 142.900 L234.474 144.900"
fill="none" stroke="#ff0000" stroke-width="0.100" />
<path d="M230.474 152.150 L232.474 152.150
M231.474 151.150 L231.474 153.150"
fill="none" stroke="#ff0000" stroke-width="0.100" />
<path d="M251.357 132.400 L253.357 132.400
M252.357 131.400 L252.357 133.400"
fill="none" stroke="#ff0000" stroke-width="0.100" />
<path d="M251.357 143.900 L253.357 143.900
M252.357 142.900 L252.357 144.900"
fill="none" stroke="#ff0000" stroke-width="0.100" />
<path d="M248.357 152.150 L250.357 152.150
M249.357 151.150 L249.357 153.150"
fill="none" stroke="#ff0000" stroke-width="0.100" />
<path d="M269.240 132.400 L271.240 132.400
M270.240 131.400 L270.240 133.400"
fill="none" stroke="#ff0000" stroke-width="0.100" />
<path d="M269.240 143.900 L271.240 143.900
M270.240 142.900 L270.240 144.900"
fill="none" stroke="#ff0000" stroke-width="0.100" />
<path d="M266.240 152.150 L268.240 152.150
M267.240 151.150 L267.240 153.150"
fill="none" stroke="#ff0000" stroke-width="0.100" />
<path d="M287.124 17.650 L289.124 17.650
M288.124 16.650 L288.124 18.650"
fill="none" stroke="#ff0000" stroke-width="0.100" />
<path d="M287.124 28.400 L289.124 28.400
M288.124 27.400 L288.124 29.400"
fill="none" stroke="#ff0000" stroke-width="0.100" />
<path d="M284.124 37.400 L286.124 37.400
M285.124 36.400 L285.124 38.400"
fill="none" stroke="#ff0000" stroke-width="0.100" />
<path d="M19.124 17.650 L21.124 17.650
M20.124 16.650 L20.124 18.650"
fill="none" stroke="#ff0000" stroke-width="0.100" />
<path d="M19.124 28.400 L21.124 28.400
M20.124 27.400 L20.124 29.400"
fill="none" stroke="#ff0000" stroke-width="0.100" />
<path d="M18.124 37.400 L20.124 37.400
M19.124 36.400 L19.124 38.400"
fill="none" stroke="#ff0000" stroke-width="0.100" />
<path d="M36.990 17.650 L38.990 17.650
M37.990 16.650 L37.990 18.650"
fill="none" stroke="#ff0000" stroke-width="0.100" />
<path d="M36.990 28.400 L38.990 28.400
M37.990 27.400 L37.990 29.400"
fill="none" stroke="#ff0000" stroke-width="0.100" />
<path d="M35.990 37.400 L37.990 37.400
M36.990 36.400 L36.990 38.400"
fill="none" stroke="#ff0000" stroke-width="0.100" />
<path d="M54.857 17.650 L56.857 17.650
M55.857 16.650 L55.857 18.650"
fill="none" stroke="#ff0000" stroke-width="0.100" />
<path d="M54.857 28.400 L56.857 28.400
M55.857 27.400 L55.857 29.400"
fill="none" stroke="#ff0000" stroke-width="0.100" />
<path d="M53.857 37.400 L55.857 37.400
M54.857 36.400 L54.857 38.400"
fill="none" stroke="#ff0000" stroke-width="0.100" />
<path d="M72.724 17.650 L74.724 17.650
M73.724 16.650 L73.724 18.650"
fill="none" stroke="#ff0000" stroke-width="0.100" />
<path d="M72.724 28.400 L74.724 28.400
M73.724 27.400 L73.724 29.400"
fill="none" stroke="#ff0000" stroke-width="0.100" />
<path d="M71.724 37.400 L73.724 37.400
M72.724 36.400 L72.724 38.400"
fill="none" stroke="#ff0000" stroke-width="0.100" />
<path d="M90.590 17.650 L92.590 17.650
M91.590 16.650 L91.590 18.650"
fill="none" stroke="#ff0000" stroke-width="0.100" />
<path d="M90.590 28.400 L92.590 28.400
M91.590 27.400 L91.590 29.400"
fill="none" stroke="#ff0000" stroke-width="0.100" />
<path d="M89.590 37.400 L91.590 37.400
M90.590 36.400 L90.590 38.400"
fill="none" stroke="#ff0000" stroke-width="0.100" />
<path d="M108.457 17.650 L110.457 17.650
M109.457 16.650 L109.457 18.650"
fill="none" stroke="#ff0000" stroke-width="0.100" />
<path d="M108.457 28.400 L110.457 28.400
M109.457 27.400 L109.457 29.400"
fill="none" stroke="#ff0000" stroke-width="0.100" />
<path d="M107.457 37.400 L109.457 37.400
M108.457 36.400 L108.457 38.400"
fill="none" stroke="#ff0000" stroke-width="0.100" />
<path d="M126.324 17.650 L128.324 17.650
M127.324 16.650 L127.324 18.650"
fill="none" stroke="#ff0000" stroke-width="0.100" />
<path d="M126.324 28.400 L128.324 28.400
M127.324 27.400 L127.324 29.400"
fill="none" stroke="#ff0000" stroke-width="0.100" />
<path d="M125.324 37.400 L127.324 37.400
M126.324 36.400 L126.324 38.400"
fill="none" stroke="#ff0000" stroke-width="0.100" />
<path d="M144.190 17.650 L146.190 17.650
M145.190 16.650 L145.190 18.650"
fill="none" stroke="#ff0000" stroke-width="0.100" />
<path d="M144.190 28.400 L146.190 28.400
M145.190 27.400 L145.190 29.400"
fill="none" stroke="#ff0000" stroke-width="0.100" />
<path d="M143.190 37.400 L145.190 37.400
M144.190 36.400 L144.190 38.400"
fill="none" stroke="#ff0000" stroke-width="0.100" />
<path d="M162.057 17.650 L164.057 17.650
M163.057 16.650 L163.057 18.650"
fill="none" stroke="#ff0000" stroke-width="0.100" />
<path d="M162.057 28.400 L164.057 28.400
M163.057 27.400 L163.057 29.400"
fill="none" stroke="#ff0000" stroke-width="0.100" />
<path d="M161.057 37.400 L163.057 37.400
M162.057 36.400 L162.057 38.400"
fill="none" stroke="#ff0000" stroke-width="0.100" />
<path d="M179.924 17.650 L181.924 17.650
M180.924 16.650 L180.924 18.650"
fill="none" stroke="#ff0000" stroke-width="0.100" />
<path d="M179.924 28.400 L181.924 28.400
M180.924 27.400 L180.924 29.400"
fill="none" stroke="#ff0000" stroke-width="0.100" />
<path d="M176.924 37.400 L178.924 37.400
M177.924 36.400 L177.924 38.400"
fill="none" stroke="#ff0000" stroke-width="0.100" />
<path d="M197.790 17.650 L199.790 17.650
M198.790 16.650 L198.790 18.650"
fill="none" stroke="#ff0000" stroke-width="0.100" />
<path d="M197.790 28.400 L199.790 28.400
M198.790 27.400 L198.790 29.400"
fill="none" stroke="#ff0000" stroke-width="0.100" />
<path d="M194.790 37.400 L196.790 37.400
M195.790 36.400 L195.790 38.400"
fill="none" stroke="#ff0000" stroke-width="0.100" />
<path d="M215.657 17.650 L217.657 17.650
M216.657 16.650 L216.657 18.650"
fill="none" stroke="#ff0000" stroke-width="0.100" />
<path d="M215.657 28.400 L217.657 28.400
M216.657 27.400 L216.657 29.400"
fill="none" stroke="#ff0000" stroke-width="0.100" />
<path d="M212.907 37.400 L214.907 37.400
M213.907 36.400 L213.907 38.400"
fill="none" stroke="#ff0000" stroke-width="0.100" />
<path d="M233.524 17.650 L235.524 17.650
M234.524 16.650 L234.524 18.650"
fill="none" stroke="#ff0000" stroke-width="0.100" />
<path d="M233.524 28.400 L235.524 28.400
M234.524 27.400 L234.524 29.400"
fill="none" stroke="#ff0000" stroke-width="0.100" />
<path d="M230.524 37.400 L232.524 37.400
M231.524 36.400 L231.524 38.400"
fill="none" stroke="#ff0000" stroke-width="0.100" />
<path d="M251.390 17.650 L253.390 17.650
M252.390 16.650 L252.390 18.650"
fill="none" stroke="#ff0000" stroke-width="0.100" />
<path d="M251.390 28.400 L253.390 28.400
M252.390 27.400 L252.390 29.400"
fill="none" stroke="#ff0000" stroke-width="0.100" />
<path d="M248.390 37.400 L250.390 37.400
M249.390 36.400 L249.390 38.400"
fill="none" stroke="#ff0000" stroke-width="0.100" />
<path d="M269.257 17.650 L271.257 17.650
M270.257 16.650 L270.257 18.650"
fill="none" stroke="#ff0000" stroke-width="0.100" />
<path d="M269.257 28.400 L271.257 28.400
M270.257 27.400 L270.257 29.400"
fill="none" stroke="#ff0000" stroke-width="0.100" />
<path d="M266.257 37.400 L268.257 37.400
M267.257 36.400 L267.257 38.400"
fill="none" stroke="#ff0000" stroke-width="0.100" />
<path d="M230.250 83.500 L232.250 83.500
M231.250 82.500 L231.250 84.500"
fill="none" stroke="#ff0000" stroke-width="0.100" />
<path d="M260.000 83.500 L262.000 83.500
M261.000 82.500 L261.000 84.500"
fill="none" stroke="#ff0000" stroke-width="0.100" />
</g>
</svg>
